<svg width="28" height="28" viewBox="0 0 28 28" fill="none" xmlns="http://www.w3.org/2000/svg">
<path d="M27.125 21.8013C27.125 22.6584 26.4303 23.3531 25.5733 23.3531H2.42667C1.5697 23.3532 0.875 22.6584 0.875 21.8013V6.80172C0.875 5.94475 1.5697 5.25 2.42667 5.25H25.5733C26.4303 5.25 27.125 5.94475 27.125 6.80172V21.8013Z" fill="#306FC5"/>
<path d="M4.69922 12.4941H5.48354L5.09148 11.4958L4.69922 12.4941Z" fill="white"/>
<path d="M8.87012 15.8451V16.3086H10.1892V16.8078H8.87012V17.3427H10.3318L11.0091 16.5939L10.3674 15.8451H8.87012Z" fill="white"/>
<path d="M19.173 11.4958L18.7451 12.4941H19.5652L19.173 11.4958Z" fill="white"/>
<path d="M12.6848 17.6276V15.5956L11.7578 16.5939L12.6848 17.6276Z" fill="white"/>
<path d="M14.4319 16.1661C14.3962 15.9522 14.2535 15.8451 14.0395 15.8451H13.291V16.4868H14.0754C14.2892 16.4868 14.4319 16.3799 14.4319 16.1661Z" fill="white"/>
<path d="M16.9269 16.4157C16.9982 16.3799 17.034 16.2729 17.034 16.1661C17.0697 16.0236 16.9982 15.9522 16.9269 15.9165C16.8558 15.8809 16.7487 15.8809 16.6419 15.8809H15.9287V16.4513H16.6418C16.7486 16.4513 16.8557 16.4513 16.9269 16.4157Z" fill="white"/>
<path d="M22.0602 10.5691V10.9969L21.8464 10.5691H20.1711V10.9969L19.9571 10.5691H17.6755C17.2833 10.5691 16.9623 10.6405 16.6773 10.783V10.5691H15.0731V10.6048V10.783C14.8949 10.6405 14.681 10.5691 14.3958 10.5691H8.65617L8.26385 11.4604L7.8718 10.5691H6.58847H6.05368V10.9969L5.87541 10.5691H5.83973H4.30682L3.59371 12.2446L2.77386 14.0627L2.75879 14.0984H2.77386H4.59203H4.6148L4.62772 14.0627L4.84172 13.5281H5.30514L5.51904 14.0984H7.58653V14.0627V13.6706L7.7649 14.0984H8.79865L8.97681 13.6706V14.0627V14.0984H9.79676H13.8965H13.9322V13.1715H14.0037C14.0749 13.1715 14.0749 13.1715 14.0749 13.2785V14.0628H16.6417V13.8489C16.8556 13.956 17.1762 14.0628 17.6041 14.0628H18.6737L18.8876 13.4925H19.3866L19.6005 14.0628H21.6681V13.7063V13.5281L21.9891 14.0628H22.0602H22.096H23.6646V10.5691H22.0603H22.0602ZM9.97513 13.5638H9.61855H9.4047V13.3501V11.603L9.36902 11.6848V11.6838L8.53969 13.5638H8.51343H8.32276H8.01428L7.15874 11.603V13.5638H5.94673L5.6972 13.0291H4.48498L4.2354 13.5638H3.60874L4.66335 11.0683H5.55452L6.55268 13.4567V11.0683H6.76653H7.49717L7.51399 11.104H7.51522L7.965 12.0829L8.288 12.8164L8.29944 12.7794L9.01239 11.0683H9.97508V13.5638H9.97513ZM12.435 11.603H11.0447V12.0664H12.3994V12.5655H11.0447V13.0647H12.435V13.5993H10.4387V11.0683H12.435V11.603ZM14.9778 12.5223C14.9787 12.5231 14.9799 12.5236 14.981 12.5244C14.9945 12.5387 15.006 12.553 15.0158 12.5667C15.0841 12.6562 15.1394 12.7893 15.1421 12.9846C15.1423 12.9879 15.1425 12.9913 15.1427 12.9947C15.1427 12.9966 15.143 12.9983 15.143 13.0003C15.143 13.0014 15.1429 13.0023 15.1429 13.0034C15.1438 13.023 15.1443 13.0431 15.1443 13.0647V13.5638H14.6096V13.2785C14.6096 13.136 14.6096 12.922 14.5025 12.7794C14.4689 12.7457 14.4348 12.7235 14.3976 12.7077C14.3442 12.6731 14.243 12.6726 14.0749 12.6726H13.433V13.5638H12.8271V11.0683H14.1819C14.5025 11.0683 14.7165 11.0683 14.8949 11.1753C15.0695 11.2801 15.175 11.4541 15.179 11.7296C15.1708 12.109 14.9273 12.3171 14.7522 12.3873C14.7522 12.3873 14.8711 12.4113 14.9778 12.5223ZM16.1782 13.5638H15.5721V11.0683H16.1782V13.5638ZM23.13 13.5638H22.3455L21.2048 11.6743V13.2429L21.2011 13.2392V13.5653H20.5988V13.5638H19.9927L19.7788 13.0291H18.5309L18.317 13.5994H17.6397C17.3547 13.5994 16.998 13.5282 16.7842 13.3143C16.5703 13.1004 16.4634 12.8152 16.4634 12.3518C16.4634 11.9953 16.5347 11.6386 16.7842 11.3535C16.9623 11.1394 17.2833 11.0683 17.6754 11.0683H18.2459V11.603H17.6754C17.4615 11.603 17.3547 11.6385 17.2118 11.7457C17.1051 11.8526 17.0337 12.0664 17.0337 12.3159C17.0337 12.6012 17.0694 12.7794 17.2118 12.922C17.319 13.0291 17.4615 13.0648 17.6397 13.0648H17.8892L18.7091 11.1041H19.0658H19.6004L20.5987 13.4926V13.3708V12.5656V12.4944V11.1041H21.4899L22.5236 12.8509V11.1041H23.1299V13.5639H23.13V13.5638Z" fill="white"/>
<path d="M14.4691 12.1074C14.4795 12.0963 14.4889 12.0837 14.4969 12.0692C14.5292 12.0181 14.5662 11.926 14.5463 11.8004C14.5455 11.7888 14.5434 11.7782 14.5409 11.7679C14.5402 11.765 14.5403 11.7625 14.5396 11.7596L14.5392 11.7597C14.5215 11.6986 14.4762 11.6611 14.431 11.6383C14.3596 11.6028 14.2526 11.6028 14.1457 11.6028H13.4326V12.1733H14.1457C14.2526 12.1733 14.3596 12.1733 14.431 12.1375C14.4418 12.1321 14.4513 12.1247 14.4605 12.1164L14.4606 12.1168C14.4606 12.1168 14.4643 12.113 14.4691 12.1074Z" fill="white"/>
<path d="M25.2334 17.1286C25.2334 16.8791 25.1622 16.6295 25.0553 16.4512V14.8471H25.0537V14.74C25.0537 14.74 23.5594 14.74 23.337 14.74C23.1147 14.74 22.8449 14.9538 22.8449 14.9538V14.74H21.2051C20.9554 14.74 20.6348 14.8113 20.492 14.9538V14.74H17.5688V14.8471V14.9538C17.3551 14.7757 16.9626 14.7399 16.7845 14.7399H14.8594V14.847V14.9537C14.6812 14.7756 14.2532 14.7399 14.0392 14.7399H11.9005L11.4013 15.2747L10.9378 14.7399H10.7886H10.5457H7.72949V14.847V15.1286V18.3407H10.8667L11.3821 17.8251L11.829 18.3407H11.8647H13.6724H13.7543H13.79H13.8255V17.9842V17.5208H14.0039C14.2532 17.5208 14.5742 17.5208 14.8237 17.4137V18.3048V18.3763H16.428V18.3048V17.4494H16.4991C16.6062 17.4494 16.6062 17.4494 16.6062 17.5563V18.3048V18.3763H21.4544C21.7755 18.3763 22.0961 18.3048 22.2743 18.1623V18.3048V18.3763H23.8074C24.128 18.3763 24.4492 18.3407 24.663 18.198C24.9913 18.0011 25.1981 17.6525 25.2289 17.2367C25.2303 17.2244 25.2321 17.2121 25.2333 17.1998L25.2312 17.1978C25.2325 17.1747 25.2334 17.1519 25.2334 17.1286ZM14.0039 16.9148H13.2907V17.0215V17.2355V17.4494V17.8416H12.119L11.437 17.0572L11.4346 17.0598L11.4013 17.0215L10.617 17.8416H8.3355V15.3461H10.6527L11.2858 16.0396L11.4189 16.1847L11.4369 16.166L12.1857 15.3462H14.0751C14.4417 15.3462 14.8524 15.4367 15.008 15.8098C15.0267 15.8836 15.0376 15.9658 15.0376 16.0591C15.0376 16.772 14.5384 16.9148 14.0039 16.9148ZM17.5688 16.879C17.64 16.9857 17.6757 17.1286 17.6757 17.3426V17.8415H17.0698V17.5208C17.0698 17.3779 17.0698 17.1286 16.9627 17.0215C16.8916 16.9148 16.7488 16.9148 16.535 16.9148H15.8934V17.8416H15.2874V15.3104H16.642C16.927 15.3104 17.1765 15.3104 17.3551 15.4173C17.5332 15.5243 17.6757 15.7026 17.6757 15.9878C17.6757 16.3799 17.4263 16.5938 17.248 16.6652C17.4263 16.7362 17.5332 16.8077 17.5688 16.879ZM20.0287 15.845H18.6382V16.3085H19.993V16.8077H18.6382V17.3068H20.0287V17.8415H18.0324V15.3104H20.0287V15.845ZM21.5259 17.8416H20.3851V17.3069H21.5259C21.6327 17.3069 21.7041 17.3069 21.7756 17.2355C21.8113 17.1998 21.8467 17.1286 21.8467 17.0573C21.8467 16.9858 21.8113 16.9148 21.7756 16.8791C21.7398 16.8435 21.6684 16.8078 21.5615 16.8078C20.9911 16.7721 20.3138 16.8078 20.3138 16.0236C20.3138 15.667 20.5276 15.2748 21.1694 15.2748H22.3458V15.8808H21.2407C21.1338 15.8808 21.0624 15.8808 20.991 15.9165C20.9199 15.9522 20.9199 16.0236 20.9199 16.0948C20.9199 16.2018 20.991 16.2375 21.0623 16.2728C21.1338 16.3086 21.205 16.3086 21.2762 16.3086H21.5971C21.918 16.3086 22.1319 16.3799 22.2745 16.5225C22.3815 16.6295 22.4528 16.8078 22.4528 17.0573C22.4528 17.5918 22.1319 17.8416 21.5259 17.8416ZM24.5918 17.5918C24.4494 17.7346 24.1997 17.8416 23.843 17.8416H22.7025V17.3069H23.843C23.95 17.3069 24.0215 17.3069 24.0927 17.2355C24.1282 17.1998 24.164 17.1286 24.164 17.0573C24.164 16.9858 24.1282 16.9148 24.0927 16.8791C24.057 16.8435 23.9858 16.8078 23.8788 16.8078C23.3086 16.7721 22.631 16.8078 22.631 16.0236C22.631 15.6848 22.8249 15.3787 23.303 15.2878C23.3601 15.2799 23.4205 15.2748 23.4867 15.2748H24.6632V15.8808H23.8788H23.5937H23.558C23.451 15.8808 23.3798 15.8808 23.3086 15.9165C23.2727 15.9522 23.237 16.0236 23.237 16.0948C23.237 16.2018 23.2727 16.2375 23.3798 16.2728C23.451 16.3086 23.5223 16.3086 23.5937 16.3086H23.6291H23.9144C24.0702 16.3086 24.188 16.3278 24.2959 16.3657C24.3946 16.4014 24.7215 16.5476 24.7946 16.9293C24.801 16.9693 24.8056 17.0111 24.8056 17.0573C24.8056 17.2712 24.7343 17.4494 24.5918 17.5918Z" fill="white"/>
</svg>
