<svg width="18" height="12" viewBox="0 0 18 12" fill="none" xmlns="http://www.w3.org/2000/svg">
<path d="M17.9998 0H0V12H17.9998V0Z" fill="#F0F0F0"/>
<path d="M17.9998 1.5H0V2.99985H17.9998V1.5Z" fill="#D80027"/>
<path d="M17.9998 4.5H0V5.99986H17.9998V4.5Z" fill="#D80027"/>
<path d="M17.9998 7.5H0V8.99985H17.9998V7.5Z" fill="#D80027"/>
<path d="M17.9998 10.5H0V11.9999H17.9998V10.5Z" fill="#D80027"/>
<path d="M8.9999 0H0V6.46154H8.9999V0Z" fill="#2E52B2"/>
<path d="M3.50929 2.64746L3.36435 3.09338H2.89551L3.27487 3.36882L3.12993 3.81471L3.50929 3.53926L3.88842 3.81471L3.7435 3.36882L4.12287 3.09338H3.654L3.50929 2.64746Z" fill="#F0F0F0"/>
<path d="M3.654 4.70272L3.50929 4.25684L3.36435 4.70272H2.89551L3.27487 4.9782L3.12993 5.42408L3.50929 5.1486L3.88842 5.42408L3.7435 4.9782L4.12287 4.70272H3.654Z" fill="#F0F0F0"/>
<path d="M1.67259 4.70272L1.52785 4.25684L1.3829 4.70272H0.914062L1.29343 4.9782L1.14848 5.42408L1.52785 5.1486L1.907 5.42408L1.76209 4.9782L2.14139 4.70272H1.67259Z" fill="#F0F0F0"/>
<path d="M1.52785 2.64746L1.3829 3.09338H0.914062L1.29343 3.36882L1.14848 3.81471L1.52785 3.53926L1.907 3.81471L1.76209 3.36882L2.14139 3.09338H1.67259L1.52785 2.64746Z" fill="#F0F0F0"/>
<path d="M3.50929 1.03809L3.36435 1.48404H2.89551L3.27487 1.75952L3.12993 2.2054L3.50929 1.92992L3.88842 2.2054L3.7435 1.75952L4.12287 1.48404H3.654L3.50929 1.03809Z" fill="#F0F0F0"/>
<path d="M1.52785 1.03809L1.3829 1.48404H0.914062L1.29343 1.75952L1.14848 2.2054L1.52785 1.92992L1.907 2.2054L1.76209 1.75952L2.14139 1.48404H1.67259L1.52785 1.03809Z" fill="#F0F0F0"/>
<path d="M5.4907 2.64746L5.34579 3.09338H4.87695L5.25628 3.36882L5.11141 3.81471L5.4907 3.53926L5.86989 3.81471L5.72495 3.36882L6.10431 3.09338H5.63548L5.4907 2.64746Z" fill="#F0F0F0"/>
<path d="M5.63548 4.70272L5.4907 4.25684L5.34579 4.70272H4.87695L5.25628 4.9782L5.11141 5.42408L5.4907 5.1486L5.86989 5.42408L5.72495 4.9782L6.10431 4.70272H5.63548Z" fill="#F0F0F0"/>
<path d="M7.61689 4.70272L7.47215 4.25684L7.3272 4.70272H6.8584L7.2377 4.9782L7.09278 5.42408L7.47215 5.1486L7.85131 5.42408L7.70636 4.9782L8.08573 4.70272H7.61689Z" fill="#F0F0F0"/>
<path d="M7.47215 2.64746L7.3272 3.09338H6.8584L7.2377 3.36882L7.09278 3.81471L7.47215 3.53926L7.85131 3.81471L7.70636 3.36882L8.08573 3.09338H7.61689L7.47215 2.64746Z" fill="#F0F0F0"/>
<path d="M5.4907 1.03809L5.34579 1.48404H4.87695L5.25628 1.75952L5.11141 2.2054L5.4907 1.92992L5.86989 2.2054L5.72495 1.75952L6.10431 1.48404H5.63548L5.4907 1.03809Z" fill="#F0F0F0"/>
<path d="M7.47215 1.03809L7.3272 1.48404H6.8584L7.2377 1.75952L7.09278 2.2054L7.47215 1.92992L7.85131 2.2054L7.70636 1.75952L8.08573 1.48404H7.61689L7.47215 1.03809Z" fill="#F0F0F0"/>
</svg>
