<svg width="24" height="24" viewBox="0 0 24 24" fill="none" xmlns="http://www.w3.org/2000/svg">
<path d="M12.2 14.7607C12.0566 14.7607 11.9132 14.706 11.8039 14.5967L8.3641 11.1569C8.14528 10.938 8.14528 10.5833 8.3641 10.3645C8.58283 10.1458 8.93753 10.1458 9.15637 10.3645L12.2 13.4083L15.2436 10.3646C15.4624 10.1459 15.8171 10.1459 16.0358 10.3646C16.2547 10.5834 16.2547 10.9381 16.0358 11.157L12.596 14.5968C12.4867 14.7061 12.3433 14.7607 12.2 14.7607Z" fill="#65676B"/>
<path fill-rule="evenodd" clip-rule="evenodd" d="M9.01494 10.506C8.87418 10.3653 8.64611 10.3654 8.50552 10.506C8.36486 10.6466 8.36479 10.8747 8.50552 11.0154L11.9453 14.4553C12.0156 14.5255 12.1075 14.5607 12.2 14.5607C12.2925 14.5607 12.3843 14.5256 12.4546 14.4554L15.8944 11.0155C16.0352 10.8748 16.0352 10.6467 15.8944 10.5061C15.7539 10.3655 15.5258 10.3654 15.385 10.5061L12.2 13.6912L9.01494 10.506ZM8.22271 10.2231C8.51956 9.92626 9.00085 9.92632 9.29776 10.2231L12.2 13.1255L15.1022 10.2232C15.399 9.92647 15.8803 9.92637 16.1772 10.2232M8.22271 10.2231C7.92576 10.5199 7.92578 11.0014 8.22268 11.2983L11.6625 14.7381C11.8108 14.8864 12.0057 14.9607 12.2 14.9607C12.3941 14.9607 12.589 14.8866 12.7374 14.7383L16.1772 11.2984C16.4742 11.0015 16.4742 10.52 16.1772 10.2232" fill="#65676B"/>
</svg>
