<svg width="14" height="16" viewBox="0 0 14 16" fill="none" xmlns="http://www.w3.org/2000/svg">
<path fill-rule="evenodd" clip-rule="evenodd" d="M4.33337 0.833008C4.60952 0.833008 4.83337 1.05687 4.83337 1.33301V3.33301C4.83337 3.60915 4.60952 3.83301 4.33337 3.83301C4.05723 3.83301 3.83337 3.60915 3.83337 3.33301V1.33301C3.83337 1.05687 4.05723 0.833008 4.33337 0.833008Z" fill="white"/>
<path fill-rule="evenodd" clip-rule="evenodd" d="M9.66663 0.833008C9.94277 0.833008 10.1666 1.05687 10.1666 1.33301V3.33301C10.1666 3.60915 9.94277 3.83301 9.66663 3.83301C9.39048 3.83301 9.16663 3.60915 9.16663 3.33301V1.33301C9.16663 1.05687 9.39048 0.833008 9.66663 0.833008Z" fill="white"/>
<path fill-rule="evenodd" clip-rule="evenodd" d="M0.833374 6.05957C0.833374 5.78343 1.05723 5.55957 1.33337 5.55957H12.6667C12.9429 5.55957 13.1667 5.78343 13.1667 6.05957C13.1667 6.33571 12.9429 6.55957 12.6667 6.55957H1.33337C1.05723 6.55957 0.833374 6.33571 0.833374 6.05957Z" fill="white"/>
<path fill-rule="evenodd" clip-rule="evenodd" d="M2.15806 3.5899C1.73091 4.04991 1.5 4.74299 1.5 5.66634V11.333C1.5 12.2564 1.73091 12.9494 2.15806 13.4094C2.57899 13.8628 3.26197 14.1663 4.33333 14.1663H9.66667C10.738 14.1663 11.421 13.8628 11.8419 13.4094C12.2691 12.9494 12.5 12.2564 12.5 11.333V5.66634C12.5 4.74299 12.2691 4.04991 11.8419 3.5899C11.421 3.1366 10.738 2.83301 9.66667 2.83301H4.33333C3.26197 2.83301 2.57899 3.1366 2.15806 3.5899ZM1.42527 2.90945C2.08768 2.19608 3.07137 1.83301 4.33333 1.83301H9.66667C10.9286 1.83301 11.9123 2.19608 12.5747 2.90945C13.2309 3.61611 13.5 4.58969 13.5 5.66634V11.333C13.5 12.4097 13.2309 13.3832 12.5747 14.0899C11.9123 14.8033 10.9286 15.1663 9.66667 15.1663H4.33333C3.07137 15.1663 2.08768 14.8033 1.42527 14.0899C0.769089 13.3832 0.5 12.4097 0.5 11.333V5.66634C0.5 4.58969 0.769089 3.61611 1.42527 2.90945Z" fill="white"/>
<path fill-rule="evenodd" clip-rule="evenodd" d="M8.79651 9.13346C8.79651 8.76527 9.09499 8.4668 9.46317 8.4668H9.46916C9.83735 8.4668 10.1358 8.76527 10.1358 9.13346C10.1358 9.50165 9.83735 9.80013 9.46916 9.80013H9.46317C9.09499 9.80013 8.79651 9.50165 8.79651 9.13346Z" fill="white"/>
<path fill-rule="evenodd" clip-rule="evenodd" d="M8.79651 11.1335C8.79651 10.7653 9.09499 10.4668 9.46317 10.4668H9.46916C9.83735 10.4668 10.1358 10.7653 10.1358 11.1335C10.1358 11.5017 9.83735 11.8001 9.46916 11.8001H9.46317C9.09499 11.8001 8.79651 11.5017 8.79651 11.1335Z" fill="white"/>
<path fill-rule="evenodd" clip-rule="evenodd" d="M6.33032 9.13346C6.33032 8.76527 6.6288 8.4668 6.99699 8.4668H7.00298C7.37117 8.4668 7.66964 8.76527 7.66964 9.13346C7.66964 9.50165 7.37117 9.80013 7.00298 9.80013H6.99699C6.6288 9.80013 6.33032 9.50165 6.33032 9.13346Z" fill="white"/>
<path fill-rule="evenodd" clip-rule="evenodd" d="M6.33032 11.1335C6.33032 10.7653 6.6288 10.4668 6.99699 10.4668H7.00298C7.37117 10.4668 7.66964 10.7653 7.66964 11.1335C7.66964 11.5017 7.37117 11.8001 7.00298 11.8001H6.99699C6.6288 11.8001 6.33032 11.5017 6.33032 11.1335Z" fill="white"/>
<path fill-rule="evenodd" clip-rule="evenodd" d="M3.86292 9.13346C3.86292 8.76527 4.16139 8.4668 4.52958 8.4668H4.53557C4.90376 8.4668 5.20224 8.76527 5.20224 9.13346C5.20224 9.50165 4.90376 9.80013 4.53557 9.80013H4.52958C4.16139 9.80013 3.86292 9.50165 3.86292 9.13346Z" fill="white"/>
<path fill-rule="evenodd" clip-rule="evenodd" d="M3.86292 11.1335C3.86292 10.7653 4.16139 10.4668 4.52958 10.4668H4.53557C4.90376 10.4668 5.20224 10.7653 5.20224 11.1335C5.20224 11.5017 4.90376 11.8001 4.53557 11.8001H4.52958C4.16139 11.8001 3.86292 11.5017 3.86292 11.1335Z" fill="white"/>
</svg>
