<svg width="18" height="18" viewBox="0 0 18 18" fill="none" xmlns="http://www.w3.org/2000/svg">
<path d="M8.99996 0.666992C4.40478 0.666992 0.666626 4.40514 0.666626 9.00033C0.666626 13.5955 4.40478 17.3337 8.99996 17.3337C13.5951 17.3337 17.3333 13.5955 17.3333 9.00033C17.3333 4.40514 13.5951 0.666992 8.99996 0.666992Z" fill="#00FFF0"/>
<path d="M13.2235 7.23444L8.7096 11.7482C8.57418 11.8837 8.39641 11.9518 8.21865 11.9518C8.04088 11.9518 7.86312 11.8837 7.7277 11.7482L5.47079 9.49134C5.19919 9.21986 5.19919 8.78091 5.47079 8.50943C5.74227 8.23783 6.18109 8.23783 6.4527 8.50943L8.21865 10.2754L12.2416 6.25253C12.5131 5.98093 12.9519 5.98093 13.2235 6.25253C13.495 6.52401 13.495 6.96283 13.2235 7.23444Z" fill="#202121"/>
</svg>
