<svg width="14" height="14" viewBox="0 0 14 14" fill="none" xmlns="http://www.w3.org/2000/svg">
<path d="M9.33317 7.52533V9.97533C9.33317 12.017 8.5165 12.8337 6.47484 12.8337H4.02484C1.98317 12.8337 1.1665 12.017 1.1665 9.97533V7.52533C1.1665 5.48366 1.98317 4.66699 4.02484 4.66699H6.47484C8.5165 4.66699 9.33317 5.48366 9.33317 7.52533Z" stroke="white" stroke-opacity="0.8" stroke-width="1.2" stroke-linecap="round" stroke-linejoin="round"/>
<path d="M12.8332 4.02533V6.47533C12.8332 8.51699 12.0165 9.33366 9.97484 9.33366H9.33317V7.52533C9.33317 5.48366 8.5165 4.66699 6.47484 4.66699H4.6665V4.02533C4.6665 1.98366 5.48317 1.16699 7.52484 1.16699H9.97484C12.0165 1.16699 12.8332 1.98366 12.8332 4.02533Z" stroke="white" stroke-opacity="0.8" stroke-width="1.2" stroke-linecap="round" stroke-linejoin="round"/>
</svg>
