<svg width="28" height="28" viewBox="0 0 28 28" fill="none" xmlns="http://www.w3.org/2000/svg">
<path d="M27.125 21.4066C27.125 22.2636 26.4303 22.9584 25.5733 22.9584H2.42667C1.5697 22.9584 0.875 22.2635 0.875 21.4066V6.40695C0.875 5.54993 1.5697 4.85522 2.42667 4.85522H25.5733C26.4303 4.85522 27.1249 5.54998 27.1249 6.40695L27.125 21.4066Z" fill="#34495E"/>
<path d="M16.7373 13.8966C16.7394 13.4026 16.5541 12.9078 16.1813 12.535C15.8077 12.1614 15.3118 11.9763 14.8167 11.9793C14.8143 11.9793 14.812 11.9791 14.8096 11.9791C13.7346 11.9791 12.8818 12.8316 12.8818 13.907C12.8818 14.9717 13.7451 15.8346 14.8096 15.8346C15.8849 15.8346 16.7375 14.982 16.7375 13.907C16.7375 13.9034 16.7373 13.9001 16.7373 13.8966Z" fill="#F26E21"/>
<path d="M12.5235 14.7225C12.2354 15.0109 11.9695 15.1236 11.683 15.1297C10.9852 15.1234 10.4721 14.6066 10.4721 13.8699C10.4721 13.499 10.6126 13.195 10.835 12.9353C11.0436 12.7373 11.3124 12.6093 11.6215 12.6093C11.9551 12.6093 12.2147 12.7205 12.5111 13.0171V12.1644C12.2147 12.0162 11.955 11.942 11.6215 11.942C11.1502 11.9757 10.7058 12.1661 10.365 12.4651C10.2668 12.5535 10.1726 12.6511 10.0928 12.7627C9.84384 13.0854 9.69336 13.4806 9.69336 13.9071C9.69336 14.982 10.5463 15.7976 11.6214 15.7976C11.6266 15.7976 11.6318 15.7972 11.6369 15.7971C11.6441 15.7972 11.6512 15.7976 11.6584 15.7976C11.955 15.7976 12.2147 15.7237 12.5483 15.5753L12.5235 14.7225C12.511 14.735 12.5359 14.7466 12.5235 14.7585V14.7225Z" fill="#E7E8E3"/>
<path d="M19.1709 12.4729L18.3313 14.5371L17.3673 12.0901H16.5889L18.1088 15.8346H18.5166L20.1108 12.0901H19.3323L19.1709 12.4729Z" fill="#E7E8E3"/>
<path d="M20.4082 13.7214V15.7235H22.4103H22.4472V15.1301H21.817H21.1497V14.4629V14.1294H22.4103V13.4989H21.1497V12.7204H22.4472V12.0901H20.4082V13.7214Z" fill="#E7E8E3"/>
<path d="M3.65056 12.0901H2.6123V15.7235H3.65051C4.20653 15.7235 4.61428 15.5751 4.94794 15.3156C5.35569 14.9819 5.61531 14.463 5.61531 13.907C5.61537 12.8315 4.83668 12.0901 3.65056 12.0901ZM4.50318 14.8337C4.28072 15.019 3.98412 15.1301 3.53921 15.1301H3.31675V12.7204H3.50209C3.947 12.7204 4.2436 12.7945 4.46611 13.0169C4.72558 13.2392 4.87396 13.5731 4.87396 13.9068C4.91103 14.2405 4.76275 14.6111 4.50318 14.8337Z" fill="#E7E8E3"/>
<path d="M6.65361 12.0898H5.94922V15.7232H6.65361V12.0898Z" fill="#E7E8E3"/>
<path d="M8.43327 13.4989C7.98845 13.3506 7.8771 13.2393 7.8771 13.0541C7.8771 12.8316 8.09956 12.6463 8.39615 12.6463C8.61861 12.6463 8.80395 12.7204 8.98934 12.9429L9.36017 12.461C9.06347 12.2013 8.6929 12.0532 8.28505 12.0532C7.65464 12.0532 7.13559 12.4981 7.13559 13.0911C7.13559 13.6103 7.35825 13.8327 8.02547 14.0922C8.32207 14.2033 8.43332 14.2405 8.50761 14.3146C8.65563 14.3887 8.72992 14.5371 8.72992 14.6852C8.72992 14.9818 8.50761 15.2044 8.17374 15.2044C7.83977 15.2044 7.54344 15.019 7.39511 14.7224L6.9502 15.1673C7.28401 15.6492 7.69181 15.8716 8.21086 15.8716C8.95227 15.8716 9.47107 15.3897 9.47107 14.6852C9.47117 14.0551 9.24892 13.7956 8.43327 13.4989Z" fill="#E7E8E3"/>
<path d="M24.4489 14.2033C25.0048 14.0922 25.3015 13.7213 25.3015 13.1654C25.3015 12.4981 24.8194 12.0901 24.0039 12.0901H22.9287V15.7235H23.6331V14.2775H23.7445L24.7452 15.7235H25.598L24.4489 14.2033ZM23.8555 13.7583H23.6332V12.6463H23.8555C24.3004 12.6463 24.56 12.8315 24.56 13.2025C24.56 13.5731 24.3004 13.7583 23.8555 13.7583Z" fill="#E7E8E3"/>
</svg>
