<svg width="80" height="80" viewBox="0 0 80 80" fill="none" xmlns="http://www.w3.org/2000/svg">
<path d="M24.4857 36.412C24.2009 36.6967 23.9749 37.0347 23.8207 37.4067C23.6666 37.7787 23.5872 38.1775 23.5872 38.5802C23.5872 38.9829 23.6666 39.3816 23.8207 39.7536C23.9749 40.1257 24.2009 40.4637 24.4857 40.7483L34.3294 50.592C34.9135 51.1498 35.6902 51.4611 36.4979 51.4611C37.3057 51.4611 38.0823 51.1498 38.6665 50.592L55.5019 33.7565C55.7868 33.4716 56.0127 33.1334 56.1668 32.7613C56.3209 32.3891 56.4002 31.9902 56.4002 31.5873C56.4002 31.1845 56.3208 30.7856 56.1666 30.4134C56.0124 30.0413 55.7864 29.7031 55.5015 29.4183C55.2167 29.1335 54.8785 28.9075 54.5063 28.7534C54.1341 28.5993 53.7352 28.52 53.3324 28.52C52.9295 28.52 52.5306 28.5994 52.1585 28.7536C51.7863 28.9078 51.4482 29.1338 51.1633 29.4187L46.9418 33.4162C46.6822 33.6618 46.3357 33.7943 45.9785 33.7845C45.6213 33.7747 45.2826 33.6234 45.0369 33.3638C44.7913 33.1043 44.6588 32.7578 44.6686 32.4006C44.6784 32.0434 44.8297 31.7047 45.0893 31.459L49.2847 27.4869C50.3686 26.4097 51.836 25.8073 53.3641 25.812C54.8922 25.8168 56.3558 26.4284 57.4329 27.5123C58.5101 28.5962 59.1125 30.0636 59.1078 31.5917C59.103 33.1198 58.4914 34.5834 57.4075 35.6606L40.5721 52.4976C40.037 53.0326 39.4019 53.457 38.7029 53.7466C38.0038 54.0362 37.2546 54.1852 36.4979 54.1852C35.7413 54.1852 34.9921 54.0362 34.293 53.7466C33.594 53.457 32.9588 53.0326 32.4238 52.4976L22.5809 42.6539C22.043 42.1195 21.6158 41.4842 21.3239 40.7844C21.032 40.0846 20.8811 39.3341 20.8799 38.5759C20.8786 37.8176 21.0271 37.0666 21.3167 36.3659C21.6063 35.6651 22.0314 35.0284 22.5675 34.4923C23.1037 33.9562 23.7405 33.5311 24.4412 33.2416C25.142 32.9521 25.8931 32.8037 26.6513 32.805C27.4095 32.8063 28.16 32.9573 28.8598 33.2493C29.5596 33.5412 30.1948 33.9684 30.7292 34.5064L36.4975 40.274L39.6928 37.0788C39.8171 36.9501 39.9658 36.8475 40.1302 36.7769C40.2946 36.7063 40.4714 36.6692 40.6503 36.6677C40.8292 36.6662 41.0066 36.7003 41.1722 36.7681C41.3378 36.8359 41.4882 36.9359 41.6147 37.0625C41.7412 37.189 41.8412 37.3395 41.9089 37.5051C41.9766 37.6707 42.0107 37.8481 42.0091 38.027C42.0075 38.2059 41.9703 38.3827 41.8997 38.5471C41.829 38.7115 41.7263 38.8601 41.5976 38.9844L37.453 43.132C37.2004 43.3845 36.8578 43.5263 36.5006 43.5263C36.1434 43.5263 35.8009 43.3845 35.5482 43.132L28.8266 36.412C28.542 36.1269 28.2039 35.9008 27.8317 35.7465C27.4596 35.5921 27.0606 35.5127 26.6577 35.5127C26.2548 35.5127 25.8559 35.5921 25.4838 35.7465C25.1116 35.9008 24.7735 36.1269 24.4888 36.412H24.4857ZM39.9938 75.9999C47.3012 76.014 54.4379 73.7912 60.4449 69.6302C60.7309 69.4237 60.9245 69.1133 60.9841 68.7657C61.0438 68.418 60.9647 68.0609 60.7639 67.7709C60.5631 67.4809 60.2566 67.2812 59.9102 67.2146C59.5638 67.1481 59.2051 67.2201 58.9112 67.4151C52.4403 71.8707 44.5999 73.8891 36.7819 73.1119C28.964 72.3348 21.6743 68.8124 16.2072 63.1701C10.7402 57.5278 7.44937 50.1307 6.91914 42.2921C6.38891 34.4535 8.65355 26.6806 13.311 20.3535C17.9684 14.0263 24.7173 9.5543 32.3594 7.73137C40.0014 5.90843 48.0423 6.85256 55.0542 10.3961C62.0662 13.9397 67.5956 19.8534 70.6608 27.0873C73.7259 34.3212 74.1284 42.4072 71.7969 49.9098C71.7421 50.0794 71.7215 50.2581 71.7363 50.4357C71.751 50.6133 71.8009 50.7862 71.8829 50.9444C71.9649 51.1026 72.0775 51.2429 72.2142 51.3573C72.3509 51.4717 72.5088 51.5578 72.679 51.6107C72.8492 51.6636 73.0281 51.6823 73.2056 51.6655C73.383 51.6488 73.5553 51.597 73.7126 51.5132C73.8699 51.4294 74.0089 51.3153 74.1218 51.1774C74.2346 51.0394 74.319 50.8805 74.37 50.7098C76.6261 43.4695 76.5381 35.7017 74.1187 28.5145C71.6992 21.3272 67.0718 15.0875 60.8965 10.6855C54.7213 6.28356 47.3137 3.94413 39.7303 4.00095C32.1469 4.05777 24.7751 6.50794 18.6665 11.002C12.5579 15.496 8.02456 21.8043 5.71305 29.027C3.40154 36.2497 3.42998 44.018 5.79431 51.2236C8.15863 58.4292 12.7381 64.7042 18.8794 69.1533C25.0207 73.6025 32.4102 75.9986 39.9938 75.9999ZM67.3574 58.9881C67.0371 59.4501 66.7061 59.9018 66.3642 60.3432C66.1458 60.6259 66.0487 60.9838 66.0942 61.3382C66.1396 61.6925 66.324 62.0143 66.6067 62.2327C66.8895 62.4511 67.2473 62.5482 67.6017 62.5027C67.956 62.4572 68.2778 62.2729 68.4962 61.9901C68.8662 61.5123 69.224 61.0246 69.5695 60.5272C69.6706 60.382 69.7421 60.2183 69.7799 60.0454C69.8177 59.8725 69.8212 59.6939 69.7899 59.5197C69.7587 59.3455 69.6935 59.1791 69.598 59.0301C69.5025 58.8811 69.3786 58.7524 69.2334 58.6513C69.0881 58.5502 68.9244 58.4787 68.7515 58.4408C68.5786 58.403 68.4 58.3996 68.2258 58.4308C68.0516 58.462 67.8853 58.5272 67.7363 58.6227C67.5873 58.7182 67.4585 58.8421 67.3574 58.9874V58.9881Z" fill="url(#paint0_linear_911_22236)"/>
<defs>
<linearGradient id="paint0_linear_911_22236" x1="28.6658" y1="4.00035" x2="77.367" y2="27.432" gradientUnits="userSpaceOnUse">
<stop stop-color="#00FFF0"/>
<stop offset="1" stop-color="#E423E8"/>
</linearGradient>
</defs>
</svg>
