<svg width="14" height="16" viewBox="0 0 14 16" fill="none" xmlns="http://www.w3.org/2000/svg">
<path fill-rule="evenodd" clip-rule="evenodd" d="M9.3449 0.958172C10.1227 0.858708 10.9097 1.17678 11.7093 1.92915L11.7102 1.93002C12.5125 2.68875 12.8777 3.45841 12.8229 4.24233C12.77 4.99983 12.3308 5.64097 11.8301 6.17001M11.8301 6.17001L6.35948 11.9605C6.20526 12.1284 5.99759 12.2706 5.80073 12.3759C5.60133 12.4825 5.37069 12.5738 5.15417 12.6122L5.15084 12.6128L3.00494 12.9794C2.48456 13.0691 1.98556 12.939 1.63009 12.6019C1.27512 12.2653 1.11826 11.7744 1.17637 11.2514L1.17654 11.2499L1.42428 9.08054C1.45305 8.86474 1.5332 8.63122 1.62767 8.42864C1.7218 8.22679 1.85024 8.01276 2.00222 7.85096L2.0032 7.84993L7.47653 2.05659C7.97756 1.52734 8.59325 1.05429 9.3449 0.958172M8.20309 2.7437C8.203 2.74379 8.20317 2.74362 8.20309 2.7437L2.73107 8.53564C2.73096 8.53576 2.73119 8.53552 2.73107 8.53564C2.67643 8.59395 2.60136 8.70678 2.53396 8.85129C2.46779 8.99319 2.42804 9.12446 2.41613 9.20884L2.17026 11.3618C2.17023 11.3621 2.17021 11.3623 2.17018 11.3625C2.14184 11.6192 2.2216 11.7847 2.31821 11.8763C2.4144 11.9676 2.58207 12.0375 2.83503 11.9939L2.8358 11.9938L4.98054 11.6274C5.06405 11.6123 5.19273 11.567 5.32924 11.494C5.46762 11.42 5.57173 11.3402 5.62384 11.2831L5.62981 11.2765L11.1032 5.48326C11.549 5.01236 11.7967 4.58326 11.8254 4.1726C11.8522 3.78829 11.6942 3.29146 11.0236 2.6571C10.3568 2.02977 9.85383 1.90123 9.47174 1.95009C9.06346 2.0023 8.64863 2.27312 8.20309 2.7437Z" fill="white"/>
<path fill-rule="evenodd" clip-rule="evenodd" d="M6.84962 2.87224C7.12247 2.82973 7.37812 3.01646 7.42063 3.28931C7.67204 4.90306 8.98172 6.13813 10.61 6.30213C10.8848 6.32981 11.0851 6.57497 11.0574 6.84972C11.0297 7.12447 10.7846 7.32477 10.5098 7.2971C8.43144 7.08777 6.75446 5.50951 6.43255 3.44325C6.39004 3.1704 6.57676 2.91475 6.84962 2.87224Z" fill="white"/>
<path fill-rule="evenodd" clip-rule="evenodd" d="M0.5 14.667C0.5 14.3908 0.723858 14.167 1 14.167H13C13.2761 14.167 13.5 14.3908 13.5 14.667C13.5 14.9431 13.2761 15.167 13 15.167H1C0.723858 15.167 0.5 14.9431 0.5 14.667Z" fill="white"/>
</svg>
