<svg width="14" height="14" viewBox="0 0 14 14" fill="none" xmlns="http://www.w3.org/2000/svg">
<g clip-path="url(#clip0_2870_9836)">
<path d="M9.28491 1.98235H11.4388L6.51461 6.90891C6.35515 7.06837 6.35515 7.32779 6.51461 7.48725C6.59315 7.56578 6.69787 7.60624 6.80259 7.60624C6.90731 7.60624 7.01203 7.56578 7.09057 7.48725L12.0171 2.56068V4.71457C12.0171 4.94067 12.2004 5.12392 12.4241 5.12392C12.6502 5.12392 12.8335 4.94067 12.8335 4.71457V1.57537C12.8335 1.34927 12.6502 1.16602 12.4241 1.16602H9.28491C9.05881 1.16602 8.87556 1.34927 8.87556 1.57537C8.87793 1.79909 9.05881 1.98235 9.28491 1.98235Z" fill="white" fill-opacity="0.8"/>
<path fill-rule="evenodd" clip-rule="evenodd" d="M8.57526 1.57557C8.57526 1.18378 8.89284 0.866211 9.28462 0.866211H12.4238C12.8156 0.866211 13.1332 1.18378 13.1332 1.57557V4.71476C13.1332 5.10655 12.8156 5.42412 12.4238 5.42412C12.0333 5.42412 11.7168 5.10541 11.7168 4.71476V3.28514L7.30241 7.69957C7.16549 7.83649 6.98354 7.90644 6.8023 7.90644C6.62106 7.90644 6.43911 7.83649 6.30219 7.69957C6.02557 7.42296 6.02557 6.97359 6.30219 6.69697L10.7145 2.28254H9.28462C8.8911 2.28254 8.57938 1.96391 8.57528 1.57876L8.57526 1.57557Z" fill="white" fill-opacity="0.8"/>
<path d="M3.6155 12.8327H10.3818C11.7336 12.8327 12.8308 11.7331 12.8308 10.3837V7.19689C12.8308 6.97079 12.6475 6.78991 12.4214 6.78991C12.1953 6.78991 12.0145 6.97317 12.0145 7.19689V10.3813C12.0145 11.2809 11.2814 12.014 10.3818 12.014H3.6155C2.71587 12.014 1.98284 11.2809 1.98284 10.3813V5.0073V3.6174C1.98284 2.71776 2.71587 1.98473 3.6155 1.98473H6.77374C6.99984 1.98473 7.18072 1.80147 7.18072 1.57537C7.18072 1.34927 6.99746 1.16602 6.77374 1.16602H3.6155C2.26368 1.16602 1.1665 2.26557 1.1665 3.61502V5.00493V10.3813C1.1665 11.7331 2.26606 12.8327 3.6155 12.8327Z" fill="white" fill-opacity="0.8"/>
<path fill-rule="evenodd" clip-rule="evenodd" d="M0.866699 3.61521C0.866699 2.10027 2.098 0.866211 3.6157 0.866211H6.77393C7.16448 0.866211 7.48091 1.18492 7.48091 1.57557C7.48091 1.96507 7.16799 2.28492 6.77393 2.28492H3.6157C2.88175 2.28492 2.28303 2.88364 2.28303 3.61759V10.3815C2.28303 11.1154 2.88175 11.7142 3.6157 11.7142H10.382C11.1159 11.7142 11.7147 11.1154 11.7147 10.3815V7.19708C11.7147 6.80882 12.0287 6.49011 12.4216 6.49011C12.8111 6.49011 13.131 6.80302 13.131 7.19708V10.3839C13.131 11.8988 11.8997 13.1329 10.382 13.1329H3.6157C2.10038 13.1329 0.866699 11.8988 0.866699 10.3815V3.61521ZM3.6157 1.46621C2.42975 1.46621 1.4667 2.43126 1.4667 3.61521V10.3815C1.4667 11.5678 2.43213 12.5329 3.6157 12.5329H10.382C11.5679 12.5329 12.531 11.5678 12.531 10.3839V7.19708C12.531 7.13895 12.4843 7.09011 12.4216 7.09011C12.3624 7.09011 12.3147 7.13791 12.3147 7.19708V10.3815C12.3147 11.4468 11.4473 12.3142 10.382 12.3142H3.6157C2.55038 12.3142 1.68303 11.4468 1.68303 10.3815V3.61759C1.68303 2.55227 2.55038 1.68492 3.6157 1.68492H6.77393C6.83207 1.68492 6.88091 1.63827 6.88091 1.57557C6.88091 1.51402 6.83083 1.46621 6.77393 1.46621H3.6157Z" fill="white" fill-opacity="0.8"/>
</g>
<defs>
<clipPath id="clip0_2870_9836">
<rect width="14" height="14" fill="white"/>
</clipPath>
</defs>
</svg>
