<svg width="20" height="20" viewBox="0 0 20 20" fill="none" xmlns="http://www.w3.org/2000/svg">
<g clip-path="url(#clip0_307_48962)">
<path d="M1.6665 5.00016H10.8332M10.8332 5.00016C10.8332 5.92092 11.5796 6.66785 12.5003 6.66785C13.4211 6.66785 14.1675 5.92143 14.1675 5.00067C14.1675 4.07992 13.4211 3.3335 12.5003 3.3335C11.5796 3.3335 10.8332 4.07941 10.8332 5.00016ZM1.6665 10.0002H5.83317M5.83317 10.0002C5.83317 10.9209 6.57959 11.6678 7.50035 11.6678C8.4211 11.6678 9.16752 10.9214 9.16752 10.0007C9.16752 9.07992 8.4211 8.3335 7.50035 8.3335C6.57959 8.3335 5.83317 9.07941 5.83317 10.0002ZM1.6665 15.8335H9.1665M18.3332 5.00016H16.6665M18.3332 10.0002H11.6665M18.3332 15.8335H14.9998M14.9998 15.8335C14.9998 16.7543 14.2534 17.5007 13.3327 17.5007C12.4119 17.5007 11.6655 16.7543 11.6655 15.8335C11.6655 14.9127 12.4119 14.1663 13.3327 14.1663C14.2534 14.1663 14.9998 14.9127 14.9998 15.8335Z" stroke="#282828" stroke-width="1.5" stroke-linecap="round"/>
</g>
<defs>
<clipPath id="clip0_307_48962">
<rect width="20" height="20" fill="white"/>
</clipPath>
</defs>
</svg>
