<svg width="16" height="16" viewBox="0 0 16 16" fill="none" xmlns="http://www.w3.org/2000/svg">
<path d="M6.90003 0.647058C3.3292 0.647058 0.423913 3.55234 0.423913 7.12317C0.423913 10.6942 3.3292 13.5993 6.90003 13.5993C10.4711 13.5993 13.3761 10.6942 13.3761 7.12317C13.3761 3.55234 10.4711 0.647058 6.90003 0.647058ZM6.90003 12.4037C3.98837 12.4037 1.6195 10.0349 1.6195 7.1232C1.6195 4.21154 3.98837 1.84265 6.90003 1.84265C9.81169 1.84265 12.1806 4.21152 12.1806 7.12317C12.1806 10.0348 9.81169 12.4037 6.90003 12.4037Z" fill="#212121"/>
<path fill-rule="evenodd" clip-rule="evenodd" d="M0.276855 7.12317C0.276855 3.47112 3.24798 0.5 6.90003 0.5C10.5523 0.5 13.5232 3.47113 13.5232 7.12317C13.5232 10.7754 10.5523 13.7463 6.90003 13.7463C3.24798 13.7463 0.276855 10.7754 0.276855 7.12317ZM1.76656 7.1232C1.76656 9.95364 4.06959 12.2567 6.90003 12.2567C9.73047 12.2567 12.0335 9.95362 12.0335 7.12317C12.0335 4.29273 9.73047 1.98971 6.90003 1.98971C4.06959 1.98971 1.76656 4.29276 1.76656 7.1232ZM0.423913 7.12317C0.423913 3.55234 3.3292 0.647058 6.90003 0.647058C10.4711 0.647058 13.3761 3.55234 13.3761 7.12317C13.3761 10.6942 10.4711 13.5993 6.90003 13.5993C3.3292 13.5993 0.423913 10.6942 0.423913 7.12317ZM1.6195 7.1232C1.6195 10.0349 3.98837 12.4037 6.90003 12.4037C9.81169 12.4037 12.1806 10.0348 12.1806 7.12317C12.1806 4.21152 9.81169 1.84265 6.90003 1.84265C3.98837 1.84265 1.6195 4.21154 1.6195 7.1232Z" fill="#212121"/>
<path d="M14.9546 14.3324L11.5273 10.905C11.2937 10.6715 10.9155 10.6715 10.682 10.905C10.4484 11.1384 10.4484 11.517 10.682 11.7503L14.1093 15.1777C14.2261 15.2944 14.379 15.3528 14.532 15.3528C14.6848 15.3528 14.8379 15.2944 14.9546 15.1777C15.1882 14.9443 15.1882 14.5657 14.9546 14.3324Z" fill="#212121"/>
<path fill-rule="evenodd" clip-rule="evenodd" d="M11.6313 10.801L15.0586 14.2283C15.3496 14.5191 15.3496 14.9909 15.0586 15.2817M11.6313 10.801C11.3403 10.5101 10.869 10.5101 10.578 10.801L11.6313 10.801ZM10.578 10.801C10.578 10.801 10.578 10.801 10.578 10.801C10.2871 11.0918 10.287 11.5635 10.578 11.8543C10.578 11.8543 10.578 11.8543 10.578 11.8543L14.0054 15.2817C14.1508 15.4271 14.3415 15.4999 14.532 15.4999C14.7223 15.4999 14.9132 15.4271 15.0586 15.2817M11.5273 10.905L14.9546 14.3324C15.1882 14.5657 15.1882 14.9443 14.9546 15.1777C14.8379 15.2944 14.6848 15.3528 14.532 15.3528C14.379 15.3528 14.2261 15.2944 14.1093 15.1777L10.682 11.7503C10.4484 11.517 10.4484 11.1384 10.682 10.905C10.9155 10.6715 11.2937 10.6715 11.5273 10.905Z" fill="#212121"/>
</svg>
