<svg width="45" height="44" viewBox="0 0 45 44" fill="none" xmlns="http://www.w3.org/2000/svg">
<rect x="1.1001" y="1" width="42" height="42" rx="21" stroke="#00FFF0" stroke-width="2"/>
<path d="M18.1001 22.2002H25.1001" stroke="#00FFF0" stroke-width="2" stroke-miterlimit="10" stroke-linecap="round" stroke-linejoin="round"/>
<path d="M18.1001 26.2002H22.4801" stroke="#00FFF0" stroke-width="2" stroke-miterlimit="10" stroke-linecap="round" stroke-linejoin="round"/>
<path d="M20.1001 16H24.1001C26.1001 16 26.1001 15 26.1001 14C26.1001 12 25.1001 12 24.1001 12H20.1001C19.1001 12 18.1001 12 18.1001 14C18.1001 16 19.1001 16 20.1001 16Z" stroke="#00FFF0" stroke-width="2" stroke-miterlimit="10" stroke-linecap="round" stroke-linejoin="round"/>
<path d="M26.1001 14.0195C29.4301 14.1995 31.1001 15.4295 31.1001 19.9995V25.9995C31.1001 29.9995 30.1001 31.9995 25.1001 31.9995H19.1001C14.1001 31.9995 13.1001 29.9995 13.1001 25.9995V19.9995C13.1001 15.4395 14.7701 14.1995 18.1001 14.0195" stroke="#00FFF0" stroke-width="2" stroke-miterlimit="10" stroke-linecap="round" stroke-linejoin="round"/>
</svg>
