<svg width="45" height="44" viewBox="0 0 45 44" fill="none" xmlns="http://www.w3.org/2000/svg">
<rect x="1.90015" y="1" width="42" height="42" rx="21" stroke="white" stroke-opacity="0.4" stroke-width="2"/>
<path d="M24.6301 13.5096L26.3901 17.0296C26.6301 17.5196 27.2701 17.9896 27.8101 18.0796L31.0001 18.6096C33.0401 18.9496 33.5201 20.4296 32.0501 21.8896L29.5701 24.3696C29.1501 24.7896 28.9201 25.5996 29.0501 26.1796L29.7601 29.2496C30.3201 31.6796 29.0301 32.6196 26.8801 31.3496L23.8901 29.5796C23.3501 29.2596 22.4601 29.2596 21.9101 29.5796L18.9201 31.3496C16.7801 32.6196 15.4801 31.6696 16.0401 29.2496L16.7501 26.1796C16.8801 25.5996 16.6501 24.7896 16.2301 24.3696L13.7501 21.8896C12.2901 20.4296 12.7601 18.9496 14.8001 18.6096L17.9901 18.0796C18.5201 17.9896 19.1601 17.5196 19.4001 17.0296L21.1601 13.5096C22.1201 11.5996 23.6801 11.5996 24.6301 13.5096Z" stroke="white" stroke-opacity="0.4" stroke-width="2" stroke-linecap="round" stroke-linejoin="round"/>
</svg>
