<svg width="45" height="44" viewBox="0 0 45 44" fill="none" xmlns="http://www.w3.org/2000/svg">
<rect x="0.700195" width="44" height="44" rx="22" fill="#00FFF0"/>
<path d="M25.7002 12V22C25.7002 23.1 24.8002 24 23.7002 24H12.7002V16C12.7002 13.79 14.4902 12 16.7002 12H25.7002Z" stroke="#202121" stroke-width="2" stroke-linecap="round" stroke-linejoin="round"/>
<path d="M32.7002 24V27C32.7002 28.66 31.3602 30 29.7002 30H28.7002C28.7002 28.9 27.8002 28 26.7002 28C25.6002 28 24.7002 28.9 24.7002 30H20.7002C20.7002 28.9 19.8002 28 18.7002 28C17.6002 28 16.7002 28.9 16.7002 30H15.7002C14.0402 30 12.7002 28.66 12.7002 27V24H23.7002C24.8002 24 25.7002 23.1 25.7002 22V15H27.5402C28.2602 15 28.9202 15.39 29.2802 16.01L30.9902 19H29.7002C29.1502 19 28.7002 19.45 28.7002 20V23C28.7002 23.55 29.1502 24 29.7002 24H32.7002Z" stroke="#202121" stroke-width="2" stroke-linecap="round" stroke-linejoin="round"/>
<path d="M18.7002 32C19.8048 32 20.7002 31.1046 20.7002 30C20.7002 28.8954 19.8048 28 18.7002 28C17.5956 28 16.7002 28.8954 16.7002 30C16.7002 31.1046 17.5956 32 18.7002 32Z" stroke="#202121" stroke-width="2" stroke-linecap="round" stroke-linejoin="round"/>
<path d="M26.7002 32C27.8048 32 28.7002 31.1046 28.7002 30C28.7002 28.8954 27.8048 28 26.7002 28C25.5956 28 24.7002 28.8954 24.7002 30C24.7002 31.1046 25.5956 32 26.7002 32Z" stroke="#202121" stroke-width="2" stroke-linecap="round" stroke-linejoin="round"/>
<path d="M32.7002 22V24H29.7002C29.1502 24 28.7002 23.55 28.7002 23V20C28.7002 19.45 29.1502 19 29.7002 19H30.9902L32.7002 22Z" stroke="#202121" stroke-width="2" stroke-linecap="round" stroke-linejoin="round"/>
</svg>
