<svg width="45" height="44" viewBox="0 0 45 44" fill="none" xmlns="http://www.w3.org/2000/svg">
<rect x="1.5" y="1" width="42" height="42" rx="21" stroke="#00FFF0" stroke-width="2"/>
<path d="M13.6702 17.4404L22.5002 22.5504L31.2701 17.4704" stroke="#00FFF0" stroke-width="2" stroke-linecap="round" stroke-linejoin="round"/>
<path d="M22.5002 31.61V22.54" stroke="#00FFF0" stroke-width="2" stroke-linecap="round" stroke-linejoin="round"/>
<path d="M20.4301 12.48L15.0901 15.45C13.8801 16.12 12.8901 17.8 12.8901 19.18V24.83C12.8901 26.21 13.8801 27.89 15.0901 28.56L20.4301 31.53C21.5701 32.16 23.4401 32.16 24.5801 31.53L29.9201 28.56C31.1301 27.89 32.1201 26.21 32.1201 24.83V19.18C32.1201 17.8 31.1301 16.12 29.9201 15.45L24.5801 12.48C23.4301 11.84 21.5701 11.84 20.4301 12.48Z" stroke="#00FFF0" stroke-width="2" stroke-linecap="round" stroke-linejoin="round"/>
<path d="M27.5 23.2396V19.5797L18.01 14.0996" stroke="#00FFF0" stroke-width="2" stroke-linecap="round" stroke-linejoin="round"/>
</svg>
