<svg width="24" height="24" viewBox="0 0 24 24" fill="none" xmlns="http://www.w3.org/2000/svg">
<path d="M23.9967 20.1818L22.5562 7.93742C22.2689 5.49506 20.4686 3.47082 18.0766 2.90026L16.3921 2.49855C16.5757 1.72783 16.4197 0.95318 15.9233 0.213872C15.8386 0.0829512 15.69 7.66296e-05 15.53 7.66296e-05C7.99443 0.000170379 8.48924 -0.000204619 8.46838 0.000170379C8.3113 0.000732876 8.16224 0.0816855 8.07674 0.213825C7.58038 0.953087 7.42434 1.72779 7.60799 2.4985L5.92346 2.90022C3.53139 3.47077 1.73112 5.49501 1.44382 7.93737L0.00326771 20.1818C-0.0294509 20.4597 0.187673 20.7053 0.468828 20.7053H3.2928C3.50791 20.7053 3.6954 20.5589 3.74753 20.3503L4.70668 16.5137V19.8954C4.70668 20.6439 5.0791 21.3067 5.64802 21.7094V23.5312C5.64802 23.7901 5.85792 23.9999 6.11677 23.9999H17.8833C18.1421 23.9999 18.352 23.79 18.352 23.5312V21.7094C18.9209 21.3067 19.2934 20.6439 19.2934 19.8954V16.5137L20.2525 20.3503C20.3046 20.5589 20.4921 20.7053 20.7072 20.7053H23.5312C23.812 20.7053 24.0294 20.4599 23.9967 20.1818ZM8.58674 1.24849L10.3546 3.01632V3.95269C9.07119 3.39657 8.09146 2.56169 8.58674 1.24849ZM11.2921 2.82212C11.2921 2.69781 11.2427 2.57861 11.1548 2.49067L9.60167 0.937571H14.3983L12.8451 2.49067C12.7572 2.57861 12.7078 2.69781 12.7078 2.82212V23.0624H11.2921V2.82212ZM13.6454 3.01632L15.4132 1.24844C15.9102 2.566 14.9323 3.39503 13.6454 3.95265V3.01632ZM0.995888 19.7678L1.10707 18.8227H3.16309L2.9268 19.7678H0.995888ZM3.39747 17.8852H1.21742L2.37485 8.04692C2.61639 5.99367 4.12984 4.29188 6.14095 3.81221L7.96626 3.37688C8.33104 4.0043 9.66659 4.71652 10.3546 4.95956V15.5319H7.99935C7.79756 15.5319 7.61845 15.661 7.55465 15.8524C7.22512 16.841 6.33858 17.2482 5.64413 17.371V10.3527C5.64413 10.0939 5.43422 9.88399 5.17538 9.88399C4.91649 9.88399 4.70663 10.0939 4.70663 10.3527V12.6484L3.39747 17.8852ZM5.64418 18.3212C6.69201 18.1858 7.79723 17.5966 8.3173 16.4694H10.3546V21.1798H6.92864C6.22041 21.1798 5.64418 20.6036 5.64418 19.8954V18.3212ZM6.58551 22.0907C6.6974 22.1082 6.81197 22.1173 6.92864 22.1173H10.3546V23.0624H6.58551V22.0907ZM17.4145 23.0624H13.6454V22.1173H17.0714C17.188 22.1173 17.3026 22.1082 17.4145 22.0907V23.0624ZM17.0714 21.1798H13.6454V16.4694H15.6827C16.2028 17.5966 17.308 18.1858 18.3558 18.3212V19.8954C18.3558 20.6036 17.7796 21.1798 17.0714 21.1798ZM18.8246 9.88399C18.5657 9.88399 18.3558 10.0939 18.3558 10.3527V17.371C17.6614 17.2482 16.7748 16.841 16.4453 15.8524C16.3815 15.661 16.2023 15.5319 16.0006 15.5319H13.6454V4.95952C14.3332 4.71656 15.6688 4.00449 16.0337 3.37688L17.859 3.81221C19.8701 4.29183 21.3835 5.99367 21.6251 8.04692L22.7826 17.8852H20.6025L19.2933 12.6483V10.3527C19.2933 10.0938 19.0834 9.88399 18.8246 9.88399ZM21.0732 19.7678L20.8369 18.8227H22.8929L23.0041 19.7678H21.0732Z" fill="white"/>
</svg>
