<svg width="24" height="24" viewBox="0 0 24 24" fill="none" xmlns="http://www.w3.org/2000/svg">
<g opacity="0.8">
<path d="M13.7188 11.5312C13.9775 11.5312 14.1875 11.3212 14.1875 11.0625C14.1875 10.8038 13.9775 10.5938 13.7188 10.5938C13.46 10.5938 13.25 10.8038 13.25 11.0625C13.25 11.3212 13.46 11.5312 13.7188 11.5312Z" fill="white"/>
<path d="M9.96875 11.5312C10.2275 11.5312 10.4375 11.3212 10.4375 11.0625C10.4375 10.8038 10.2275 10.5938 9.96875 10.5938C9.71002 10.5938 9.5 10.8038 9.5 11.0625C9.5 11.3212 9.71002 11.5312 9.96875 11.5312Z" fill="white"/>
<path d="M2 17.9062C2 18.3094 2.17487 18.6903 2.46875 18.9536V20.7188C2.46875 20.9777 2.67859 21.1875 2.9375 21.1875H4.89307C5.03461 21.5863 5.3512 21.9029 5.75 22.0444V23.5312C5.75 23.7902 5.95984 24 6.21875 24H17.4688C17.7277 24 17.9375 23.7902 17.9375 23.5312V22.0444C18.3363 21.9029 18.6529 21.5863 18.7944 21.1875H20.75C21.0089 21.1875 21.2188 20.9777 21.2188 20.7188V18.9532C21.5128 18.6896 21.6875 18.3091 21.6875 17.9062V7.27972C21.6875 5.80591 20.9027 4.41962 19.6393 3.66211L17.7365 2.52026C17.6339 2.45911 17.5275 2.40674 17.4195 2.36243L16.5404 1.0437C16.1193 0.411621 15.3962 0 14.5901 0H9.09735C8.31476 0 7.58124 0.392029 7.14728 1.04352L6.26801 2.36243C6.15961 2.40692 6.05322 2.45929 5.95032 2.52063L4.04822 3.66211C2.78479 4.41962 2 5.80573 2 7.27972L2 17.9062ZM3.40625 19.3125H4.8125V20.25H3.40625V19.3125ZM6.6875 23.0625V22.125H17V23.0625H6.6875ZM20.2812 20.25H18.875V19.3125H20.2812V20.25ZM12.4416 4.25098C12.6379 3.57202 13.0502 2.96246 13.625 2.53125L15.4037 1.19733C15.5432 1.2962 15.6644 1.41962 15.7602 1.56354L16.1925 2.21191C15.8893 2.25623 15.5943 2.35931 15.3255 2.52063L12.4416 4.25098ZM8.36218 2.52081C8.0932 2.35931 7.79822 2.25623 7.49518 2.21191L7.92749 1.56335C8.02325 1.4198 8.14429 1.29639 8.284 1.19733L10.0625 2.53107C10.6373 2.96228 11.0496 3.57202 11.2459 4.25079L8.36218 2.52081ZM9.49982 0.9375H14.1877L13.0623 1.78125C12.5467 2.16833 12.1327 2.66711 11.8438 3.2298C11.5548 2.66711 11.1408 2.16815 10.625 1.78125L9.49982 0.9375ZM2.9375 7.27972C2.9375 6.1333 3.54779 5.05518 4.53052 4.46613L6.43207 3.32501C6.88342 3.05548 7.43768 3.05914 7.8797 3.32465L9.5 4.29675V9.1875C9.5 9.44641 9.70984 9.65625 9.96875 9.65625C10.2277 9.65625 10.4375 9.44641 10.4375 9.1875V4.85925L11.6026 5.55817C11.6716 5.59955 11.7581 5.62463 11.8423 5.625H11.8452C11.93 5.62463 12.0162 5.59937 12.0849 5.55817L13.25 4.85925V9.1875C13.25 9.44641 13.4598 9.65625 13.7188 9.65625C13.9777 9.65625 14.1875 9.44641 14.1875 9.1875V4.29675L15.8078 3.32446C16.2537 3.05676 16.8087 3.05823 17.2547 3.32465L19.157 4.46613C20.1397 5.05518 20.75 6.1333 20.75 7.27972V17.9062C20.75 18.1648 20.5381 18.375 20.2812 18.375H18.875V9.1875C18.875 8.92859 18.6652 8.71875 18.4062 8.71875C18.1473 8.71875 17.9375 8.92859 17.9375 9.1875V20.7188C17.9375 20.9773 17.7273 21.1875 17.4688 21.1875H6.21875C5.96021 21.1875 5.75 20.9773 5.75 20.7188V9.1875C5.75 8.92859 5.54016 8.71875 5.28125 8.71875C5.02234 8.71875 4.8125 8.92859 4.8125 9.1875V18.375H3.40625C3.32404 18.375 3.24347 18.3534 3.17169 18.3116C3.02722 18.2281 2.9375 18.0731 2.9375 17.9062V7.27972Z" fill="white"/>
<path d="M7.625 20.25H16.0625C16.3214 20.25 16.5312 20.0402 16.5312 19.7812V18.8438C16.5312 18.7709 16.5144 18.6991 16.4818 18.6341L14.6068 14.8841C14.5273 14.7253 14.3651 14.625 14.1875 14.625H9.5C9.32239 14.625 9.16016 14.7253 9.08069 14.8841L7.20569 18.6341C7.1731 18.6991 7.15625 18.7709 7.15625 18.8438V19.7812C7.15625 20.0402 7.36609 20.25 7.625 20.25ZM8.09375 18.9543L9.78967 15.5625H13.8978L15.5938 18.9543V19.3125H8.09375V18.9543Z" fill="white"/>
</g>
</svg>
