<svg width="200" height="48" viewBox="0 0 200 48" fill="none" xmlns="http://www.w3.org/2000/svg">
<path fill-rule="evenodd" clip-rule="evenodd" d="M34.7814 8.34011C33.9853 6.63844 32.8566 5.09746 31.4471 3.81465C28.9995 1.58694 25.8562 0.275199 22.5511 0.102234C19.246 -0.0707323 15.9829 0.905743 13.3161 2.8658C11.3656 4.29933 9.82213 6.19435 8.81219 8.36326L8.73325 8.31721C4.86186 6.0589 0 8.8514 0 13.3333V42.1104C0 46.5923 4.86185 49.3848 8.73325 47.1265L21.7769 39.5177L34.8206 47.1265C38.692 49.3848 43.5539 46.5923 43.5539 42.1104V13.3333C43.5539 8.8514 38.692 6.05889 34.8206 8.31721L34.7814 8.34011ZM12.4478 10.4841L21.7769 15.926L31.1466 10.4604C30.5788 9.11767 29.7242 7.90353 28.6311 6.90869C26.8981 5.33141 24.6725 4.40265 22.3324 4.28019C19.9923 4.15772 17.6819 4.8491 15.7938 6.23688C14.3074 7.3293 13.1549 8.80022 12.4478 10.4841ZM7.53119 19.2308V37.5485C7.53119 38.6659 8.74062 39.3644 9.70848 38.806L14.6087 35.979V27.6765L21.0382 31.4609C21.4939 31.7292 22.0595 31.7284 22.5145 31.4589L28.8998 27.6765V35.979L33.8977 38.8258C34.8655 39.3771 36.0681 38.6782 36.0681 37.5644V19.2249C36.0681 17.5528 34.2617 16.5045 32.8099 17.3341L22.4984 23.2264C22.0514 23.4818 21.5027 23.4815 21.0561 23.2255L10.7919 17.3415C9.34013 16.5093 7.53119 17.5574 7.53119 19.2308Z" fill="url(#paint0_linear_2781_9956)"/>
<path d="M67.6819 36.084C67.5325 36.084 67.4019 36.028 67.2899 35.916C67.1779 35.7853 67.1219 35.6453 67.1219 35.496V28.804L62.4179 35.104C62.3059 35.2533 62.1565 35.328 61.9699 35.328C61.7832 35.328 61.6339 35.2533 61.5219 35.104L56.8179 28.804V35.496C56.8179 35.6453 56.7619 35.7853 56.6499 35.916C56.5379 36.028 56.3979 36.084 56.2299 36.084H52.6739C52.5245 36.084 52.3939 36.028 52.2819 35.916C52.1699 35.7853 52.1139 35.6453 52.1139 35.496V17.072C52.1139 16.8107 52.2445 16.6427 52.5059 16.568C52.7672 16.4747 52.9819 16.5307 53.1499 16.736C54.6245 18.7147 56.0899 20.684 57.5459 22.644C59.0205 24.5853 60.4952 26.5453 61.9699 28.524C63.4445 26.5453 64.9099 24.5853 66.3659 22.644C67.8405 20.684 69.3152 18.7147 70.7899 16.736C70.9579 16.5307 71.1725 16.4747 71.4339 16.568C71.6952 16.6427 71.8259 16.8107 71.8259 17.072V35.496C71.8259 35.6453 71.7699 35.7853 71.6579 35.916C71.5459 36.028 71.4059 36.084 71.2379 36.084H67.6819ZM73.5098 36.084C73.3605 36.084 73.2298 36.028 73.1178 35.916C73.0058 35.804 72.9498 35.664 72.9498 35.496V17.072C72.9498 16.9227 73.0058 16.792 73.1178 16.68C73.2298 16.568 73.3605 16.512 73.5098 16.512H84.4578C84.6071 16.512 84.7378 16.568 84.8498 16.68C84.9618 16.792 85.0178 16.9227 85.0178 17.072V20.068C85.0178 20.2173 84.9618 20.348 84.8498 20.46C84.7378 20.572 84.6071 20.628 84.4578 20.628H77.6538V26.564H82.2178C82.3671 26.564 82.4978 26.62 82.6098 26.732C82.7218 26.844 82.7778 26.9747 82.7778 27.124V30.12C82.7778 30.2693 82.7218 30.4 82.6098 30.512C82.4978 30.624 82.3671 30.68 82.2178 30.68H77.6538V31.968H85.2978C85.4471 31.968 85.5778 32.024 85.6898 32.136C85.8018 32.248 85.8578 32.3787 85.8578 32.528V35.496C85.8578 35.664 85.8018 35.804 85.6898 35.916C85.5778 36.028 85.4471 36.084 85.2978 36.084H73.5098ZM86.3209 17.072C86.3209 16.9227 86.3769 16.792 86.4889 16.68C86.6009 16.568 86.7316 16.512 86.8809 16.512H100.321C100.47 16.512 100.601 16.568 100.713 16.68C100.825 16.792 100.881 16.9227 100.881 17.072V20.068C100.881 20.2173 100.825 20.348 100.713 20.46C100.601 20.572 100.47 20.628 100.321 20.628H95.9529V35.496C95.9529 35.6453 95.8969 35.7853 95.7849 35.916C95.6729 36.028 95.5422 36.084 95.3929 36.084H91.8369C91.6689 36.084 91.5289 36.028 91.4169 35.916C91.3049 35.7853 91.2489 35.6453 91.2489 35.496V20.628H86.8809C86.7316 20.628 86.6009 20.572 86.4889 20.46C86.3769 20.348 86.3209 20.2173 86.3209 20.068V17.072ZM115.78 35.328C115.836 35.5147 115.808 35.692 115.696 35.86C115.584 36.0093 115.434 36.084 115.248 36.084H112C111.738 36.084 111.552 35.9533 111.44 35.692C111.234 35.0387 111.029 34.3947 110.824 33.76C110.637 33.1253 110.441 32.4907 110.236 31.856H104.608C104.402 32.4907 104.197 33.1253 103.992 33.76C103.805 34.3947 103.609 35.0387 103.404 35.692C103.292 35.9533 103.105 36.084 102.844 36.084H99.5957C99.4091 36.084 99.2597 36.0093 99.1477 35.86C99.0357 35.692 99.0077 35.5147 99.0637 35.328C100.053 32.248 101.033 29.1773 102.004 26.116C102.974 23.0547 103.954 19.984 104.944 16.904C105.018 16.6427 105.196 16.512 105.476 16.512H109.368C109.648 16.512 109.825 16.6427 109.9 16.904C110.889 19.984 111.869 23.0547 112.84 26.116C113.81 29.1773 114.79 32.248 115.78 35.328ZM108.92 27.768L107.408 23.036L105.924 27.768H108.92ZM132.487 36.084C132.337 36.084 132.207 36.028 132.095 35.916C131.983 35.7853 131.927 35.6453 131.927 35.496V28.804L127.223 35.104C127.111 35.2533 126.961 35.328 126.775 35.328C126.588 35.328 126.439 35.2533 126.327 35.104L121.623 28.804V35.496C121.623 35.6453 121.567 35.7853 121.455 35.916C121.343 36.028 121.203 36.084 121.035 36.084H117.479C117.329 36.084 117.199 36.028 117.087 35.916C116.975 35.7853 116.919 35.6453 116.919 35.496V17.072C116.919 16.8107 117.049 16.6427 117.311 16.568C117.572 16.4747 117.787 16.5307 117.955 16.736C119.429 18.7147 120.895 20.684 122.351 22.644C123.825 24.5853 125.3 26.5453 126.775 28.524C128.249 26.5453 129.715 24.5853 131.171 22.644C132.645 20.684 134.12 18.7147 135.595 16.736C135.763 16.5307 135.977 16.4747 136.239 16.568C136.5 16.6427 136.631 16.8107 136.631 17.072V35.496C136.631 35.6453 136.575 35.7853 136.463 35.916C136.351 36.028 136.211 36.084 136.043 36.084H132.487ZM138.314 36.084C138.165 36.084 138.034 36.028 137.922 35.916C137.81 35.804 137.754 35.664 137.754 35.496V17.072C137.754 16.9227 137.81 16.792 137.922 16.68C138.034 16.568 138.165 16.512 138.314 16.512H149.262C149.412 16.512 149.542 16.568 149.654 16.68C149.766 16.792 149.822 16.9227 149.822 17.072V20.068C149.822 20.2173 149.766 20.348 149.654 20.46C149.542 20.572 149.412 20.628 149.262 20.628H142.458V26.564H147.022C147.172 26.564 147.302 26.62 147.414 26.732C147.526 26.844 147.582 26.9747 147.582 27.124V30.12C147.582 30.2693 147.526 30.4 147.414 30.512C147.302 30.624 147.172 30.68 147.022 30.68H142.458V31.968H150.102C150.252 31.968 150.382 32.024 150.494 32.136C150.606 32.248 150.662 32.3787 150.662 32.528V35.496C150.662 35.664 150.606 35.804 150.494 35.916C150.382 36.028 150.252 36.084 150.102 36.084H138.314ZM161.386 29.812C161.908 30.708 162.422 31.6133 162.926 32.528C163.448 33.424 163.971 34.32 164.494 35.216C164.587 35.4213 164.578 35.6173 164.466 35.804C164.372 35.9907 164.214 36.084 163.99 36.084H160.882C160.676 36.084 160.508 35.9813 160.378 35.776L157.606 30.904L155.674 31.324V35.496C155.674 35.664 155.618 35.804 155.506 35.916C155.394 36.028 155.263 36.084 155.114 36.084H152.342C152.192 36.084 152.062 36.028 151.95 35.916C151.838 35.804 151.782 35.664 151.782 35.496V17.072C151.782 16.9227 151.838 16.792 151.95 16.68C152.062 16.568 152.192 16.512 152.342 16.512H157.858C158.66 16.512 159.426 16.6427 160.154 16.904C160.9 17.1653 161.572 17.5293 162.17 17.996C162.786 18.4627 163.318 19.0227 163.766 19.676C164.214 20.3107 164.54 21.02 164.746 21.804C164.951 22.588 165.016 23.372 164.942 24.156C164.886 24.9213 164.708 25.6587 164.41 26.368C164.13 27.0773 163.728 27.7307 163.206 28.328C162.683 28.9253 162.076 29.42 161.386 29.812ZM158.474 26.564C159.052 26.4333 159.528 26.2 159.902 25.864C160.275 25.528 160.536 25.136 160.686 24.688C160.835 24.24 160.882 23.7827 160.826 23.316C160.788 22.8307 160.648 22.392 160.406 22C160.163 21.608 159.827 21.2813 159.398 21.02C158.968 20.7587 158.455 20.628 157.858 20.628H155.674V27.152C156.159 27.0587 156.626 26.9653 157.074 26.872C157.54 26.76 158.007 26.6573 158.474 26.564ZM182.67 33.592C181.624 34.5813 180.486 35.3093 179.254 35.776C178.022 36.224 176.78 36.4293 175.53 36.392C174.298 36.3547 173.103 36.1027 171.946 35.636C170.788 35.1693 169.752 34.516 168.838 33.676C167.923 32.8173 167.176 31.8 166.598 30.624C166.019 29.448 165.702 28.1413 165.646 26.704C165.59 25.2667 165.795 23.9413 166.262 22.728C166.747 21.496 167.41 20.4227 168.25 19.508C169.09 18.5933 170.07 17.856 171.19 17.296C172.328 16.736 173.514 16.3907 174.746 16.26C175.978 16.1293 177.228 16.2413 178.498 16.596C179.767 16.932 180.962 17.5573 182.082 18.472C182.212 18.5653 182.278 18.696 182.278 18.864C182.296 19.0133 182.25 19.1533 182.138 19.284C181.764 19.676 181.4 20.068 181.046 20.46C180.71 20.852 180.355 21.244 179.982 21.636C179.758 21.8787 179.506 21.8973 179.226 21.692C178.255 20.9453 177.21 20.5533 176.09 20.516C174.988 20.46 173.971 20.6747 173.038 21.16C172.123 21.6453 171.367 22.3547 170.77 23.288C170.172 24.2213 169.902 25.304 169.958 26.536C170.014 27.7493 170.368 28.804 171.022 29.7C171.694 30.5773 172.515 31.2213 173.486 31.632C174.456 32.024 175.483 32.1547 176.566 32.024C177.667 31.8933 178.675 31.4173 179.59 30.596C179.851 30.3907 180.103 30.4 180.346 30.624C180.719 30.9787 181.102 31.3333 181.494 31.688C181.886 32.0427 182.278 32.4067 182.67 32.78C182.782 32.892 182.838 33.032 182.838 33.2C182.838 33.3493 182.782 33.48 182.67 33.592ZM184.525 36.084C184.376 36.084 184.245 36.028 184.133 35.916C184.021 35.7853 183.965 35.6453 183.965 35.496V17.072C183.965 16.9227 184.021 16.792 184.133 16.68C184.245 16.568 184.376 16.512 184.525 16.512H188.081C188.249 16.512 188.389 16.568 188.501 16.68C188.613 16.792 188.669 16.9227 188.669 17.072V27.684C189.528 27.4973 190.387 27.32 191.245 27.152C192.104 26.9653 192.963 26.788 193.821 26.62V17.072C193.821 16.9227 193.877 16.792 193.989 16.68C194.101 16.568 194.232 16.512 194.381 16.512H197.937C198.105 16.512 198.245 16.568 198.357 16.68C198.469 16.792 198.525 16.9227 198.525 17.072V35.496C198.525 35.6453 198.469 35.7853 198.357 35.916C198.245 36.028 198.105 36.084 197.937 36.084H194.381C194.232 36.084 194.101 36.028 193.989 35.916C193.877 35.7853 193.821 35.6453 193.821 35.496V30.792C192.963 30.96 192.104 31.1373 191.245 31.324C190.387 31.492 189.528 31.6693 188.669 31.856V35.496C188.669 35.6453 188.613 35.7853 188.501 35.916C188.389 36.028 188.249 36.084 188.081 36.084H184.525Z" fill="white"/>
<defs>
<linearGradient id="paint0_linear_2781_9956" x1="43.5539" y1="0.0907343" x2="4.63094e-07" y2="47.9093" gradientUnits="userSpaceOnUse">
<stop stop-color="#FF00F5"/>
<stop offset="1" stop-color="#00FFF0"/>
</linearGradient>
</defs>
</svg>
