<svg width="28" height="28" viewBox="0 0 28 28" fill="none" xmlns="http://www.w3.org/2000/svg">
<path d="M27.125 21.8014C27.125 22.6584 26.4303 23.3532 25.5733 23.3532H2.42667C1.5697 23.3532 0.875 22.6583 0.875 21.8014V6.80172C0.875 5.94475 1.5697 5.25 2.42667 5.25H25.5733C26.4303 5.25 27.1249 5.94475 27.1249 6.80172L27.125 21.8014Z" fill="#0099DF"/>
<path d="M18.0344 13.2033C18.0344 12.279 18.4602 11.4542 19.1263 10.9141C18.6202 10.5037 17.975 10.2576 17.2726 10.2576C15.6457 10.2576 14.3271 11.5763 14.3271 13.2032C14.3271 14.83 15.6457 16.1487 17.2726 16.1487C17.9751 16.1487 18.6202 15.9027 19.1263 15.4921C18.4602 14.9522 18.0344 14.1275 18.0344 13.2033Z" fill="#EA001B"/>
<path d="M20.9797 10.2576C20.2771 10.2576 19.6323 10.5037 19.126 10.9141C19.7922 11.4542 20.2179 12.279 20.2179 13.2033C20.2179 14.1275 19.7922 14.9522 19.126 15.4922C19.6323 15.9027 20.2772 16.1487 20.9797 16.1487C22.6066 16.1487 23.9252 14.8301 23.9252 13.2033C23.9252 11.5763 22.6065 10.2576 20.9797 10.2576Z" fill="#F79F1A"/>
<path d="M20.218 13.2032C20.218 12.2789 19.7922 11.4541 19.126 10.9141C18.46 11.4541 18.0342 12.2789 18.0342 13.2032C18.0342 14.1274 18.4599 14.9522 19.126 15.4921C19.7922 14.9522 20.218 14.1274 20.218 13.2032Z" fill="#FF5F01"/>
<path d="M9.37812 14.5687C9.37812 14.7757 9.21016 14.9434 9.00345 14.9434H4.35417C4.14719 14.9434 3.97949 14.7757 3.97949 14.5687V10.9457C3.97949 10.7387 4.14725 10.571 4.35417 10.571H9.00345C9.21022 10.571 9.37812 10.7387 9.37812 10.9457V14.5687Z" fill="#FFC715"/>
<path d="M9.42873 18.1523H3.97878C3.74238 18.1523 3.55078 17.9606 3.55078 17.7243C3.55078 17.4879 3.74232 17.2963 3.97878 17.2963H9.42873C9.66513 17.2963 9.85673 17.4878 9.85673 17.7243C9.85673 17.9606 9.66513 18.1523 9.42873 18.1523Z" fill="#34495E"/>
<path d="M9.42873 19.9372H3.97878C3.74238 19.9372 3.55078 19.7456 3.55078 19.5092C3.55078 19.2728 3.74232 19.0812 3.97878 19.0812H9.42873C9.66513 19.0812 9.85673 19.2727 9.85673 19.5092C9.85673 19.7456 9.66513 19.9372 9.42873 19.9372Z" fill="#34495E"/>
<path d="M5.43298 14.9435H6.28898V14.5155V10.999V10.571H5.43298V10.999V11.6004H4.40749H3.97949V12.4564H4.40749H5.43298V13.0581H4.40749H3.97949V13.9141H4.40749H5.43298V14.5155V14.9435Z" fill="#FFA617"/>
<path d="M8.95053 12.4566H9.37853V11.6006H8.95053H8.13432V10.9992V10.5712H7.27832V10.9992V13.4862C7.27832 13.7226 7.46986 13.9142 7.70632 13.9142H8.95053H9.37853V13.0582H8.95053H8.13432V12.4566H8.95053Z" fill="#FFA617"/>
<path opacity="0.15" d="M4.76781 14.5687V10.9457C4.76781 10.7387 4.93551 10.571 5.14249 10.571H4.35417C4.14719 10.571 3.97949 10.7387 3.97949 10.9457V14.5687C3.97949 14.7757 4.14725 14.9434 4.35417 14.9434H5.14254C4.93551 14.9435 4.76781 14.7757 4.76781 14.5687Z" fill="#202121"/>
</svg>
