<svg width="81" height="28" viewBox="0 0 81 28" fill="none" xmlns="http://www.w3.org/2000/svg">
<g clip-path="url(#clip0_98_9267)">
<path d="M0.286133 0H73.0004C77.4187 0 81.0004 3.58172 81.0004 8V20C81.0004 24.4183 77.4187 28 73.0004 28H0.286133V0Z" fill="#292929"/>
<g clip-path="url(#clip1_98_9267)">
<path d="M30.4469 8.40491H25.9832C25.8354 8.40481 25.6925 8.4575 25.5801 8.55347C25.4677 8.64944 25.3933 8.78239 25.3703 8.92836L23.565 20.3744C23.5567 20.4275 23.56 20.4818 23.5747 20.5335C23.5894 20.5852 23.6151 20.6332 23.6501 20.674C23.6851 20.7148 23.7285 20.7475 23.7774 20.77C23.8262 20.7924 23.8794 20.804 23.9331 20.8039H26.0641C26.212 20.804 26.355 20.7512 26.4674 20.6551C26.5798 20.559 26.6541 20.4259 26.677 20.2798L27.1639 17.1926C27.1868 17.0466 27.261 16.9136 27.3732 16.8175C27.4855 16.7214 27.6283 16.6686 27.7761 16.6685H29.1892C32.1295 16.6685 33.8265 15.2457 34.2696 12.4261C34.4693 11.1925 34.2781 10.2233 33.7005 9.54449C33.0661 8.79913 31.9409 8.40491 30.4469 8.40491ZM30.9618 12.5853C30.7177 14.187 29.494 14.187 28.3106 14.187H27.6371L28.1096 11.1958C28.1235 11.1083 28.1681 11.0286 28.2354 10.971C28.3028 10.9135 28.3885 10.8818 28.4771 10.8818H28.7858C29.5919 10.8818 30.3522 10.8818 30.7451 11.3413C30.9795 11.6154 31.0513 12.0227 30.9618 12.5853ZM43.7896 12.5338H41.6521C41.5635 12.5338 41.4778 12.5654 41.4104 12.6229C41.3431 12.6805 41.2985 12.7602 41.2846 12.8477L41.19 13.4456L41.0405 13.2289C40.5778 12.5573 39.5459 12.3327 38.516 12.3327C36.1539 12.3327 34.1365 14.1217 33.7436 16.6313C33.5393 17.8831 33.8297 19.0802 34.5398 19.9149C35.1912 20.6825 36.1232 21.0023 37.2321 21.0023C39.1354 21.0023 40.1907 19.7785 40.1907 19.7785L40.0954 20.3725C40.087 20.4256 40.0901 20.4799 40.1046 20.5317C40.1191 20.5834 40.1447 20.6315 40.1796 20.6724C40.2144 20.7133 40.2577 20.7462 40.3066 20.7688C40.3554 20.7914 40.4085 20.8032 40.4623 20.8032H42.3877C42.5355 20.8033 42.6786 20.7505 42.7909 20.6544C42.9033 20.5583 42.9776 20.4252 43.0005 20.2791L44.1558 12.9632C44.1643 12.9102 44.1612 12.856 44.1467 12.8044C44.1322 12.7527 44.1067 12.7048 44.0718 12.664C44.037 12.6231 43.9938 12.5903 43.945 12.5679C43.8963 12.5454 43.8433 12.5337 43.7896 12.5338ZM40.8101 16.694C40.6039 17.9151 39.6347 18.7349 38.3985 18.7349C37.7778 18.7349 37.2817 18.5358 36.9632 18.1586C36.6473 17.7839 36.5272 17.2507 36.6278 16.6567C36.8203 15.446 37.8058 14.5995 39.0231 14.5995C39.6301 14.5995 40.1235 14.8012 40.4485 15.1817C40.7742 15.5661 40.9035 16.1026 40.8101 16.694ZM55.1737 12.5338H53.0257C52.9244 12.5339 52.8247 12.5588 52.7352 12.6062C52.6456 12.6537 52.5691 12.7222 52.512 12.8059L49.5495 17.1698L48.2938 12.9763C48.2552 12.8484 48.1765 12.7363 48.0693 12.6566C47.9621 12.5769 47.8321 12.5338 47.6985 12.5338H45.5877C45.5285 12.5336 45.4701 12.5476 45.4173 12.5746C45.3646 12.6016 45.319 12.6408 45.2845 12.6889C45.25 12.7371 45.2274 12.7927 45.2187 12.8514C45.2101 12.91 45.2155 12.9698 45.2346 13.0259L47.6006 19.9691L45.3763 23.1091C45.3368 23.1648 45.3133 23.2303 45.3085 23.2984C45.3037 23.3665 45.3178 23.4346 45.3491 23.4953C45.3804 23.556 45.4279 23.6068 45.4862 23.6423C45.5445 23.6778 45.6115 23.6966 45.6798 23.6966H47.8251C47.9253 23.6967 48.024 23.6725 48.1128 23.6262C48.2016 23.5798 48.2778 23.5126 48.3349 23.4303L55.4791 13.1179C55.5178 13.0621 55.5406 12.9968 55.5448 12.929C55.549 12.8612 55.5346 12.7936 55.5032 12.7334C55.4717 12.6732 55.4244 12.6228 55.3663 12.5876C55.3082 12.5524 55.2416 12.5338 55.1737 12.5338Z" fill="#253B80"/>
<path d="M62.2858 8.40495H57.8215C57.6739 8.40501 57.5311 8.45777 57.4188 8.55373C57.3066 8.64968 57.2323 8.78254 57.2093 8.9284L55.404 20.3745C55.3956 20.4275 55.3988 20.4817 55.4134 20.5334C55.4279 20.585 55.4535 20.6329 55.4884 20.6737C55.5233 20.7146 55.5666 20.7473 55.6153 20.7698C55.6641 20.7923 55.7171 20.8039 55.7708 20.8039H58.0617C58.1651 20.8038 58.265 20.7667 58.3434 20.6995C58.4219 20.6323 58.4739 20.5392 58.4899 20.4371L59.0022 17.1926C59.0251 17.0467 59.0993 16.9137 59.2116 16.8176C59.3238 16.7215 59.4667 16.6686 59.6144 16.6685H61.0268C63.9678 16.6685 65.6641 15.2457 66.1079 12.4261C66.3083 11.1925 66.1158 10.2233 65.5382 9.54453C64.9044 8.79917 63.7798 8.40495 62.2858 8.40495ZM62.8008 12.5854C62.5574 14.187 61.3336 14.187 60.1496 14.187H59.4767L59.9499 11.1958C59.9635 11.1083 60.0079 11.0285 60.0752 10.9709C60.1425 10.9134 60.2282 10.8818 60.3167 10.8819H60.6254C61.4308 10.8819 62.1919 10.8819 62.5848 11.3414C62.8191 11.6155 62.8902 12.0228 62.8008 12.5854ZM75.6279 12.5338H73.4917C73.4031 12.5336 73.3174 12.5651 73.2501 12.6227C73.1828 12.6803 73.1383 12.7602 73.1249 12.8477L73.0303 13.4456L72.8802 13.2289C72.4174 12.5573 71.3862 12.3328 70.3562 12.3328C67.9942 12.3328 65.9774 14.1218 65.5845 16.6313C65.3809 17.8832 65.67 19.0802 66.3801 19.915C67.0328 20.6825 67.9635 21.0023 69.0724 21.0023C70.9756 21.0023 72.031 19.7786 72.031 19.7786L71.9357 20.3725C71.9272 20.4257 71.9304 20.4801 71.945 20.532C71.9596 20.5839 71.9853 20.632 72.0203 20.6729C72.0553 20.7139 72.0988 20.7468 72.1477 20.7693C72.1967 20.7918 72.25 20.8034 72.3038 20.8033H74.2286C74.3764 20.8032 74.5192 20.7503 74.6315 20.6542C74.7437 20.5582 74.8179 20.4251 74.8408 20.2792L75.9967 12.9633C76.0049 12.9101 76.0015 12.8558 75.9867 12.8041C75.972 12.7524 75.9462 12.7045 75.9111 12.6637C75.8761 12.6229 75.8326 12.5902 75.7838 12.5677C75.7349 12.5453 75.6817 12.5337 75.6279 12.5338ZM72.6485 16.694C72.4435 17.9152 71.473 18.7349 70.2368 18.7349C69.6174 18.7349 69.1201 18.5359 68.8016 18.1586C68.4857 17.784 68.3669 17.2507 68.4661 16.6568C68.6599 15.4461 69.6442 14.5995 70.8614 14.5995C71.4684 14.5995 71.9618 14.8012 72.2869 15.1817C72.6139 15.5662 72.7431 16.1027 72.6485 16.694ZM78.1479 8.71889L76.3159 20.3745C76.3075 20.4275 76.3107 20.4817 76.3252 20.5334C76.3398 20.585 76.3654 20.6329 76.4003 20.6737C76.4351 20.7146 76.4784 20.7473 76.5272 20.7698C76.5759 20.7923 76.629 20.8039 76.6827 20.8039H78.5245C78.8306 20.8039 79.0904 20.582 79.1374 20.2798L80.944 8.83441C80.9524 8.78136 80.9492 8.72712 80.9346 8.67542C80.9201 8.62372 80.8945 8.57579 80.8596 8.53492C80.8248 8.49405 80.7815 8.46121 80.7327 8.43866C80.684 8.41612 80.6309 8.40439 80.5772 8.4043H78.5147C78.4262 8.40461 78.3407 8.43644 78.2734 8.49409C78.2062 8.55173 78.1617 8.63142 78.1479 8.71889Z" fill="#179BD7"/>
<path d="M5.0284 23.0282L5.36975 20.86L4.60938 20.8424H0.978516L3.50178 4.84326C3.50929 4.79437 3.53412 4.74981 3.57174 4.71771C3.60936 4.6856 3.65726 4.66808 3.70672 4.66834H9.82887C11.8613 4.66834 13.2639 5.09127 13.9962 5.92605C14.3395 6.31766 14.5582 6.72689 14.6639 7.17724C14.7749 7.64978 14.7768 8.21435 14.6685 8.90293L14.6607 8.95319V9.3944L15.004 9.5889C15.2661 9.72168 15.5016 9.90129 15.6991 10.1189C15.9928 10.4537 16.1827 10.8792 16.263 11.3838C16.3459 11.9026 16.3185 12.5201 16.1827 13.2191C16.0261 14.0232 15.7728 14.7235 15.4308 15.2966C15.1291 15.81 14.7233 16.2546 14.2397 16.6019C13.7854 16.9244 13.2456 17.1691 12.6354 17.3258C12.0441 17.4798 11.3698 17.5575 10.6304 17.5575H10.1539C9.8132 17.5575 9.48229 17.6802 9.22253 17.9001C8.96313 18.1224 8.79105 18.4296 8.73693 18.7669L8.70103 18.962L8.09796 22.7835L8.07054 22.9238C8.06336 22.9682 8.05096 22.9904 8.03269 23.0054C8.01499 23.0199 7.9929 23.0279 7.97003 23.0282H5.0284Z" fill="#253B80"/>
<path d="M15.3292 9.00415C15.3109 9.12098 15.29 9.24042 15.2665 9.36312C14.4591 13.5083 11.697 14.9403 8.16925 14.9403H6.37308C5.94165 14.9403 5.57811 15.2536 5.51089 15.6791L4.59126 21.5115L4.33084 23.1647C4.32047 23.2303 4.32443 23.2973 4.34245 23.3612C4.36047 23.4251 4.39213 23.4844 4.43524 23.5349C4.47835 23.5854 4.53189 23.6259 4.59218 23.6537C4.65246 23.6815 4.71806 23.696 4.78445 23.696H7.97019C8.34744 23.696 8.6679 23.4219 8.7273 23.0498L8.75862 22.888L9.35844 19.0815L9.39695 18.8727C9.45569 18.4994 9.77681 18.2252 10.1541 18.2252H10.6305C13.717 18.2252 16.1333 16.9721 16.8395 13.3458C17.1345 11.8309 16.9817 10.566 16.2011 9.67641C15.9537 9.40122 15.6582 9.17341 15.3292 9.00415Z" fill="#179BD7"/>
<path d="M14.4844 8.66734C14.2267 8.59277 13.9644 8.53456 13.6993 8.49308C13.1754 8.41256 12.6459 8.37393 12.1159 8.37755H7.31736C7.13475 8.37741 6.9581 8.44261 6.81937 8.56135C6.68063 8.6801 6.58895 8.84456 6.56091 9.02501L5.54011 15.4905L5.51074 15.6791C5.54254 15.4733 5.64696 15.2856 5.8051 15.1501C5.96325 15.0146 6.16467 14.9402 6.37293 14.9403H8.16911C11.6968 14.9403 14.459 13.5076 15.2664 9.3631C15.2905 9.2404 15.3107 9.12096 15.329 9.00413C15.116 8.89241 14.8939 8.79874 14.6652 8.72413C14.6053 8.70423 14.545 8.6853 14.4844 8.66734Z" fill="#222D65"/>
<path d="M6.56094 9.02499C6.58875 8.84449 6.68038 8.67995 6.81919 8.56126C6.958 8.44257 7.13477 8.37761 7.3174 8.37818H12.1159C12.6844 8.37818 13.215 8.41538 13.6993 8.49371C14.027 8.54521 14.3502 8.62224 14.6659 8.7241C14.9042 8.80308 15.1254 8.89641 15.3297 9.0041C15.5699 7.47226 15.3278 6.42928 14.4995 5.48485C13.5864 4.44513 11.9384 4 9.82957 4H3.70743C3.27666 4 2.9092 4.31329 2.84262 4.73949L0.292601 20.9031C0.280723 20.9782 0.285242 21.0549 0.305847 21.128C0.326452 21.2012 0.362653 21.269 0.411961 21.3268C0.461269 21.3846 0.522513 21.431 0.591481 21.4629C0.660449 21.4948 0.735503 21.5113 0.811482 21.5114H4.59115L5.54015 15.4904L6.56094 9.02499Z" fill="#253B80"/>
</g>
</g>
<defs>
<clipPath id="clip0_98_9267">
<path d="M0.286133 0H73.0004C77.4187 0 81.0004 3.58172 81.0004 8V20C81.0004 24.4183 77.4187 28 73.0004 28H0.286133V0Z" fill="white"/>
</clipPath>
<clipPath id="clip1_98_9267">
<rect width="80.7143" height="20" fill="white" transform="translate(0.286133 4)"/>
</clipPath>
</defs>
</svg>
