<svg width="60" height="28" viewBox="0 0 60 28" fill="none" xmlns="http://www.w3.org/2000/svg">
<g clip-path="url(#clip0_98_9275)">
<path d="M0 3H52C56.4183 3 60 6.58172 60 11V17C60 21.4183 56.4183 25 52 25H0V3Z" fill="#292929"/>
<path d="M53.7999 18.3534L50.336 10.7849H47.4609L52.4094 20.997L52.3203 21.3045C52.1964 21.7132 51.9347 22.0662 51.5801 22.3032C51.2254 22.5402 50.7997 22.6465 50.3756 22.6039C49.8791 22.5993 49.392 22.4679 48.9603 22.222L48.5001 24.4093C49.1642 24.6836 49.875 24.8267 50.5933 24.8308C52.5727 24.8308 53.7702 24.1017 54.7598 21.9542L60.0002 10.7849H57.2242L53.7999 18.3534Z" fill="white"/>
<path d="M29.3191 7.1792H21.0156V21.0912H23.7373V15.9777H29.3191C32.3524 15.9777 34.3467 14.4452 34.3467 11.5785C34.3467 8.71175 32.3524 7.1792 29.3191 7.1792ZM29.1706 13.5425H23.7274V9.57474H29.1706C30.7442 9.57474 31.6448 10.2939 31.6448 11.5586C31.6448 12.8234 30.7442 13.5425 29.1706 13.5425Z" fill="white"/>
<path d="M45.7249 18.4526V14.2616C45.7249 11.7818 43.9485 10.4972 40.9002 10.4972C38.426 10.4972 36.2586 11.6528 35.65 13.4284L37.8867 14.2219C38.2182 13.3341 39.3712 12.6795 40.8062 12.6795C42.5085 12.6795 43.226 13.3738 43.226 14.2219V14.4947L39.1782 14.9411C36.8475 15.1891 35.3135 16.2356 35.3135 18.1054C35.3135 20.1538 37.0702 21.2548 39.4009 21.2548C40.9032 21.3017 42.3662 20.7692 43.4883 19.7669C43.894 20.7588 44.3097 21.4234 47.0759 21.0713V18.9981C45.9674 19.266 45.7249 18.9981 45.7249 18.4526ZM43.2507 17.1234C43.2507 18.4724 41.3654 19.1866 39.7868 19.1866C38.5844 19.1866 37.8619 18.7998 37.8619 18.031C37.8619 17.2622 38.4557 16.9845 39.6038 16.8506L43.2606 16.4241L43.2507 17.1234Z" fill="white"/>
<path d="M15.8678 17.8277C15.8871 17.8856 15.8871 17.9483 15.8678 18.0062C15.8566 18.064 15.8292 18.1174 15.7886 18.16L13.1709 20.9126C13.1132 20.9721 13.0442 21.0193 12.968 21.0515C12.8916 21.0851 12.809 21.102 12.7256 21.1011H0.309983C0.252484 21.1016 0.195969 21.0862 0.146685 21.0565C0.0974336 21.0229 0.0581183 20.9766 0.0328714 20.9226C0.015435 20.8677 0.015435 20.8088 0.0328714 20.7539C0.0431328 20.6968 0.0688042 20.6437 0.107097 20.6002L2.72976 17.8475C2.78744 17.7881 2.85643 17.7409 2.93264 17.7087C3.00891 17.6747 3.09166 17.6577 3.17512 17.6591H15.5709C15.6307 17.6579 15.6895 17.6752 15.7391 17.7087C15.7948 17.7317 15.8405 17.7739 15.8678 17.8277ZM13.1759 12.6002C13.1169 12.5423 13.0482 12.4953 12.973 12.4613C12.8958 12.4301 12.8137 12.4133 12.7305 12.4117H0.309983C0.251765 12.4125 0.194951 12.4297 0.145975 12.4613C0.0969987 12.4928 0.057818 12.5375 0.0328714 12.5902C0.0157557 12.6451 0.0157557 12.704 0.0328714 12.7589C0.0412052 12.8166 0.0671307 12.8703 0.107097 12.9126L2.72976 15.6702C2.78873 15.7281 2.8574 15.7751 2.93264 15.8091C3.00965 15.8407 3.0919 15.8575 3.17512 15.8587H15.5709C15.6307 15.8598 15.6895 15.8425 15.7391 15.8091C15.7891 15.7799 15.8275 15.7344 15.848 15.6801C15.8734 15.6274 15.8818 15.568 15.872 15.5103C15.8623 15.4525 15.8349 15.3992 15.7936 15.3578L13.1759 12.6002ZM0.146685 10.5667C0.195969 10.5964 0.252484 10.6118 0.309983 10.6113H12.7305C12.8139 10.6122 12.8966 10.5953 12.973 10.5617C13.0492 10.5295 13.1182 10.4823 13.1759 10.4228L15.7936 7.67019C15.8341 7.6276 15.8616 7.57423 15.8728 7.51644C15.8899 7.46154 15.8899 7.40271 15.8728 7.34781C15.8523 7.29359 15.8139 7.24807 15.7639 7.21886C15.7142 7.18544 15.6555 7.16812 15.5956 7.16926H3.15532C3.07186 7.16793 2.98912 7.18485 2.91285 7.21886C2.83664 7.25109 2.76765 7.29831 2.70997 7.35773L0.0922528 10.1203C0.0507444 10.1622 0.0231013 10.2159 0.0130773 10.274C-0.00435908 10.3289 -0.00435908 10.3878 0.0130773 10.4427C0.0451946 10.4957 0.0914761 10.5386 0.146685 10.5667Z" fill="url(#paint0_linear_98_9275)"/>
</g>
<defs>
<linearGradient id="paint0_linear_98_9275" x1="1.34093" y1="21.4332" x2="14.0922" y2="6.77438" gradientUnits="userSpaceOnUse">
<stop offset="0.08" stop-color="#9945FF"/>
<stop offset="0.3" stop-color="#8752F3"/>
<stop offset="0.5" stop-color="#5497D5"/>
<stop offset="0.6" stop-color="#43B4CA"/>
<stop offset="0.72" stop-color="#28E0B9"/>
<stop offset="0.97" stop-color="#19FB9B"/>
</linearGradient>
<clipPath id="clip0_98_9275">
<path d="M0 3H52C56.4183 3 60 6.58172 60 11V17C60 21.4183 56.4183 25 52 25H0V3Z" fill="white"/>
</clipPath>
</defs>
</svg>
