<svg width="18" height="18" viewBox="0 0 18 18" fill="none" xmlns="http://www.w3.org/2000/svg">
<path d="M8.2108 2.38235C4.99705 2.38235 2.38229 4.99711 2.38229 8.21086C2.38229 11.4248 4.99705 14.0394 8.2108 14.0394C11.4247 14.0394 14.0393 11.4248 14.0393 8.21086C14.0393 4.99711 11.4247 2.38235 8.2108 2.38235ZM8.2108 12.9634C5.5903 12.9634 3.45832 10.8314 3.45832 8.21088C3.45832 5.59039 5.5903 3.45838 8.2108 3.45838C10.8313 3.45838 12.9633 5.59036 12.9633 8.21086C12.9633 10.8313 10.8313 12.9634 8.2108 12.9634Z" fill="white"/>
<path fill-rule="evenodd" clip-rule="evenodd" d="M2.24994 8.21086C2.24994 4.92401 4.92395 2.25 8.2108 2.25C11.4978 2.25 14.1717 4.92401 14.1717 8.21086C14.1717 11.4979 11.4978 14.1717 8.2108 14.1717C4.92395 14.1717 2.24994 11.4979 2.24994 8.21086ZM3.59068 8.21088C3.59068 10.7583 5.6634 12.831 8.2108 12.831C10.7582 12.831 12.8309 10.7583 12.8309 8.21086C12.8309 5.66346 10.7582 3.59074 8.2108 3.59074C5.6634 3.59074 3.59068 5.66348 3.59068 8.21088ZM2.38229 8.21086C2.38229 4.99711 4.99705 2.38235 8.2108 2.38235C11.4247 2.38235 14.0393 4.99711 14.0393 8.21086C14.0393 11.4248 11.4247 14.0394 8.2108 14.0394C4.99705 14.0394 2.38229 11.4248 2.38229 8.21086ZM3.45832 8.21088C3.45832 10.8314 5.5903 12.9634 8.2108 12.9634C10.8313 12.9634 12.9633 10.8313 12.9633 8.21086C12.9633 5.59036 10.8313 3.45838 8.2108 3.45838C5.5903 3.45838 3.45832 5.59039 3.45832 8.21088Z" fill="white"/>
<path d="M15.4599 14.6991L12.3753 11.6145C12.1651 11.4043 11.8247 11.4043 11.6146 11.6145C11.4044 11.8245 11.4044 12.1653 11.6146 12.3753L14.6992 15.4599C14.8043 15.565 14.9418 15.6175 15.0796 15.6175C15.2171 15.6175 15.3548 15.565 15.4599 15.4599C15.6701 15.2499 15.6701 14.9091 15.4599 14.6991Z" fill="white"/>
<path fill-rule="evenodd" clip-rule="evenodd" d="M12.4689 11.5209L15.5535 14.6055C15.8154 14.8672 15.8154 15.2918 15.5535 15.5535M12.4689 11.5209C12.207 11.2591 11.7829 11.2591 11.521 11.5209L12.4689 11.5209ZM11.521 11.5209C11.521 11.5209 11.521 11.5209 11.521 11.5209C11.2591 11.7826 11.2591 12.2072 11.521 12.4689C11.521 12.4689 11.521 12.4689 11.521 12.4689L14.6056 15.5535C14.7365 15.6844 14.9081 15.7499 15.0796 15.7499C15.2508 15.7499 15.4226 15.6844 15.5535 15.5535M12.3753 11.6145L15.4599 14.6991C15.6701 14.9091 15.6701 15.2499 15.4599 15.4599C15.3548 15.565 15.2171 15.6175 15.0796 15.6175C14.9418 15.6175 14.8043 15.565 14.6992 15.4599L11.6146 12.3753C11.4044 12.1653 11.4044 11.8245 11.6146 11.6145C11.8247 11.4043 12.1651 11.4043 12.3753 11.6145Z" fill="white"/>
</svg>
