<svg width="21" height="20" viewBox="0 0 21 20" fill="none" xmlns="http://www.w3.org/2000/svg">
<g clip-path="url(#clip0_2934_10851)">
<path d="M15.5002 4.99996H13.8335C13.8335 3.15829 12.3418 1.66663 10.5002 1.66663C8.6585 1.66663 7.16683 3.15829 7.16683 4.99996H5.50016C4.5835 4.99996 3.8335 5.74996 3.8335 6.66663V16.6666C3.8335 17.5833 4.5835 18.3333 5.50016 18.3333H15.5002C16.4168 18.3333 17.1668 17.5833 17.1668 16.6666V6.66663C17.1668 5.74996 16.4168 4.99996 15.5002 4.99996ZM10.5002 3.33329C11.4168 3.33329 12.1668 4.08329 12.1668 4.99996H8.8335C8.8335 4.08329 9.5835 3.33329 10.5002 3.33329ZM15.5002 16.6666H5.50016V6.66663H7.16683V8.33329C7.16683 8.79163 7.54183 9.16663 8.00016 9.16663C8.4585 9.16663 8.8335 8.79163 8.8335 8.33329V6.66663H12.1668V8.33329C12.1668 8.79163 12.5418 9.16663 13.0002 9.16663C13.4585 9.16663 13.8335 8.79163 13.8335 8.33329V6.66663H15.5002V16.6666Z" fill="#00FFF0"/>
</g>
<defs>
<clipPath id="clip0_2934_10851">
<rect width="20" height="20" fill="white" transform="translate(0.5)"/>
</clipPath>
</defs>
</svg>
