<svg width="18" height="14" viewBox="0 0 18 14" fill="none" xmlns="http://www.w3.org/2000/svg">
<path fill-rule="evenodd" clip-rule="evenodd" d="M2.914 1.92782C2.40404 2.40136 2.0625 3.16971 2.0625 4.375V9.625C2.0625 10.8303 2.40404 11.5986 2.914 12.0722C3.43152 12.5527 4.21123 12.8125 5.25 12.8125H12.75C13.7888 12.8125 14.5685 12.5527 15.086 12.0722C15.596 11.5986 15.9375 10.8303 15.9375 9.625V4.375C15.9375 3.16971 15.596 2.40136 15.086 1.92782C14.5685 1.44727 13.7888 1.1875 12.75 1.1875H5.25C4.21123 1.1875 3.43152 1.44727 2.914 1.92782ZM2.1485 1.10343C2.94348 0.365225 4.03877 0.0625 5.25 0.0625H12.75C13.9612 0.0625 15.0565 0.365225 15.8515 1.10343C16.654 1.84864 17.0625 2.95529 17.0625 4.375V9.625C17.0625 11.0447 16.654 12.1514 15.8515 12.8966C15.0565 13.6348 13.9612 13.9375 12.75 13.9375H5.25C4.03877 13.9375 2.94348 13.6348 2.1485 12.8966C1.34596 12.1514 0.9375 11.0447 0.9375 9.625V4.375C0.9375 2.95529 1.34596 1.84864 2.1485 1.10343Z" fill="white" fill-opacity="0.8"/>
<path fill-rule="evenodd" clip-rule="evenodd" d="M13.1895 4.39897C13.3834 4.64171 13.3438 4.99566 13.1011 5.18953L10.7529 7.06509C9.77532 7.84333 8.21721 7.84333 7.23967 7.06509L7.23828 7.06399L4.89829 5.18898C4.65585 4.99473 4.6168 4.64072 4.81106 4.39829C5.00531 4.15585 5.35932 4.1168 5.60175 4.31106L7.94101 6.18547C8.50848 6.63664 9.48462 6.63654 10.0519 6.18516C10.0518 6.18523 10.052 6.18509 10.0519 6.18516L12.399 4.31051C12.6417 4.11663 12.9957 4.15624 13.1895 4.39897Z" fill="white" fill-opacity="0.8"/>
</svg>
