<svg width="80" height="16" viewBox="0 0 80 16" fill="none" xmlns="http://www.w3.org/2000/svg">
<path d="M14.1394 6.45001L10.1722 5.87344L8.39878 2.27813C8.35035 2.17969 8.27066 2.10001 8.17222 2.05157C7.92535 1.92969 7.62535 2.03126 7.50191 2.27813L5.72847 5.87344L1.76128 6.45001C1.65191 6.46563 1.55191 6.51719 1.47535 6.59532C1.38279 6.69045 1.33178 6.81844 1.33354 6.95116C1.3353 7.08389 1.38967 7.21048 1.48472 7.30313L4.35503 10.1016L3.67691 14.0531C3.66101 14.1451 3.67118 14.2396 3.70627 14.326C3.74136 14.4125 3.79997 14.4873 3.87545 14.5422C3.95093 14.597 4.04026 14.6295 4.13331 14.6362C4.22637 14.6428 4.31941 14.6232 4.40191 14.5797L7.95035 12.7141L11.4988 14.5797C11.5957 14.6313 11.7082 14.6484 11.816 14.6297C12.0878 14.5828 12.2707 14.325 12.2238 14.0531L11.5457 10.1016L14.416 7.30313C14.4941 7.22657 14.5457 7.12657 14.5613 7.01719C14.6035 6.74375 14.4128 6.49063 14.1394 6.45001Z" fill="#FD7E14"/>
<path d="M30.1394 6.45001L26.1722 5.87344L24.3988 2.27813C24.3503 2.17969 24.2707 2.10001 24.1722 2.05157C23.9253 1.92969 23.6253 2.03126 23.5019 2.27813L21.7285 5.87344L17.7613 6.45001C17.6519 6.46563 17.5519 6.51719 17.4753 6.59532C17.3828 6.69045 17.3318 6.81844 17.3335 6.95116C17.3353 7.08389 17.3897 7.21048 17.4847 7.30313L20.355 10.1016L19.6769 14.0531C19.661 14.1451 19.6712 14.2396 19.7063 14.326C19.7414 14.4125 19.8 14.4873 19.8755 14.5422C19.9509 14.597 20.0403 14.6295 20.1333 14.6362C20.2264 14.6428 20.3194 14.6232 20.4019 14.5797L23.9503 12.7141L27.4988 14.5797C27.5957 14.6313 27.7082 14.6484 27.816 14.6297C28.0878 14.5828 28.2707 14.325 28.2238 14.0531L27.5457 10.1016L30.416 7.30313C30.4941 7.22657 30.5457 7.12657 30.5613 7.01719C30.6035 6.74375 30.4128 6.49063 30.1394 6.45001Z" fill="#FD7E14"/>
<path d="M46.1394 6.45001L42.1722 5.87344L40.3988 2.27813C40.3503 2.17969 40.2707 2.10001 40.1722 2.05157C39.9253 1.92969 39.6253 2.03126 39.5019 2.27813L37.7285 5.87344L33.7613 6.45001C33.6519 6.46563 33.5519 6.51719 33.4753 6.59532C33.3828 6.69045 33.3318 6.81844 33.3335 6.95116C33.3353 7.08389 33.3897 7.21048 33.4847 7.30313L36.355 10.1016L35.6769 14.0531C35.661 14.1451 35.6712 14.2396 35.7063 14.326C35.7414 14.4125 35.8 14.4873 35.8755 14.5422C35.9509 14.597 36.0403 14.6295 36.1333 14.6362C36.2264 14.6428 36.3194 14.6232 36.4019 14.5797L39.9503 12.7141L43.4988 14.5797C43.5957 14.6313 43.7082 14.6484 43.816 14.6297C44.0878 14.5828 44.2707 14.325 44.2238 14.0531L43.5457 10.1016L46.416 7.30313C46.4941 7.22657 46.5457 7.12657 46.5613 7.01719C46.6035 6.74375 46.4128 6.49063 46.1394 6.45001Z" fill="#FD7E14"/>
<path d="M62.1394 6.45001L58.1722 5.87344L56.3988 2.27813C56.3503 2.17969 56.2707 2.10001 56.1722 2.05157C55.9253 1.92969 55.6253 2.03126 55.5019 2.27813L53.7285 5.87344L49.7613 6.45001C49.6519 6.46563 49.5519 6.51719 49.4753 6.59532C49.3828 6.69045 49.3318 6.81844 49.3335 6.95116C49.3353 7.08389 49.3897 7.21048 49.4847 7.30313L52.355 10.1016L51.6769 14.0531C51.661 14.1451 51.6712 14.2396 51.7063 14.326C51.7414 14.4125 51.8 14.4873 51.8755 14.5422C51.9509 14.597 52.0403 14.6295 52.1333 14.6362C52.2264 14.6428 52.3194 14.6232 52.4019 14.5797L55.9503 12.7141L59.4988 14.5797C59.5957 14.6313 59.7082 14.6484 59.816 14.6297C60.0878 14.5828 60.2707 14.325 60.2238 14.0531L59.5457 10.1016L62.416 7.30313C62.4941 7.22657 62.5457 7.12657 62.5613 7.01719C62.6035 6.74375 62.4128 6.49063 62.1394 6.45001Z" fill="#FD7E14"/>
<path d="M78.1394 6.45001L74.1722 5.87344L72.3988 2.27813C72.3503 2.17969 72.2707 2.10001 72.1722 2.05157C71.9253 1.92969 71.6253 2.03126 71.5019 2.27813L69.7285 5.87344L65.7613 6.45001C65.6519 6.46563 65.5519 6.51719 65.4753 6.59532C65.3828 6.69045 65.3318 6.81844 65.3335 6.95116C65.3353 7.08389 65.3897 7.21048 65.4847 7.30313L68.355 10.1016L67.6769 14.0531C67.661 14.1451 67.6712 14.2396 67.7063 14.326C67.7414 14.4125 67.8 14.4873 67.8755 14.5422C67.9509 14.597 68.0403 14.6295 68.1333 14.6362C68.2264 14.6428 68.3194 14.6232 68.4019 14.5797L71.9503 12.7141L75.4988 14.5797C75.5957 14.6313 75.7082 14.6484 75.816 14.6297C76.0878 14.5828 76.2707 14.325 76.2238 14.0531L75.5457 10.1016L78.416 7.30313C78.4941 7.22657 78.5457 7.12657 78.5613 7.01719C78.6035 6.74376 78.4128 6.49063 78.1394 6.45001ZM74.3378 9.70782L74.9019 12.9938L71.9503 11.4438L68.9988 12.9953L69.5628 9.70938L67.1753 7.38126L70.4753 6.90157L71.9503 3.91251L73.4253 6.90157L76.7253 7.38126L74.3378 9.70782Z" fill="#FD7E14"/>
</svg>
