<svg width="20" height="17" viewBox="0 0 20 17" fill="none" xmlns="http://www.w3.org/2000/svg">
<path d="M7.85182 15.9841C7.27587 15.9841 7.37374 15.7667 7.1751 15.2183L5.48145 9.64427L18.5185 1.91006" fill="white"/>
<path d="M7.85181 15.9841C8.29625 15.9841 8.49262 15.7809 8.7407 15.5397L11.1111 13.2348L8.15433 11.4518" fill="white"/>
<path d="M8.15408 11.4523L15.3185 16.7455C16.1361 17.1966 16.7261 16.963 16.9298 15.9864L19.8461 2.24377C20.1447 1.0467 19.3898 0.503772 18.6077 0.858853L1.48321 7.46196C0.314305 7.93081 0.321119 8.58294 1.27014 8.87352L5.66466 10.2451L15.8384 3.8266C16.3187 3.53536 16.7595 3.69194 16.3977 4.01303" fill="white"/>
</svg>
