<svg width="20" height="20" viewBox="0 0 20 20" fill="none" xmlns="http://www.w3.org/2000/svg">
<path d="M17.2135 4.36851H13.2747V3.61981C13.2747 2.54286 12.3986 1.66669 11.3216 1.66669H9.04297C7.96602 1.66669 7.08984 2.54286 7.08984 3.61981V4.36851H3.15104C2.79147 4.36851 2.5 4.65998 2.5 5.01955C2.5 5.37912 2.79147 5.67059 3.15104 5.67059H3.82526L4.61869 15.9566C4.61891 15.9596 4.61917 15.9627 4.61943 15.9657C4.67855 16.6142 4.97601 17.2133 5.457 17.6524C5.93799 18.0915 6.56156 18.3334 7.21283 18.3334H13.1518C14.5081 18.3334 15.623 17.3232 15.7452 15.9836C15.7778 15.6255 15.514 15.3088 15.1559 15.2762C14.7975 15.2435 14.4811 15.5073 14.4484 15.8654C14.3879 16.5301 13.8304 17.0313 13.1518 17.0313H7.21283C6.53649 17.0313 5.97992 16.5244 5.9165 15.8515L5.13122 5.67059H15.2334L14.6773 12.8796C14.6497 13.2381 14.9179 13.5512 15.2764 13.5788C15.2934 13.5801 15.3103 13.5808 15.3271 13.5808C15.664 13.5808 15.9492 13.3212 15.9756 12.9798L16.5393 5.67059H17.2135C17.5731 5.67059 17.8646 5.37912 17.8646 5.01955C17.8646 4.65998 17.5731 4.36851 17.2135 4.36851ZM11.9727 4.36851H8.39193V3.61981C8.39193 3.26083 8.68398 2.96877 9.04297 2.96877H11.3216C11.6806 2.96877 11.9727 3.26083 11.9727 3.61981V4.36851Z" fill="white"/>
<path d="M7.2242 6.97332C6.86499 6.98901 6.5865 7.29292 6.60219 7.65216L6.92772 15.1044C6.94298 15.454 7.23117 15.7271 7.57765 15.7271C7.58722 15.7271 7.59689 15.7269 7.60656 15.7264C7.96577 15.7107 8.24425 15.4068 8.22856 15.0476L7.90304 7.5953C7.88735 7.23612 7.58286 6.95718 7.2242 6.97332Z" fill="white"/>
<path d="M12.4619 7.59529L12.1364 15.0476C12.1207 15.4068 12.3992 15.7107 12.7584 15.7264C12.768 15.7268 12.7777 15.7271 12.7873 15.7271C13.1337 15.7271 13.422 15.4539 13.4372 15.1044L13.7627 7.65216C13.7784 7.29294 13.4999 6.98901 13.1407 6.97332C12.7821 6.95727 12.4776 7.23608 12.4619 7.59529Z" fill="white"/>
<path d="M9.53125 7.6237V15.0759C9.53125 15.4355 9.82272 15.727 10.1823 15.727C10.5419 15.727 10.8333 15.4355 10.8333 15.0759V7.6237C10.8333 7.26413 10.5419 6.97266 10.1823 6.97266C9.82272 6.97266 9.53125 7.26413 9.53125 7.6237Z" fill="white"/>
<path fill-rule="evenodd" clip-rule="evenodd" d="M15.3352 11.8358C15.6986 11.8231 16.0035 12.1074 16.0161 12.4707C16.0271 12.786 15.9976 13.5472 15.9473 14.2813C15.9218 14.6541 15.8901 15.0322 15.8535 15.3575C15.8188 15.6671 15.775 15.9755 15.7163 16.1809C15.6164 16.5304 15.252 16.7329 14.9024 16.6329C14.5528 16.533 14.3504 16.1686 14.4503 15.819C14.475 15.7327 14.5096 15.5264 14.5451 15.2107C14.5788 14.9106 14.609 14.5528 14.6338 14.1913C14.6841 13.4569 14.7087 12.7567 14.7003 12.5167C14.6876 12.1533 14.9719 11.8485 15.3352 11.8358Z" fill="white"/>
</svg>
