<svg width="33" height="32" viewBox="0 0 33 32" fill="none" xmlns="http://www.w3.org/2000/svg">
<g clip-path="url(#clip0_151_10765)">
<path d="M16.5 32C25.3366 32 32.5 24.8366 32.5 16C32.5 7.16344 25.3366 0 16.5 0C7.66344 0 0.5 7.16344 0.5 16C0.5 24.8366 7.66344 32 16.5 32Z" fill="#2775CA"/>
<path d="M13.5667 27.0665C13.5667 27.4665 13.3 27.5999 12.9 27.5999C7.96667 25.9999 4.5 21.4665 4.5 16.1332C4.5 10.7999 7.96667 6.26652 12.9 4.66652C13.3 4.53319 13.5667 4.79985 13.5667 5.19985V6.13319C13.5667 6.39985 13.4333 6.66652 13.1667 6.79985C9.3 8.26652 6.63333 11.8665 6.63333 16.1332C6.63333 20.3999 9.43333 24.1332 13.1667 25.4665C13.4333 25.5999 13.5667 25.8665 13.5667 26.1332V27.0665Z" fill="white"/>
<path d="M17.5663 23.7338C17.5663 24.0005 17.2997 24.2671 17.033 24.2671H15.9663C15.6997 24.2671 15.433 24.0005 15.433 23.7338V22.1338C13.2997 21.8671 12.233 20.6671 11.833 18.9338C11.833 18.6671 11.9663 18.4005 12.233 18.4005H13.433C13.6997 18.4005 13.833 18.5338 13.9663 18.8005C14.233 19.7338 14.7663 20.5338 16.4997 20.5338C17.833 20.5338 18.7663 19.8671 18.7663 18.8005C18.7663 17.7338 18.233 17.3338 16.3663 17.0671C13.5663 16.6671 12.233 15.8671 12.233 13.6005C12.233 11.8671 13.5663 10.5338 15.433 10.2671V8.66712C15.433 8.40046 15.6997 8.13379 15.9663 8.13379H17.033C17.2997 8.13379 17.5663 8.40046 17.5663 8.66712V10.2671C19.1663 10.5338 20.233 11.4671 20.4997 12.9338C20.4997 13.2005 20.3663 13.4671 20.0997 13.4671H19.033C18.7663 13.4671 18.633 13.3338 18.4997 13.0671C18.233 12.1338 17.5663 11.7338 16.3663 11.7338C15.033 11.7338 14.3663 12.4005 14.3663 13.3338C14.3663 14.2671 14.7663 14.8005 16.7663 15.0671C19.5663 15.4671 20.8997 16.2671 20.8997 18.5338C20.8997 20.2671 19.5663 21.7338 17.5663 22.1338V23.7338Z" fill="white"/>
<path d="M20.0998 27.6003C19.6998 27.7337 19.4331 27.467 19.4331 27.067V26.1337C19.4331 25.867 19.5664 25.6003 19.8331 25.467C23.6998 24.0003 26.3664 20.4003 26.3664 16.1337C26.3664 11.867 23.5664 8.13366 19.8331 6.80033C19.5664 6.66699 19.4331 6.40033 19.4331 6.13366V5.20033C19.4331 4.80033 19.6998 4.66699 20.0998 4.66699C24.8998 6.26699 28.4998 10.8003 28.4998 16.1337C28.4998 21.467 25.0331 26.0003 20.0998 27.6003Z" fill="white"/>
</g>
<defs>
<clipPath id="clip0_151_10765">
<rect width="32" height="32" fill="white" transform="translate(0.5)"/>
</clipPath>
</defs>
</svg>
