<svg width="28" height="28" viewBox="0 0 28 28" fill="none" xmlns="http://www.w3.org/2000/svg">
<path d="M27.125 21.5296C27.125 22.3866 26.4303 23.0814 25.5733 23.0814H2.42667C1.5697 23.0814 0.875 22.3866 0.875 21.5296V6.53C0.875 5.67297 1.5697 4.97827 2.42667 4.97827H25.5733C26.4303 4.97827 27.125 5.67303 27.125 6.53V21.5296Z" fill="white"/>
<path d="M6.70092 14.1343L6.08456 11.1775C5.9792 10.7698 5.67261 10.6485 5.28952 10.6324H2.46365L2.43848 10.7675C4.63943 11.3011 6.09574 12.5883 6.70092 14.1343Z" fill="#F79F1A"/>
<path d="M13.2494 10.6918H11.4235L10.2832 17.3838H12.106L13.2494 10.6918Z" fill="#059BBF"/>
<path d="M7.81369 17.3774L10.6853 10.6967H8.7529L6.96652 15.2611L6.77584 14.5719C6.42567 13.7428 5.42489 12.5495 4.25 11.7983L5.88293 17.3797L7.81369 17.3774Z" fill="#059BBF"/>
<path d="M18.4567 15.1962C18.4635 14.4364 17.9757 13.8569 16.9244 13.3783C16.2856 13.0691 15.8962 12.863 15.9008 12.5493C15.9008 12.2721 16.2306 11.9744 16.9451 11.9744C17.543 11.9652 17.9734 12.0957 18.3101 12.2309L18.4751 12.3065L18.7225 10.8567C18.3606 10.7215 17.7948 10.5773 17.0873 10.5773C15.2848 10.5773 14.016 11.4843 14.0045 12.7851C13.993 13.7471 14.9116 14.283 15.6032 14.6036C16.3131 14.9304 16.5513 15.1395 16.5467 15.4327C16.5422 15.881 15.981 16.0854 15.4565 16.0854C14.7259 16.0854 14.3389 15.9846 13.7385 15.7345L13.5053 15.6274L13.249 17.127C13.6747 17.313 14.4625 17.4756 15.2802 17.4824C17.197 17.4824 18.443 16.5869 18.4567 15.1962Z" fill="#059BBF"/>
<path d="M20.6255 16.381C20.8339 16.381 22.6959 16.3833 22.9617 16.3833C23.0166 16.6163 23.1838 17.3863 23.1838 17.3863H24.8763L23.399 10.6989H21.9906C21.5531 10.6989 21.228 10.818 21.0355 11.253L18.3262 17.3863H20.2432C20.2431 17.3863 20.5545 16.562 20.6255 16.381ZM21.8759 13.1402C21.8669 13.1585 22.0272 12.7532 22.1188 12.5012L22.2424 13.0783C22.2424 13.0783 22.5906 14.677 22.6638 15.0114H21.1499C21.3011 14.6267 21.8759 13.1402 21.8759 13.1402Z" fill="#059BBF"/>
<path d="M25.5733 4.97827H2.42667C1.5697 4.97827 0.875 5.67297 0.875 6.53V8.14047H27.125V6.53C27.125 5.67297 26.4303 4.97827 25.5733 4.97827Z" fill="#059BBF"/>
<path d="M25.5733 23.0814H2.42667C1.5697 23.0814 0.875 22.3866 0.875 21.5297V19.9192H27.125V21.5297C27.125 22.3866 26.4303 23.0814 25.5733 23.0814Z" fill="#F79F1A"/>
</svg>
