<svg width="384" height="106" viewBox="0 0 384 106" fill="none" xmlns="http://www.w3.org/2000/svg">
<mask id="path-1-inside-1_665_21969" fill="white">
<path fill-rule="evenodd" clip-rule="evenodd" d="M84.0275 0H0V7C2.20914 7 4 8.79086 4 11C4 13.2091 2.20914 15 0 15V19C2.20914 19 4 20.7909 4 23C4 25.2091 2.20914 27 0 27V31C2.20914 31 4 32.7909 4 35C4 37.2091 2.20914 39 0 39V43C2.20914 43 4 44.7909 4 47C4 49.2091 2.20914 51 0 51V55C2.20914 55 4 56.7909 4 59C4 61.2091 2.20914 63 0 63V67C2.20914 67 4 68.7909 4 71C4 73.2091 2.20914 75 0 75V79C2.20914 79 4 80.7909 4 83C4 85.2091 2.20914 87 0 87V91C2.20914 91 4 92.7909 4 95C4 97.2091 2.20914 99 0 99V106H84.0275C84.2762 103.75 86.1837 102 88.5 102C90.8163 102 92.7238 103.75 92.9725 106H384V0H92.9725C92.7238 2.24998 90.8163 4 88.5 4C86.1837 4 84.2762 2.24998 84.0275 0Z"/>
</mask>
<path fill-rule="evenodd" clip-rule="evenodd" d="M84.0275 0H0V7C2.20914 7 4 8.79086 4 11C4 13.2091 2.20914 15 0 15V19C2.20914 19 4 20.7909 4 23C4 25.2091 2.20914 27 0 27V31C2.20914 31 4 32.7909 4 35C4 37.2091 2.20914 39 0 39V43C2.20914 43 4 44.7909 4 47C4 49.2091 2.20914 51 0 51V55C2.20914 55 4 56.7909 4 59C4 61.2091 2.20914 63 0 63V67C2.20914 67 4 68.7909 4 71C4 73.2091 2.20914 75 0 75V79C2.20914 79 4 80.7909 4 83C4 85.2091 2.20914 87 0 87V91C2.20914 91 4 92.7909 4 95C4 97.2091 2.20914 99 0 99V106H84.0275C84.2762 103.75 86.1837 102 88.5 102C90.8163 102 92.7238 103.75 92.9725 106H384V0H92.9725C92.7238 2.24998 90.8163 4 88.5 4C86.1837 4 84.2762 2.24998 84.0275 0Z" fill="#00FFF0" fill-opacity="0.08"/>
<path d="M84.0275 0L85.0214 -0.109873L84.923 -1H84.0275V0ZM0 0V-1H-1V0H0ZM0 7H-1V8H0V7ZM0 15V14H-1V15H0ZM0 19H-1V20H0V19ZM0 27V26H-1V27H0ZM0 31H-1V32H0V31ZM0 39V38H-1V39H0ZM0 43H-1V44H0V43ZM0 51V50H-1V51H0ZM0 55H-1V56H0V55ZM0 63V62H-1V63H0ZM0 67H-1V68H0V67ZM0 75V74H-1V75H0ZM0 79H-1V80H0V79ZM0 87V86H-1V87H0ZM0 91H-1V92H0V91ZM0 99V98H-1V99H0ZM0 106H-1V107H0V106ZM84.0275 106V107H84.923L85.0214 106.11L84.0275 106ZM92.9725 106L91.9786 106.11L92.077 107H92.9725V106ZM384 106V107H385V106H384ZM384 0H385V-1H384V0ZM92.9725 0V-1H92.077L91.9786 -0.109873L92.9725 0ZM84.0275 -1H0V1H84.0275V-1ZM-1 0V7H1V0H-1ZM0 8C1.65685 8 3 9.34315 3 11H5C5 8.23858 2.76142 6 0 6V8ZM3 11C3 12.6569 1.65685 14 0 14V16C2.76142 16 5 13.7614 5 11H3ZM-1 15V19H1V15H-1ZM0 20C1.65685 20 3 21.3431 3 23H5C5 20.2386 2.76142 18 0 18V20ZM3 23C3 24.6569 1.65685 26 0 26V28C2.76142 28 5 25.7614 5 23H3ZM-1 27V31H1V27H-1ZM0 32C1.65685 32 3 33.3431 3 35H5C5 32.2386 2.76142 30 0 30V32ZM3 35C3 36.6569 1.65685 38 0 38V40C2.76142 40 5 37.7614 5 35H3ZM-1 39V43H1V39H-1ZM0 44C1.65685 44 3 45.3431 3 47H5C5 44.2386 2.76142 42 0 42V44ZM3 47C3 48.6569 1.65685 50 0 50V52C2.76142 52 5 49.7614 5 47H3ZM-1 51V55H1V51H-1ZM0 56C1.65685 56 3 57.3431 3 59H5C5 56.2386 2.76142 54 0 54V56ZM3 59C3 60.6569 1.65685 62 0 62V64C2.76142 64 5 61.7614 5 59H3ZM-1 63V67H1V63H-1ZM0 68C1.65685 68 3 69.3431 3 71H5C5 68.2386 2.76142 66 0 66V68ZM3 71C3 72.6569 1.65685 74 0 74V76C2.76142 76 5 73.7614 5 71H3ZM-1 75V79H1V75H-1ZM0 80C1.65685 80 3 81.3431 3 83H5C5 80.2386 2.76142 78 0 78V80ZM3 83C3 84.6569 1.65685 86 0 86V88C2.76142 88 5 85.7614 5 83H3ZM-1 87V91H1V87H-1ZM0 92C1.65685 92 3 93.3431 3 95H5C5 92.2386 2.76142 90 0 90V92ZM3 95C3 96.6569 1.65685 98 0 98V100C2.76142 100 5 97.7614 5 95H3ZM-1 99V106H1V99H-1ZM0 107H84.0275V105H0V107ZM85.0214 106.11C85.2147 104.361 86.6991 103 88.5 103V101C85.6683 101 83.3376 103.139 83.0335 105.89L85.0214 106.11ZM88.5 103C90.3009 103 91.7853 104.361 91.9786 106.11L93.9665 105.89C93.6624 103.139 91.3317 101 88.5 101V103ZM92.9725 107H384V105H92.9725V107ZM385 106V0H383V106H385ZM384 -1H92.9725V1H384V-1ZM91.9786 -0.109873C91.7853 1.63904 90.3009 3 88.5 3V5C91.3317 5 93.6624 2.86091 93.9665 0.109873L91.9786 -0.109873ZM88.5 3C86.6991 3 85.2147 1.63904 85.0214 -0.109873L83.0335 0.109873C83.3376 2.86091 85.6683 5 88.5 5V3Z" fill="#00FFF0" fill-opacity="0.4" mask="url(#path-1-inside-1_665_21969)"/>
<line x1="88.5" y1="6.5" x2="88.5" y2="99.5" stroke="#00FFF0" stroke-opacity="0.4" stroke-linecap="round" stroke-dasharray="2 4"/>
<path d="M21.756 42.098C21.1027 42.098 20.5147 41.986 19.992 41.762C19.4693 41.5287 19.0587 41.202 18.76 40.782C18.4613 40.362 18.312 39.872 18.312 39.312H20.02C20.0573 39.732 20.2207 40.0773 20.51 40.348C20.8087 40.6187 21.224 40.754 21.756 40.754C22.3067 40.754 22.736 40.6233 23.044 40.362C23.352 40.0913 23.506 39.746 23.506 39.326C23.506 38.9993 23.408 38.7333 23.212 38.528C23.0253 38.3227 22.7873 38.164 22.498 38.052C22.218 37.94 21.826 37.8187 21.322 37.688C20.6873 37.52 20.1693 37.352 19.768 37.184C19.376 37.0067 19.04 36.736 18.76 36.372C18.48 36.008 18.34 35.5227 18.34 34.916C18.34 34.356 18.48 33.866 18.76 33.446C19.04 33.026 19.432 32.704 19.936 32.48C20.44 32.256 21.0233 32.144 21.686 32.144C22.6287 32.144 23.3987 32.382 23.996 32.858C24.6027 33.3247 24.9387 33.9687 25.004 34.79H23.24C23.212 34.4353 23.044 34.132 22.736 33.88C22.428 33.628 22.022 33.502 21.518 33.502C21.0607 33.502 20.6873 33.6187 20.398 33.852C20.1087 34.0853 19.964 34.4213 19.964 34.86C19.964 35.1587 20.0527 35.406 20.23 35.602C20.4167 35.7887 20.65 35.938 20.93 36.05C21.21 36.162 21.5927 36.2833 22.078 36.414C22.722 36.5913 23.2447 36.7687 23.646 36.946C24.0567 37.1233 24.402 37.3987 24.682 37.772C24.9713 38.136 25.116 38.626 25.116 39.242C25.116 39.7367 24.9807 40.2033 24.71 40.642C24.4487 41.0807 24.0613 41.4353 23.548 41.706C23.044 41.9673 22.4467 42.098 21.756 42.098ZM26.4672 38.108C26.4672 37.3333 26.6259 36.6473 26.9432 36.05C27.2699 35.4527 27.7086 34.9907 28.2592 34.664C28.8192 34.328 29.4352 34.16 30.1072 34.16C30.7139 34.16 31.2412 34.2813 31.6892 34.524C32.1466 34.7573 32.5106 35.0513 32.7812 35.406V34.286H34.3912V42H32.7812V40.852C32.5106 41.216 32.1419 41.5193 31.6752 41.762C31.2086 42.0047 30.6766 42.126 30.0792 42.126C29.4166 42.126 28.8099 41.958 28.2592 41.622C27.7086 41.2767 27.2699 40.8007 26.9432 40.194C26.6259 39.578 26.4672 38.8827 26.4672 38.108ZM32.7812 38.136C32.7812 37.604 32.6692 37.142 32.4452 36.75C32.2306 36.358 31.9459 36.0593 31.5912 35.854C31.2366 35.6487 30.8539 35.546 30.4432 35.546C30.0326 35.546 29.6499 35.6487 29.2952 35.854C28.9406 36.05 28.6512 36.344 28.4272 36.736C28.2126 37.1187 28.1052 37.576 28.1052 38.108C28.1052 38.64 28.2126 39.1067 28.4272 39.508C28.6512 39.9093 28.9406 40.2173 29.2952 40.432C29.6592 40.6373 30.0419 40.74 30.4432 40.74C30.8539 40.74 31.2366 40.6373 31.5912 40.432C31.9459 40.2267 32.2306 39.928 32.4452 39.536C32.6692 39.1347 32.7812 38.668 32.7812 38.136ZM38.0835 31.64V42H36.4875V31.64H38.0835ZM47.2489 37.954C47.2489 38.2433 47.2302 38.5047 47.1929 38.738H41.2989C41.3456 39.354 41.5742 39.8487 41.9849 40.222C42.3956 40.5953 42.8996 40.782 43.4969 40.782C44.3556 40.782 44.9622 40.4227 45.3169 39.704H47.0389C46.8056 40.4133 46.3809 40.9967 45.7649 41.454C45.1582 41.902 44.4022 42.126 43.4969 42.126C42.7596 42.126 42.0969 41.9627 41.5089 41.636C40.9302 41.3 40.4729 40.8333 40.1369 40.236C39.8102 39.6293 39.6469 38.9293 39.6469 38.136C39.6469 37.3427 39.8056 36.6473 40.1229 36.05C40.4496 35.4433 40.9022 34.9767 41.4809 34.65C42.0689 34.3233 42.7409 34.16 43.4969 34.16C44.2249 34.16 44.8736 34.3187 45.4429 34.636C46.0122 34.9533 46.4556 35.4013 46.7729 35.98C47.0902 36.5493 47.2489 37.2073 47.2489 37.954ZM45.5829 37.45C45.5736 36.862 45.3636 36.3907 44.9529 36.036C44.5422 35.6813 44.0336 35.504 43.4269 35.504C42.8762 35.504 42.4049 35.6813 42.0129 36.036C41.6209 36.3813 41.3876 36.8527 41.3129 37.45H45.5829ZM55.8023 42.126C55.0743 42.126 54.4163 41.9627 53.8283 41.636C53.2403 41.3 52.7783 40.8333 52.4423 40.236C52.1063 39.6293 51.9383 38.9293 51.9383 38.136C51.9383 37.352 52.1109 36.6567 52.4563 36.05C52.8016 35.4433 53.2729 34.9767 53.8703 34.65C54.4676 34.3233 55.1349 34.16 55.8723 34.16C56.6096 34.16 57.2769 34.3233 57.8743 34.65C58.4716 34.9767 58.9429 35.4433 59.2883 36.05C59.6336 36.6567 59.8063 37.352 59.8063 38.136C59.8063 38.92 59.6289 39.6153 59.2743 40.222C58.9196 40.8287 58.4343 41.3 57.8183 41.636C57.2116 41.9627 56.5396 42.126 55.8023 42.126ZM55.8023 40.74C56.2129 40.74 56.5956 40.642 56.9503 40.446C57.3143 40.25 57.6083 39.956 57.8323 39.564C58.0563 39.172 58.1683 38.696 58.1683 38.136C58.1683 37.576 58.0609 37.1047 57.8463 36.722C57.6316 36.33 57.3469 36.036 56.9923 35.84C56.6376 35.644 56.2549 35.546 55.8443 35.546C55.4336 35.546 55.0509 35.644 54.6963 35.84C54.3509 36.036 54.0756 36.33 53.8703 36.722C53.6649 37.1047 53.5623 37.576 53.5623 38.136C53.5623 38.9667 53.7723 39.6107 54.1923 40.068C54.6216 40.516 55.1583 40.74 55.8023 40.74ZM64.618 35.588H63.19V42H61.58V35.588H60.67V34.286H61.58V33.74C61.58 32.8533 61.8133 32.2093 62.28 31.808C62.756 31.3973 63.498 31.192 64.506 31.192V32.522C64.0207 32.522 63.68 32.6153 63.484 32.802C63.288 32.9793 63.19 33.292 63.19 33.74V34.286H64.618V35.588ZM69.2664 35.588H67.8384V42H66.2284V35.588H65.3184V34.286H66.2284V33.74C66.2284 32.8533 66.4618 32.2093 66.9284 31.808C67.4044 31.3973 68.1464 31.192 69.1544 31.192V32.522C68.6691 32.522 68.3284 32.6153 68.1324 32.802C67.9364 32.9793 67.8384 33.292 67.8384 33.74V34.286H69.2664V35.588Z" fill="#00FFF0"/>
<path d="M26.3411 60V57.42H31.1611V72H28.2811V60H26.3411ZM33.9272 64.52C33.9272 62.2133 34.3405 60.4067 35.1672 59.1C36.0072 57.7933 37.3939 57.14 39.3272 57.14C41.2605 57.14 42.6405 57.7933 43.4672 59.1C44.3072 60.4067 44.7272 62.2133 44.7272 64.52C44.7272 66.84 44.3072 68.66 43.4672 69.98C42.6405 71.3 41.2605 71.96 39.3272 71.96C37.3939 71.96 36.0072 71.3 35.1672 69.98C34.3405 68.66 33.9272 66.84 33.9272 64.52ZM41.9672 64.52C41.9672 63.5333 41.9005 62.7067 41.7672 62.04C41.6472 61.36 41.3939 60.8067 41.0072 60.38C40.6339 59.9533 40.0739 59.74 39.3272 59.74C38.5805 59.74 38.0139 59.9533 37.6272 60.38C37.2539 60.8067 37.0005 61.36 36.8672 62.04C36.7472 62.7067 36.6872 63.5333 36.6872 64.52C36.6872 65.5333 36.7472 66.3867 36.8672 67.08C36.9872 67.76 37.2405 68.3133 37.6272 68.74C38.0139 69.1533 38.5805 69.36 39.3272 69.36C40.0739 69.36 40.6405 69.1533 41.0272 68.74C41.4139 68.3133 41.6672 67.76 41.7872 67.08C41.9072 66.3867 41.9672 65.5333 41.9672 64.52ZM46.5369 61C46.5369 59.9867 46.8302 59.1933 47.4169 58.62C48.0169 58.0467 48.7835 57.76 49.7169 57.76C50.6502 57.76 51.4102 58.0467 51.9969 58.62C52.5969 59.1933 52.8969 59.9867 52.8969 61C52.8969 62.0267 52.5969 62.8267 51.9969 63.4C51.4102 63.9733 50.6502 64.26 49.7169 64.26C48.7835 64.26 48.0169 63.9733 47.4169 63.4C46.8302 62.8267 46.5369 62.0267 46.5369 61ZM59.3769 58L51.5169 72H48.7969L56.6369 58H59.3769ZM49.6969 59.44C48.9635 59.44 48.5969 59.96 48.5969 61C48.5969 62.0533 48.9635 62.58 49.6969 62.58C50.0569 62.58 50.3369 62.4533 50.5369 62.2C50.7369 61.9333 50.8369 61.5333 50.8369 61C50.8369 59.96 50.4569 59.44 49.6969 59.44ZM55.3169 68.98C55.3169 67.9533 55.6102 67.16 56.1969 66.6C56.7969 66.0267 57.5635 65.74 58.4969 65.74C59.4302 65.74 60.1835 66.0267 60.7569 66.6C61.3435 67.16 61.6369 67.9533 61.6369 68.98C61.6369 70.0067 61.3435 70.8067 60.7569 71.38C60.1835 71.9533 59.4302 72.24 58.4969 72.24C57.5502 72.24 56.7835 71.9533 56.1969 71.38C55.6102 70.8067 55.3169 70.0067 55.3169 68.98ZM58.4769 67.42C57.7169 67.42 57.3369 67.94 57.3369 68.98C57.3369 70.0333 57.7169 70.56 58.4769 70.56C59.2235 70.56 59.5969 70.0333 59.5969 68.98C59.5969 67.94 59.2235 67.42 58.4769 67.42Z" fill="#00FFF0"/>
<rect x="104" y="16" width="152" height="26" rx="13" fill="#00FFF0"/>
<path d="M122.707 27.0597C122.636 26.8295 122.538 26.6236 122.413 26.4418C122.291 26.2571 122.143 26.0994 121.97 25.9688C121.8 25.8381 121.604 25.7401 121.382 25.6747C121.161 25.6065 120.919 25.5724 120.658 25.5724C120.189 25.5724 119.771 25.6903 119.405 25.9261C119.038 26.1619 118.75 26.5085 118.54 26.9659C118.332 27.4205 118.229 27.9744 118.229 28.6278C118.229 29.2869 118.332 29.8452 118.54 30.3026C118.747 30.7599 119.036 31.108 119.405 31.3466C119.774 31.5824 120.203 31.7003 120.692 31.7003C121.135 31.7003 121.518 31.6151 121.842 31.4446C122.169 31.2741 122.42 31.0327 122.597 30.7202C122.773 30.4048 122.861 30.0355 122.861 29.6122L123.219 29.6676H120.849V28.4318H124.391V29.4801C124.391 30.2273 124.232 30.8736 123.913 31.419C123.595 31.9645 123.158 32.3849 122.601 32.6804C122.044 32.973 121.405 33.1193 120.683 33.1193C119.879 33.1193 119.173 32.9389 118.565 32.5781C117.96 32.2145 117.487 31.6989 117.146 31.0312C116.808 30.3608 116.639 29.5653 116.639 28.6449C116.639 27.9403 116.739 27.3111 116.938 26.7571C117.139 26.2031 117.42 25.733 117.781 25.3466C118.142 24.9574 118.565 24.6619 119.051 24.4602C119.537 24.2557 120.065 24.1534 120.636 24.1534C121.119 24.1534 121.57 24.2244 121.987 24.3665C122.405 24.5057 122.776 24.7045 123.099 24.9631C123.426 25.2216 123.695 25.5284 123.905 25.8835C124.115 26.2386 124.253 26.6307 124.318 27.0597H122.707ZM127.5 24.2727V33H125.919V24.2727H127.5ZM130.333 33H128.646L131.718 24.2727H133.67L136.746 33H135.059L132.728 26.0625H132.66L130.333 33ZM130.388 29.5781H134.991V30.848H130.388V29.5781ZM137.896 24.2727H139.831L142.422 30.5966H142.524L145.115 24.2727H147.049V33H145.532V27.0043H145.451L143.039 32.9744H141.906L139.494 26.9915H139.413V33H137.896V24.2727ZM148.528 31.3807V30.1236L152.231 24.2727H153.279V26.0625H152.64L150.147 30.0128V30.081H155.316V31.3807H148.528ZM152.691 33V30.9972L152.708 30.4347V24.2727H154.2V33H152.691ZM159.712 33.1193C159.144 33.1193 158.635 33.0128 158.186 32.7997C157.738 32.5838 157.381 32.2884 157.117 31.9134C156.855 31.5384 156.716 31.1094 156.699 30.6264H158.233C158.262 30.9844 158.417 31.277 158.698 31.5043C158.979 31.7287 159.317 31.8409 159.712 31.8409C160.022 31.8409 160.297 31.7699 160.539 31.6278C160.78 31.4858 160.971 31.2884 161.11 31.0355C161.249 30.7827 161.317 30.4943 161.314 30.1705C161.317 29.8409 161.248 29.5483 161.105 29.2926C160.963 29.0369 160.769 28.8366 160.522 28.6918C160.275 28.544 159.99 28.4702 159.669 28.4702C159.408 28.4673 159.151 28.5156 158.898 28.6151C158.645 28.7145 158.445 28.8452 158.297 29.0071L156.87 28.7727L157.326 24.2727H162.388V25.5938H158.634L158.382 27.9077H158.434C158.596 27.7173 158.824 27.5597 159.12 27.4347C159.415 27.3068 159.739 27.2429 160.091 27.2429C160.62 27.2429 161.091 27.3679 161.506 27.6179C161.921 27.8651 162.248 28.206 162.486 28.6406C162.725 29.0753 162.844 29.5724 162.844 30.1321C162.844 30.7088 162.711 31.223 162.444 31.6747C162.179 32.1236 161.811 32.4773 161.34 32.7358C160.871 32.9915 160.328 33.1193 159.712 33.1193ZM164.357 33V24.2727H165.938V28.2827H166.044L169.449 24.2727H171.38L168.005 28.1889L171.409 33H169.509L166.905 29.2585L165.938 30.4006V33H164.357ZM172.478 33V24.2727H174.059V28.2827H174.165L177.57 24.2727H179.501L176.126 28.1889L179.531 33H177.63L175.026 29.2585L174.059 30.4006V33H172.478ZM180.599 33V24.2727H182.18V27.9673H186.224V24.2727H187.809V33H186.224V29.2926H182.18V33H180.599ZM191.11 24.2727V33H189.529V24.2727H191.11ZM192.822 24.2727H194.756L197.347 30.5966H197.45L200.04 24.2727H201.975V33H200.458V27.0043H200.377L197.965 32.9744H196.832L194.42 26.9915H194.339V33H192.822V24.2727ZM209.198 24.2727H210.779V29.9744C210.779 30.5994 210.631 31.1491 210.336 31.6236C210.043 32.098 209.631 32.4687 209.1 32.7358C208.569 33 207.948 33.1321 207.238 33.1321C206.525 33.1321 205.903 33 205.371 32.7358C204.84 32.4687 204.428 32.098 204.136 31.6236C203.843 31.1491 203.697 30.5994 203.697 29.9744V24.2727H205.278V29.8423C205.278 30.206 205.357 30.5298 205.516 30.8139C205.678 31.098 205.906 31.321 206.198 31.483C206.491 31.642 206.837 31.7216 207.238 31.7216C207.638 31.7216 207.985 31.642 208.278 31.483C208.573 31.321 208.8 31.098 208.96 30.8139C209.119 30.5298 209.198 30.206 209.198 29.8423V24.2727ZM213.618 33H211.931L215.003 24.2727H216.955L220.032 33H218.344L216.013 26.0625H215.945L213.618 33ZM213.674 29.5781H218.276V30.848H213.674V29.5781ZM224.228 33.1193C223.614 33.1193 223.069 33.0142 222.592 32.804C222.117 32.5937 221.742 32.3011 221.467 31.9261C221.191 31.5511 221.045 31.1179 221.028 30.6264H222.63C222.644 30.8622 222.722 31.0682 222.864 31.2443C223.006 31.4176 223.195 31.5526 223.431 31.6491C223.667 31.7457 223.931 31.794 224.224 31.794C224.536 31.794 224.813 31.7401 225.055 31.6321C225.296 31.5213 225.485 31.3679 225.621 31.1719C225.758 30.9759 225.825 30.75 225.822 30.4943C225.825 30.2301 225.756 29.9972 225.617 29.7955C225.478 29.5937 225.276 29.4361 225.012 29.3224C224.751 29.2088 224.435 29.152 224.066 29.152H223.295V27.9332H224.066C224.37 27.9332 224.636 27.8807 224.863 27.7756C225.093 27.6705 225.273 27.5227 225.404 27.3324C225.535 27.1392 225.599 26.9162 225.596 26.6634C225.599 26.4162 225.543 26.2017 225.43 26.0199C225.319 25.8352 225.161 25.6918 224.957 25.5895C224.755 25.4872 224.518 25.4361 224.245 25.4361C223.978 25.4361 223.731 25.4844 223.504 25.581C223.276 25.6776 223.093 25.8153 222.954 25.9943C222.815 26.1705 222.741 26.3807 222.732 26.625H221.211C221.222 26.1364 221.363 25.7074 221.633 25.3381C221.906 24.9659 222.269 24.6761 222.724 24.4688C223.178 24.2585 223.688 24.1534 224.254 24.1534C224.836 24.1534 225.342 24.2628 225.771 24.4815C226.202 24.6974 226.536 24.9886 226.772 25.3551C227.008 25.7216 227.126 26.1264 227.126 26.5696C227.129 27.0611 226.984 27.473 226.691 27.8054C226.401 28.1378 226.021 28.3551 225.549 28.4574V28.5256C226.163 28.6108 226.633 28.8381 226.96 29.2074C227.289 29.5739 227.452 30.0298 227.45 30.5753C227.45 31.0639 227.31 31.5014 227.032 31.8878C226.756 32.2713 226.376 32.5724 225.89 32.7912C225.407 33.0099 224.853 33.1193 224.228 33.1193ZM233.74 26.6719C233.701 26.2997 233.533 26.0099 233.238 25.8026C232.945 25.5952 232.564 25.4915 232.096 25.4915C231.766 25.4915 231.483 25.5412 231.248 25.6406C231.012 25.7401 230.831 25.875 230.706 26.0455C230.581 26.2159 230.517 26.4105 230.515 26.6293C230.515 26.8111 230.556 26.9687 230.638 27.1023C230.723 27.2358 230.838 27.3494 230.983 27.4432C231.128 27.5341 231.289 27.6108 231.465 27.6733C231.641 27.7358 231.819 27.7884 231.998 27.831L232.816 28.0355C233.145 28.1122 233.462 28.2159 233.766 28.3466C234.073 28.4773 234.347 28.642 234.588 28.8409C234.833 29.0398 235.026 29.2798 235.168 29.5611C235.31 29.8423 235.381 30.1719 235.381 30.5497C235.381 31.0611 235.25 31.5114 234.989 31.9006C234.728 32.2869 234.35 32.5895 233.855 32.8082C233.364 33.0241 232.769 33.1321 232.07 33.1321C231.391 33.1321 230.801 33.027 230.301 32.8168C229.804 32.6065 229.415 32.2997 229.134 31.8963C228.855 31.4929 228.705 31.0014 228.682 30.4219H230.238C230.26 30.7259 230.354 30.9787 230.519 31.1804C230.684 31.3821 230.898 31.5327 231.162 31.6321C231.429 31.7315 231.728 31.7812 232.057 31.7812C232.401 31.7812 232.702 31.7301 232.961 31.6278C233.222 31.5227 233.426 31.3778 233.574 31.1932C233.722 31.0057 233.797 30.7869 233.8 30.5369C233.797 30.3097 233.73 30.1222 233.6 29.9744C233.469 29.8239 233.286 29.6989 233.05 29.5994C232.817 29.4972 232.544 29.4062 232.232 29.3267L231.239 29.071C230.52 28.8864 229.952 28.6065 229.534 28.2315C229.12 27.8537 228.912 27.3523 228.912 26.7273C228.912 26.2131 229.051 25.7628 229.33 25.3764C229.611 24.9901 229.993 24.6903 230.476 24.4773C230.959 24.2614 231.506 24.1534 232.117 24.1534C232.736 24.1534 233.279 24.2614 233.745 24.4773C234.213 24.6903 234.581 24.9872 234.848 25.3679C235.115 25.7457 235.253 26.1804 235.262 26.6719H233.74ZM236.79 33V24.2727H240.063C240.734 24.2727 241.296 24.3977 241.751 24.6477C242.208 24.8977 242.553 25.2415 242.786 25.679C243.022 26.1136 243.14 26.608 243.14 27.1619C243.14 27.7216 243.022 28.2187 242.786 28.6534C242.55 29.0881 242.202 29.4304 241.742 29.6804C241.282 29.9276 240.715 30.0511 240.042 30.0511H237.873V28.7514H239.829C240.221 28.7514 240.542 28.6832 240.792 28.5469C241.042 28.4105 241.227 28.223 241.346 27.9844C241.468 27.7457 241.529 27.4716 241.529 27.1619C241.529 26.8523 241.468 26.5795 241.346 26.3438C241.227 26.108 241.04 25.9247 240.788 25.794C240.538 25.6605 240.215 25.5938 239.82 25.5938H238.371V33H236.79Z" fill="#202121"/>
<path d="M264.516 28.812C264.516 27.996 264.7 27.264 265.068 26.616C265.436 25.96 265.936 25.448 266.568 25.08C267.208 24.712 267.916 24.528 268.692 24.528C269.604 24.528 270.4 24.748 271.08 25.188C271.76 25.628 272.256 26.252 272.568 27.06H271.26C271.028 26.556 270.692 26.168 270.252 25.896C269.82 25.624 269.3 25.488 268.692 25.488C268.108 25.488 267.584 25.624 267.12 25.896C266.656 26.168 266.292 26.556 266.028 27.06C265.764 27.556 265.632 28.14 265.632 28.812C265.632 29.476 265.764 30.06 266.028 30.564C266.292 31.06 266.656 31.444 267.12 31.716C267.584 31.988 268.108 32.124 268.692 32.124C269.3 32.124 269.82 31.992 270.252 31.728C270.692 31.456 271.028 31.068 271.26 30.564H272.568C272.256 31.364 271.76 31.984 271.08 32.424C270.4 32.856 269.604 33.072 268.692 33.072C267.916 33.072 267.208 32.892 266.568 32.532C265.936 32.164 265.436 31.656 265.068 31.008C264.7 30.36 264.516 29.628 264.516 28.812ZM277.062 33.108C276.446 33.108 275.886 32.968 275.382 32.688C274.886 32.408 274.494 32.012 274.206 31.5C273.926 30.98 273.786 30.38 273.786 29.7C273.786 29.028 273.93 28.436 274.218 27.924C274.514 27.404 274.914 27.008 275.418 26.736C275.922 26.456 276.486 26.316 277.11 26.316C277.734 26.316 278.298 26.456 278.802 26.736C279.306 27.008 279.702 27.4 279.99 27.912C280.286 28.424 280.434 29.02 280.434 29.7C280.434 30.38 280.282 30.98 279.978 31.5C279.682 32.012 279.278 32.408 278.766 32.688C278.254 32.968 277.686 33.108 277.062 33.108ZM277.062 32.148C277.454 32.148 277.822 32.056 278.166 31.872C278.51 31.688 278.786 31.412 278.994 31.044C279.21 30.676 279.318 30.228 279.318 29.7C279.318 29.172 279.214 28.724 279.006 28.356C278.798 27.988 278.526 27.716 278.19 27.54C277.854 27.356 277.49 27.264 277.098 27.264C276.698 27.264 276.33 27.356 275.994 27.54C275.666 27.716 275.402 27.988 275.202 28.356C275.002 28.724 274.902 29.172 274.902 29.7C274.902 30.236 274.998 30.688 275.19 31.056C275.39 31.424 275.654 31.7 275.982 31.884C276.31 32.06 276.67 32.148 277.062 32.148ZM282.961 27.636C283.177 27.26 283.497 26.948 283.921 26.7C284.353 26.444 284.853 26.316 285.421 26.316C286.005 26.316 286.533 26.456 287.005 26.736C287.485 27.016 287.861 27.412 288.133 27.924C288.405 28.428 288.541 29.016 288.541 29.688C288.541 30.352 288.405 30.944 288.133 31.464C287.861 31.984 287.485 32.388 287.005 32.676C286.533 32.964 286.005 33.108 285.421 33.108C284.861 33.108 284.365 32.984 283.933 32.736C283.509 32.48 283.185 32.164 282.961 31.788V36.12H281.869V26.424H282.961V27.636ZM287.425 29.688C287.425 29.192 287.325 28.76 287.125 28.392C286.925 28.024 286.653 27.744 286.309 27.552C285.973 27.36 285.601 27.264 285.193 27.264C284.793 27.264 284.421 27.364 284.077 27.564C283.741 27.756 283.469 28.04 283.261 28.416C283.061 28.784 282.961 29.212 282.961 29.7C282.961 30.196 283.061 30.632 283.261 31.008C283.469 31.376 283.741 31.66 284.077 31.86C284.421 32.052 284.793 32.148 285.193 32.148C285.601 32.148 285.973 32.052 286.309 31.86C286.653 31.66 286.925 31.376 287.125 31.008C287.325 30.632 287.425 30.192 287.425 29.688ZM295.643 26.424L291.683 36.096H290.555L291.851 32.928L289.199 26.424H290.411L292.475 31.752L294.515 26.424H295.643ZM299.532 29.7C299.532 29.02 299.668 28.428 299.94 27.924C300.212 27.412 300.588 27.016 301.068 26.736C301.556 26.456 302.112 26.316 302.736 26.316C303.544 26.316 304.208 26.512 304.728 26.904C305.256 27.296 305.604 27.84 305.772 28.536H304.596C304.484 28.136 304.264 27.82 303.936 27.588C303.616 27.356 303.216 27.24 302.736 27.24C302.112 27.24 301.608 27.456 301.224 27.888C300.84 28.312 300.648 28.916 300.648 29.7C300.648 30.492 300.84 31.104 301.224 31.536C301.608 31.968 302.112 32.184 302.736 32.184C303.216 32.184 303.616 32.072 303.936 31.848C304.256 31.624 304.476 31.304 304.596 30.888H305.772C305.596 31.56 305.244 32.1 304.716 32.508C304.188 32.908 303.528 33.108 302.736 33.108C302.112 33.108 301.556 32.968 301.068 32.688C300.588 32.408 300.212 32.012 299.94 31.5C299.668 30.988 299.532 30.388 299.532 29.7ZM310.097 33.108C309.481 33.108 308.921 32.968 308.417 32.688C307.921 32.408 307.529 32.012 307.241 31.5C306.961 30.98 306.821 30.38 306.821 29.7C306.821 29.028 306.965 28.436 307.253 27.924C307.549 27.404 307.949 27.008 308.453 26.736C308.957 26.456 309.521 26.316 310.145 26.316C310.769 26.316 311.333 26.456 311.837 26.736C312.341 27.008 312.737 27.4 313.025 27.912C313.321 28.424 313.469 29.02 313.469 29.7C313.469 30.38 313.317 30.98 313.013 31.5C312.717 32.012 312.313 32.408 311.801 32.688C311.289 32.968 310.721 33.108 310.097 33.108ZM310.097 32.148C310.489 32.148 310.857 32.056 311.201 31.872C311.545 31.688 311.821 31.412 312.029 31.044C312.245 30.676 312.353 30.228 312.353 29.7C312.353 29.172 312.249 28.724 312.041 28.356C311.833 27.988 311.561 27.716 311.225 27.54C310.889 27.356 310.525 27.264 310.133 27.264C309.733 27.264 309.365 27.356 309.029 27.54C308.701 27.716 308.437 27.988 308.237 28.356C308.037 28.724 307.937 29.172 307.937 29.7C307.937 30.236 308.033 30.688 308.225 31.056C308.425 31.424 308.689 31.7 309.017 31.884C309.345 32.06 309.705 32.148 310.097 32.148ZM314.496 29.688C314.496 29.016 314.632 28.428 314.904 27.924C315.176 27.412 315.548 27.016 316.02 26.736C316.5 26.456 317.036 26.316 317.628 26.316C318.14 26.316 318.616 26.436 319.056 26.676C319.496 26.908 319.832 27.216 320.064 27.6V24.12H321.168V33H320.064V31.764C319.848 32.156 319.528 32.48 319.104 32.736C318.68 32.984 318.184 33.108 317.616 33.108C317.032 33.108 316.5 32.964 316.02 32.676C315.548 32.388 315.176 31.984 314.904 31.464C314.632 30.944 314.496 30.352 314.496 29.688ZM320.064 29.7C320.064 29.204 319.964 28.772 319.764 28.404C319.564 28.036 319.292 27.756 318.948 27.564C318.612 27.364 318.24 27.264 317.832 27.264C317.424 27.264 317.052 27.36 316.716 27.552C316.38 27.744 316.112 28.024 315.912 28.392C315.712 28.76 315.612 29.192 315.612 29.688C315.612 30.192 315.712 30.632 315.912 31.008C316.112 31.376 316.38 31.66 316.716 31.86C317.052 32.052 317.424 32.148 317.832 32.148C318.24 32.148 318.612 32.052 318.948 31.86C319.292 31.66 319.564 31.376 319.764 31.008C319.964 30.632 320.064 30.196 320.064 29.7ZM329.014 29.46C329.014 29.668 329.002 29.888 328.978 30.12H323.722C323.762 30.768 323.982 31.276 324.382 31.644C324.79 32.004 325.282 32.184 325.858 32.184C326.33 32.184 326.722 32.076 327.034 31.86C327.354 31.636 327.578 31.34 327.706 30.972H328.882C328.706 31.604 328.354 32.12 327.826 32.52C327.298 32.912 326.642 33.108 325.858 33.108C325.234 33.108 324.674 32.968 324.178 32.688C323.69 32.408 323.306 32.012 323.026 31.5C322.746 30.98 322.606 30.38 322.606 29.7C322.606 29.02 322.742 28.424 323.014 27.912C323.286 27.4 323.666 27.008 324.154 26.736C324.65 26.456 325.218 26.316 325.858 26.316C326.482 26.316 327.034 26.452 327.514 26.724C327.994 26.996 328.362 27.372 328.618 27.852C328.882 28.324 329.014 28.86 329.014 29.46ZM327.886 29.232C327.886 28.816 327.794 28.46 327.61 28.164C327.426 27.86 327.174 27.632 326.854 27.48C326.542 27.32 326.194 27.24 325.81 27.24C325.258 27.24 324.786 27.416 324.394 27.768C324.01 28.12 323.79 28.608 323.734 29.232H327.886Z" fill="#00FFF0"/>
<path d="M115.436 54.636L113.012 63H111.788L109.844 56.268L107.828 63L106.616 63.012L104.276 54.636H105.44L107.264 61.728L109.28 54.636H110.504L112.424 61.704L114.26 54.636H115.436ZM119.895 56.304C120.391 56.304 120.839 56.412 121.239 56.628C121.639 56.836 121.951 57.152 122.175 57.576C122.407 58 122.523 58.516 122.523 59.124V63H121.443V59.28C121.443 58.624 121.279 58.124 120.951 57.78C120.623 57.428 120.175 57.252 119.607 57.252C119.031 57.252 118.571 57.432 118.227 57.792C117.891 58.152 117.723 58.676 117.723 59.364V63H116.631V54.12H117.723V57.36C117.939 57.024 118.235 56.764 118.611 56.58C118.995 56.396 119.423 56.304 119.895 56.304ZM130.307 59.46C130.307 59.668 130.295 59.888 130.271 60.12H125.015C125.055 60.768 125.275 61.276 125.675 61.644C126.083 62.004 126.575 62.184 127.151 62.184C127.623 62.184 128.015 62.076 128.327 61.86C128.647 61.636 128.871 61.34 128.999 60.972H130.175C129.999 61.604 129.647 62.12 129.119 62.52C128.591 62.912 127.935 63.108 127.151 63.108C126.527 63.108 125.967 62.968 125.471 62.688C124.983 62.408 124.599 62.012 124.319 61.5C124.039 60.98 123.899 60.38 123.899 59.7C123.899 59.02 124.035 58.424 124.307 57.912C124.579 57.4 124.959 57.008 125.447 56.736C125.943 56.456 126.511 56.316 127.151 56.316C127.775 56.316 128.327 56.452 128.807 56.724C129.287 56.996 129.655 57.372 129.911 57.852C130.175 58.324 130.307 58.86 130.307 59.46ZM129.179 59.232C129.179 58.816 129.087 58.46 128.903 58.164C128.719 57.86 128.467 57.632 128.147 57.48C127.835 57.32 127.487 57.24 127.103 57.24C126.551 57.24 126.079 57.416 125.687 57.768C125.303 58.12 125.083 58.608 125.027 59.232H129.179ZM134.952 56.304C135.752 56.304 136.4 56.548 136.896 57.036C137.392 57.516 137.64 58.212 137.64 59.124V63H136.56V59.28C136.56 58.624 136.396 58.124 136.068 57.78C135.74 57.428 135.292 57.252 134.724 57.252C134.148 57.252 133.688 57.432 133.344 57.792C133.008 58.152 132.84 58.676 132.84 59.364V63H131.748V56.424H132.84V57.36C133.056 57.024 133.348 56.764 133.716 56.58C134.092 56.396 134.504 56.304 134.952 56.304ZM143.955 57.324V61.2C143.955 61.52 144.023 61.748 144.159 61.884C144.295 62.012 144.531 62.076 144.867 62.076H145.671V63H144.687C144.079 63 143.623 62.86 143.319 62.58C143.015 62.3 142.863 61.84 142.863 61.2V57.324H142.011V56.424H142.863V54.768H143.955V56.424H145.671V57.324H143.955ZM150.258 56.304C150.754 56.304 151.202 56.412 151.602 56.628C152.002 56.836 152.314 57.152 152.538 57.576C152.77 58 152.886 58.516 152.886 59.124V63H151.806V59.28C151.806 58.624 151.642 58.124 151.314 57.78C150.986 57.428 150.538 57.252 149.97 57.252C149.394 57.252 148.934 57.432 148.59 57.792C148.254 58.152 148.086 58.676 148.086 59.364V63H146.994V54.12H148.086V57.36C148.302 57.024 148.598 56.764 148.974 56.58C149.358 56.396 149.786 56.304 150.258 56.304ZM160.67 59.46C160.67 59.668 160.658 59.888 160.634 60.12H155.378C155.418 60.768 155.638 61.276 156.038 61.644C156.446 62.004 156.938 62.184 157.514 62.184C157.986 62.184 158.378 62.076 158.69 61.86C159.01 61.636 159.234 61.34 159.362 60.972H160.538C160.362 61.604 160.01 62.12 159.482 62.52C158.954 62.912 158.298 63.108 157.514 63.108C156.89 63.108 156.33 62.968 155.834 62.688C155.346 62.408 154.962 62.012 154.682 61.5C154.402 60.98 154.262 60.38 154.262 59.7C154.262 59.02 154.398 58.424 154.67 57.912C154.942 57.4 155.322 57.008 155.81 56.736C156.306 56.456 156.874 56.316 157.514 56.316C158.138 56.316 158.69 56.452 159.17 56.724C159.65 56.996 160.018 57.372 160.274 57.852C160.538 58.324 160.67 58.86 160.67 59.46ZM159.542 59.232C159.542 58.816 159.45 58.46 159.266 58.164C159.082 57.86 158.83 57.632 158.51 57.48C158.198 57.32 157.85 57.24 157.466 57.24C156.914 57.24 156.442 57.416 156.05 57.768C155.666 58.12 155.446 58.608 155.39 59.232H159.542ZM173.219 56.304C173.731 56.304 174.187 56.412 174.587 56.628C174.987 56.836 175.303 57.152 175.535 57.576C175.767 58 175.883 58.516 175.883 59.124V63H174.803V59.28C174.803 58.624 174.639 58.124 174.311 57.78C173.991 57.428 173.555 57.252 173.003 57.252C172.435 57.252 171.983 57.436 171.647 57.804C171.311 58.164 171.143 58.688 171.143 59.376V63H170.063V59.28C170.063 58.624 169.899 58.124 169.571 57.78C169.251 57.428 168.815 57.252 168.263 57.252C167.695 57.252 167.243 57.436 166.907 57.804C166.571 58.164 166.403 58.688 166.403 59.376V63H165.311V56.424H166.403V57.372C166.619 57.028 166.907 56.764 167.267 56.58C167.635 56.396 168.039 56.304 168.479 56.304C169.031 56.304 169.519 56.428 169.943 56.676C170.367 56.924 170.683 57.288 170.891 57.768C171.075 57.304 171.379 56.944 171.803 56.688C172.227 56.432 172.699 56.304 173.219 56.304ZM178.238 55.356C178.03 55.356 177.854 55.284 177.71 55.14C177.566 54.996 177.494 54.82 177.494 54.612C177.494 54.404 177.566 54.228 177.71 54.084C177.854 53.94 178.03 53.868 178.238 53.868C178.438 53.868 178.606 53.94 178.742 54.084C178.886 54.228 178.958 54.404 178.958 54.612C178.958 54.82 178.886 54.996 178.742 55.14C178.606 55.284 178.438 55.356 178.238 55.356ZM178.766 56.424V63H177.674V56.424H178.766ZM183.831 56.304C184.631 56.304 185.279 56.548 185.775 57.036C186.271 57.516 186.519 58.212 186.519 59.124V63H185.439V59.28C185.439 58.624 185.275 58.124 184.947 57.78C184.619 57.428 184.171 57.252 183.603 57.252C183.027 57.252 182.567 57.432 182.223 57.792C181.887 58.152 181.719 58.676 181.719 59.364V63H180.627V56.424H181.719V57.36C181.935 57.024 182.227 56.764 182.595 56.58C182.971 56.396 183.383 56.304 183.831 56.304ZM188.867 55.356C188.659 55.356 188.483 55.284 188.339 55.14C188.195 54.996 188.123 54.82 188.123 54.612C188.123 54.404 188.195 54.228 188.339 54.084C188.483 53.94 188.659 53.868 188.867 53.868C189.067 53.868 189.235 53.94 189.371 54.084C189.515 54.228 189.587 54.404 189.587 54.612C189.587 54.82 189.515 54.996 189.371 55.14C189.235 55.284 189.067 55.356 188.867 55.356ZM189.395 56.424V63H188.303V56.424H189.395ZM199.164 56.304C199.676 56.304 200.132 56.412 200.532 56.628C200.932 56.836 201.248 57.152 201.48 57.576C201.712 58 201.828 58.516 201.828 59.124V63H200.748V59.28C200.748 58.624 200.584 58.124 200.256 57.78C199.936 57.428 199.5 57.252 198.948 57.252C198.38 57.252 197.928 57.436 197.592 57.804C197.256 58.164 197.088 58.688 197.088 59.376V63H196.008V59.28C196.008 58.624 195.844 58.124 195.516 57.78C195.196 57.428 194.76 57.252 194.208 57.252C193.64 57.252 193.188 57.436 192.852 57.804C192.516 58.164 192.348 58.688 192.348 59.376V63H191.256V56.424H192.348V57.372C192.564 57.028 192.852 56.764 193.212 56.58C193.58 56.396 193.984 56.304 194.424 56.304C194.976 56.304 195.464 56.428 195.888 56.676C196.312 56.924 196.628 57.288 196.836 57.768C197.02 57.304 197.324 56.944 197.748 56.688C198.172 56.432 198.644 56.304 199.164 56.304ZM209.451 56.424V63H208.359V62.028C208.151 62.364 207.859 62.628 207.483 62.82C207.115 63.004 206.707 63.096 206.259 63.096C205.747 63.096 205.287 62.992 204.879 62.784C204.471 62.568 204.147 62.248 203.907 61.824C203.675 61.4 203.559 60.884 203.559 60.276V56.424H204.639V60.132C204.639 60.78 204.803 61.28 205.131 61.632C205.459 61.976 205.907 62.148 206.475 62.148C207.059 62.148 207.519 61.968 207.855 61.608C208.191 61.248 208.359 60.724 208.359 60.036V56.424H209.451ZM219.203 56.304C219.715 56.304 220.171 56.412 220.571 56.628C220.971 56.836 221.287 57.152 221.519 57.576C221.751 58 221.867 58.516 221.867 59.124V63H220.787V59.28C220.787 58.624 220.623 58.124 220.295 57.78C219.975 57.428 219.539 57.252 218.987 57.252C218.419 57.252 217.967 57.436 217.631 57.804C217.295 58.164 217.127 58.688 217.127 59.376V63H216.047V59.28C216.047 58.624 215.883 58.124 215.555 57.78C215.235 57.428 214.799 57.252 214.247 57.252C213.679 57.252 213.227 57.436 212.891 57.804C212.555 58.164 212.387 58.688 212.387 59.376V63H211.295V56.424H212.387V57.372C212.603 57.028 212.891 56.764 213.251 56.58C213.619 56.396 214.023 56.304 214.463 56.304C215.015 56.304 215.503 56.428 215.927 56.676C216.351 56.924 216.667 57.288 216.875 57.768C217.059 57.304 217.363 56.944 217.787 56.688C218.211 56.432 218.683 56.304 219.203 56.304ZM229.726 63.108C229.11 63.108 228.55 62.968 228.046 62.688C227.55 62.408 227.158 62.012 226.87 61.5C226.59 60.98 226.45 60.38 226.45 59.7C226.45 59.028 226.594 58.436 226.882 57.924C227.178 57.404 227.578 57.008 228.082 56.736C228.586 56.456 229.15 56.316 229.774 56.316C230.398 56.316 230.962 56.456 231.466 56.736C231.97 57.008 232.366 57.4 232.654 57.912C232.95 58.424 233.098 59.02 233.098 59.7C233.098 60.38 232.946 60.98 232.642 61.5C232.346 62.012 231.942 62.408 231.43 62.688C230.918 62.968 230.35 63.108 229.726 63.108ZM229.726 62.148C230.118 62.148 230.486 62.056 230.83 61.872C231.174 61.688 231.45 61.412 231.658 61.044C231.874 60.676 231.982 60.228 231.982 59.7C231.982 59.172 231.878 58.724 231.67 58.356C231.462 57.988 231.19 57.716 230.854 57.54C230.518 57.356 230.154 57.264 229.762 57.264C229.362 57.264 228.994 57.356 228.658 57.54C228.33 57.716 228.066 57.988 227.866 58.356C227.666 58.724 227.566 59.172 227.566 59.7C227.566 60.236 227.662 60.688 227.854 61.056C228.054 61.424 228.318 61.7 228.646 61.884C228.974 62.06 229.334 62.148 229.726 62.148ZM235.625 57.492C235.817 57.116 236.089 56.824 236.441 56.616C236.801 56.408 237.237 56.304 237.749 56.304V57.432H237.461C236.237 57.432 235.625 58.096 235.625 59.424V63H234.533V56.424H235.625V57.492ZM238.602 59.688C238.602 59.016 238.738 58.428 239.01 57.924C239.282 57.412 239.654 57.016 240.126 56.736C240.606 56.456 241.142 56.316 241.734 56.316C242.246 56.316 242.722 56.436 243.162 56.676C243.602 56.908 243.938 57.216 244.17 57.6V54.12H245.274V63H244.17V61.764C243.954 62.156 243.634 62.48 243.21 62.736C242.786 62.984 242.29 63.108 241.722 63.108C241.138 63.108 240.606 62.964 240.126 62.676C239.654 62.388 239.282 61.984 239.01 61.464C238.738 60.944 238.602 60.352 238.602 59.688ZM244.17 59.7C244.17 59.204 244.07 58.772 243.87 58.404C243.67 58.036 243.398 57.756 243.054 57.564C242.718 57.364 242.346 57.264 241.938 57.264C241.53 57.264 241.158 57.36 240.822 57.552C240.486 57.744 240.218 58.024 240.018 58.392C239.818 58.76 239.718 59.192 239.718 59.688C239.718 60.192 239.818 60.632 240.018 61.008C240.218 61.376 240.486 61.66 240.822 61.86C241.158 62.052 241.53 62.148 241.938 62.148C242.346 62.148 242.718 62.052 243.054 61.86C243.398 61.66 243.67 61.376 243.87 61.008C244.07 60.632 244.17 60.196 244.17 59.7ZM253.119 59.46C253.119 59.668 253.107 59.888 253.083 60.12H247.827C247.867 60.768 248.087 61.276 248.487 61.644C248.895 62.004 249.387 62.184 249.963 62.184C250.435 62.184 250.827 62.076 251.139 61.86C251.459 61.636 251.683 61.34 251.811 60.972H252.987C252.811 61.604 252.459 62.12 251.931 62.52C251.403 62.912 250.747 63.108 249.963 63.108C249.339 63.108 248.779 62.968 248.283 62.688C247.795 62.408 247.411 62.012 247.131 61.5C246.851 60.98 246.711 60.38 246.711 59.7C246.711 59.02 246.847 58.424 247.119 57.912C247.391 57.4 247.771 57.008 248.259 56.736C248.755 56.456 249.323 56.316 249.963 56.316C250.587 56.316 251.139 56.452 251.619 56.724C252.099 56.996 252.467 57.372 252.723 57.852C252.987 58.324 253.119 58.86 253.119 59.46ZM251.991 59.232C251.991 58.816 251.899 58.46 251.715 58.164C251.531 57.86 251.279 57.632 250.959 57.48C250.647 57.32 250.299 57.24 249.915 57.24C249.363 57.24 248.891 57.416 248.499 57.768C248.115 58.12 247.895 58.608 247.839 59.232H251.991ZM255.653 57.492C255.845 57.116 256.117 56.824 256.469 56.616C256.829 56.408 257.265 56.304 257.777 56.304V57.432H257.489C256.265 57.432 255.653 58.096 255.653 59.424V63H254.561V56.424H255.653V57.492ZM264.685 61.992L266.725 56.424H267.889L265.309 63H264.037L261.457 56.424H262.633L264.685 61.992ZM268.555 59.688C268.555 59.016 268.691 58.428 268.963 57.924C269.235 57.412 269.607 57.016 270.079 56.736C270.559 56.456 271.091 56.316 271.675 56.316C272.251 56.316 272.751 56.44 273.175 56.688C273.599 56.936 273.915 57.248 274.123 57.624V56.424H275.227V63H274.123V61.776C273.907 62.16 273.583 62.48 273.151 62.736C272.727 62.984 272.231 63.108 271.663 63.108C271.079 63.108 270.551 62.964 270.079 62.676C269.607 62.388 269.235 61.984 268.963 61.464C268.691 60.944 268.555 60.352 268.555 59.688ZM274.123 59.7C274.123 59.204 274.023 58.772 273.823 58.404C273.623 58.036 273.351 57.756 273.007 57.564C272.671 57.364 272.299 57.264 271.891 57.264C271.483 57.264 271.111 57.36 270.775 57.552C270.439 57.744 270.171 58.024 269.971 58.392C269.771 58.76 269.671 59.192 269.671 59.688C269.671 60.192 269.771 60.632 269.971 61.008C270.171 61.376 270.439 61.66 270.775 61.86C271.111 62.052 271.483 62.148 271.891 62.148C272.299 62.148 272.671 62.052 273.007 61.86C273.351 61.66 273.623 61.376 273.823 61.008C274.023 60.632 274.123 60.196 274.123 59.7ZM278.164 54.12V63H277.072V54.12H278.164ZM285.858 56.424V63H284.766V62.028C284.558 62.364 284.266 62.628 283.89 62.82C283.522 63.004 283.114 63.096 282.666 63.096C282.154 63.096 281.694 62.992 281.286 62.784C280.878 62.568 280.554 62.248 280.314 61.824C280.082 61.4 279.966 60.884 279.966 60.276V56.424H281.046V60.132C281.046 60.78 281.21 61.28 281.538 61.632C281.866 61.976 282.314 62.148 282.882 62.148C283.466 62.148 283.926 61.968 284.262 61.608C284.598 61.248 284.766 60.724 284.766 60.036V56.424H285.858ZM293.701 59.46C293.701 59.668 293.689 59.888 293.665 60.12H288.409C288.449 60.768 288.669 61.276 289.069 61.644C289.477 62.004 289.969 62.184 290.545 62.184C291.017 62.184 291.409 62.076 291.721 61.86C292.041 61.636 292.265 61.34 292.393 60.972H293.569C293.393 61.604 293.041 62.12 292.513 62.52C291.985 62.912 291.329 63.108 290.545 63.108C289.921 63.108 289.361 62.968 288.865 62.688C288.377 62.408 287.993 62.012 287.713 61.5C287.433 60.98 287.293 60.38 287.293 59.7C287.293 59.02 287.429 58.424 287.701 57.912C287.973 57.4 288.353 57.008 288.841 56.736C289.337 56.456 289.905 56.316 290.545 56.316C291.169 56.316 291.721 56.452 292.201 56.724C292.681 56.996 293.049 57.372 293.305 57.852C293.569 58.324 293.701 58.86 293.701 59.46ZM292.573 59.232C292.573 58.816 292.481 58.46 292.297 58.164C292.113 57.86 291.861 57.632 291.541 57.48C291.229 57.32 290.881 57.24 290.497 57.24C289.945 57.24 289.473 57.416 289.081 57.768C288.697 58.12 288.477 58.608 288.421 59.232H292.573ZM298.906 55.356C298.698 55.356 298.522 55.284 298.378 55.14C298.234 54.996 298.162 54.82 298.162 54.612C298.162 54.404 298.234 54.228 298.378 54.084C298.522 53.94 298.698 53.868 298.906 53.868C299.106 53.868 299.274 53.94 299.41 54.084C299.554 54.228 299.626 54.404 299.626 54.612C299.626 54.82 299.554 54.996 299.41 55.14C299.274 55.284 299.106 55.356 298.906 55.356ZM299.434 56.424V63H298.342V56.424H299.434ZM303.623 63.108C303.119 63.108 302.667 63.024 302.267 62.856C301.867 62.68 301.551 62.44 301.319 62.136C301.087 61.824 300.959 61.468 300.935 61.068H302.063C302.095 61.396 302.247 61.664 302.519 61.872C302.799 62.08 303.163 62.184 303.611 62.184C304.027 62.184 304.355 62.092 304.595 61.908C304.835 61.724 304.955 61.492 304.955 61.212C304.955 60.924 304.827 60.712 304.571 60.576C304.315 60.432 303.919 60.292 303.383 60.156C302.895 60.028 302.495 59.9 302.183 59.772C301.879 59.636 301.615 59.44 301.391 59.184C301.175 58.92 301.067 58.576 301.067 58.152C301.067 57.816 301.167 57.508 301.367 57.228C301.567 56.948 301.851 56.728 302.219 56.568C302.587 56.4 303.007 56.316 303.479 56.316C304.207 56.316 304.795 56.5 305.243 56.868C305.691 57.236 305.931 57.74 305.963 58.38H304.871C304.847 58.036 304.707 57.76 304.451 57.552C304.203 57.344 303.867 57.24 303.443 57.24C303.051 57.24 302.739 57.324 302.507 57.492C302.275 57.66 302.159 57.88 302.159 58.152C302.159 58.368 302.227 58.548 302.363 58.692C302.507 58.828 302.683 58.94 302.891 59.028C303.107 59.108 303.403 59.2 303.779 59.304C304.251 59.432 304.635 59.56 304.931 59.688C305.227 59.808 305.479 59.992 305.687 60.24C305.903 60.488 306.015 60.812 306.023 61.212C306.023 61.572 305.923 61.896 305.723 62.184C305.523 62.472 305.239 62.7 304.871 62.868C304.511 63.028 304.095 63.108 303.623 63.108ZM316.116 55.272H311.904V58.008C312.088 57.752 312.36 57.544 312.72 57.384C313.08 57.216 313.468 57.132 313.884 57.132C314.548 57.132 315.088 57.272 315.504 57.552C315.92 57.824 316.216 58.18 316.392 58.62C316.576 59.052 316.668 59.512 316.668 60C316.668 60.576 316.56 61.092 316.344 61.548C316.128 62.004 315.796 62.364 315.348 62.628C314.908 62.892 314.36 63.024 313.704 63.024C312.864 63.024 312.184 62.808 311.664 62.376C311.144 61.944 310.828 61.368 310.716 60.648H311.784C311.888 61.104 312.108 61.46 312.444 61.716C312.78 61.972 313.204 62.1 313.716 62.1C314.348 62.1 314.824 61.912 315.144 61.536C315.464 61.152 315.624 60.648 315.624 60.024C315.624 59.4 315.464 58.92 315.144 58.584C314.824 58.24 314.352 58.068 313.728 58.068C313.304 58.068 312.932 58.172 312.612 58.38C312.3 58.58 312.072 58.856 311.928 59.208H310.896V54.312H316.116V55.272ZM318.119 58.572C318.119 57.196 318.343 56.124 318.791 55.356C319.239 54.58 320.023 54.192 321.143 54.192C322.255 54.192 323.035 54.58 323.483 55.356C323.931 56.124 324.155 57.196 324.155 58.572C324.155 59.972 323.931 61.06 323.483 61.836C323.035 62.612 322.255 63 321.143 63C320.023 63 319.239 62.612 318.791 61.836C318.343 61.06 318.119 59.972 318.119 58.572ZM323.075 58.572C323.075 57.876 323.027 57.288 322.931 56.808C322.843 56.32 322.655 55.928 322.367 55.632C322.087 55.336 321.679 55.188 321.143 55.188C320.599 55.188 320.183 55.336 319.895 55.632C319.615 55.928 319.427 56.32 319.331 56.808C319.243 57.288 319.199 57.876 319.199 58.572C319.199 59.292 319.243 59.896 319.331 60.384C319.427 60.872 319.615 61.264 319.895 61.56C320.183 61.856 320.599 62.004 321.143 62.004C321.679 62.004 322.087 61.856 322.367 61.56C322.655 61.264 322.843 60.872 322.931 60.384C323.027 59.896 323.075 59.292 323.075 58.572ZM325.654 58.572C325.654 57.196 325.878 56.124 326.326 55.356C326.774 54.58 327.558 54.192 328.678 54.192C329.79 54.192 330.57 54.58 331.018 55.356C331.466 56.124 331.69 57.196 331.69 58.572C331.69 59.972 331.466 61.06 331.018 61.836C330.57 62.612 329.79 63 328.678 63C327.558 63 326.774 62.612 326.326 61.836C325.878 61.06 325.654 59.972 325.654 58.572ZM330.61 58.572C330.61 57.876 330.562 57.288 330.466 56.808C330.378 56.32 330.19 55.928 329.902 55.632C329.622 55.336 329.214 55.188 328.678 55.188C328.134 55.188 327.718 55.336 327.43 55.632C327.15 55.928 326.962 56.32 326.866 56.808C326.778 57.288 326.734 57.876 326.734 58.572C326.734 59.292 326.778 59.896 326.866 60.384C326.962 60.872 327.15 61.264 327.43 61.56C327.718 61.856 328.134 62.004 328.678 62.004C329.214 62.004 329.622 61.856 329.902 61.56C330.19 61.264 330.378 60.872 330.466 60.384C330.562 59.896 330.61 59.292 330.61 58.572ZM337.041 63L334.461 60.096V63H333.369V54.12H334.461V59.34L336.993 56.424H338.517L335.421 59.7L338.529 63H337.041Z" fill="white" fill-opacity="0.8"/>
<path d="M106.016 77.524V80.32H109.064V81.22H106.016V84.1H109.424V85H104.924V76.624H109.424V77.524H106.016ZM114.508 85L112.948 82.552L111.448 85H110.308L112.432 81.736L110.308 78.424H111.544L113.104 80.86L114.592 78.424H115.732L113.62 81.676L115.744 85H114.508ZM117.911 79.636C118.127 79.26 118.447 78.948 118.871 78.7C119.303 78.444 119.803 78.316 120.371 78.316C120.955 78.316 121.483 78.456 121.955 78.736C122.435 79.016 122.811 79.412 123.083 79.924C123.355 80.428 123.491 81.016 123.491 81.688C123.491 82.352 123.355 82.944 123.083 83.464C122.811 83.984 122.435 84.388 121.955 84.676C121.483 84.964 120.955 85.108 120.371 85.108C119.811 85.108 119.315 84.984 118.883 84.736C118.459 84.48 118.135 84.164 117.911 83.788V88.12H116.819V78.424H117.911V79.636ZM122.375 81.688C122.375 81.192 122.275 80.76 122.075 80.392C121.875 80.024 121.603 79.744 121.259 79.552C120.923 79.36 120.551 79.264 120.143 79.264C119.743 79.264 119.371 79.364 119.027 79.564C118.691 79.756 118.419 80.04 118.211 80.416C118.011 80.784 117.911 81.212 117.911 81.7C117.911 82.196 118.011 82.632 118.211 83.008C118.419 83.376 118.691 83.66 119.027 83.86C119.371 84.052 119.743 84.148 120.143 84.148C120.551 84.148 120.923 84.052 121.259 83.86C121.603 83.66 121.875 83.376 122.075 83.008C122.275 82.632 122.375 82.192 122.375 81.688ZM125.492 77.356C125.284 77.356 125.108 77.284 124.964 77.14C124.82 76.996 124.748 76.82 124.748 76.612C124.748 76.404 124.82 76.228 124.964 76.084C125.108 75.94 125.284 75.868 125.492 75.868C125.692 75.868 125.86 75.94 125.996 76.084C126.14 76.228 126.212 76.404 126.212 76.612C126.212 76.82 126.14 76.996 125.996 77.14C125.86 77.284 125.692 77.356 125.492 77.356ZM126.02 78.424V85H124.928V78.424H126.02ZM128.973 79.492C129.165 79.116 129.437 78.824 129.789 78.616C130.149 78.408 130.585 78.304 131.097 78.304V79.432H130.809C129.585 79.432 128.973 80.096 128.973 81.424V85H127.881V78.424H128.973V79.492ZM138.022 78.424L134.062 88.096H132.934L134.23 84.928L131.578 78.424H132.79L134.854 83.752L136.894 78.424H138.022ZM141.911 81.688C141.911 81.016 142.047 80.428 142.319 79.924C142.591 79.412 142.963 79.016 143.435 78.736C143.915 78.456 144.451 78.316 145.043 78.316C145.555 78.316 146.031 78.436 146.471 78.676C146.911 78.908 147.247 79.216 147.479 79.6V76.12H148.583V85H147.479V83.764C147.263 84.156 146.943 84.48 146.519 84.736C146.095 84.984 145.599 85.108 145.031 85.108C144.447 85.108 143.915 84.964 143.435 84.676C142.963 84.388 142.591 83.984 142.319 83.464C142.047 82.944 141.911 82.352 141.911 81.688ZM147.479 81.7C147.479 81.204 147.379 80.772 147.179 80.404C146.979 80.036 146.707 79.756 146.363 79.564C146.027 79.364 145.655 79.264 145.247 79.264C144.839 79.264 144.467 79.36 144.131 79.552C143.795 79.744 143.527 80.024 143.327 80.392C143.127 80.76 143.027 81.192 143.027 81.688C143.027 82.192 143.127 82.632 143.327 83.008C143.527 83.376 143.795 83.66 144.131 83.86C144.467 84.052 144.839 84.148 145.247 84.148C145.655 84.148 146.027 84.052 146.363 83.86C146.707 83.66 146.979 83.376 147.179 83.008C147.379 82.632 147.479 82.196 147.479 81.7ZM150.02 81.688C150.02 81.016 150.156 80.428 150.428 79.924C150.7 79.412 151.072 79.016 151.544 78.736C152.024 78.456 152.556 78.316 153.14 78.316C153.716 78.316 154.216 78.44 154.64 78.688C155.064 78.936 155.38 79.248 155.588 79.624V78.424H156.692V85H155.588V83.776C155.372 84.16 155.048 84.48 154.616 84.736C154.192 84.984 153.696 85.108 153.128 85.108C152.544 85.108 152.016 84.964 151.544 84.676C151.072 84.388 150.7 83.984 150.428 83.464C150.156 82.944 150.02 82.352 150.02 81.688ZM155.588 81.7C155.588 81.204 155.488 80.772 155.288 80.404C155.088 80.036 154.816 79.756 154.472 79.564C154.136 79.364 153.764 79.264 153.356 79.264C152.948 79.264 152.576 79.36 152.24 79.552C151.904 79.744 151.636 80.024 151.436 80.392C151.236 80.76 151.136 81.192 151.136 81.688C151.136 82.192 151.236 82.632 151.436 83.008C151.636 83.376 151.904 83.66 152.24 83.86C152.576 84.052 152.948 84.148 153.356 84.148C153.764 84.148 154.136 84.052 154.472 83.86C154.816 83.66 155.088 83.376 155.288 83.008C155.488 82.632 155.588 82.196 155.588 81.7ZM159.869 79.324V83.2C159.869 83.52 159.937 83.748 160.073 83.884C160.209 84.012 160.445 84.076 160.781 84.076H161.585V85H160.601C159.993 85 159.537 84.86 159.233 84.58C158.929 84.3 158.777 83.84 158.777 83.2V79.324H157.925V78.424H158.777V76.768H159.869V78.424H161.585V79.324H159.869ZM168.908 81.46C168.908 81.668 168.896 81.888 168.872 82.12H163.616C163.656 82.768 163.876 83.276 164.276 83.644C164.684 84.004 165.176 84.184 165.752 84.184C166.224 84.184 166.616 84.076 166.928 83.86C167.248 83.636 167.472 83.34 167.6 82.972H168.776C168.6 83.604 168.248 84.12 167.72 84.52C167.192 84.912 166.536 85.108 165.752 85.108C165.128 85.108 164.568 84.968 164.072 84.688C163.584 84.408 163.2 84.012 162.92 83.5C162.64 82.98 162.5 82.38 162.5 81.7C162.5 81.02 162.636 80.424 162.908 79.912C163.18 79.4 163.56 79.008 164.048 78.736C164.544 78.456 165.112 78.316 165.752 78.316C166.376 78.316 166.928 78.452 167.408 78.724C167.888 78.996 168.256 79.372 168.512 79.852C168.776 80.324 168.908 80.86 168.908 81.46ZM167.78 81.232C167.78 80.816 167.688 80.46 167.504 80.164C167.32 79.86 167.068 79.632 166.748 79.48C166.436 79.32 166.088 79.24 165.704 79.24C165.152 79.24 164.68 79.416 164.288 79.768C163.904 80.12 163.684 80.608 163.628 81.232H167.78ZM170.698 85.072C170.49 85.072 170.314 85 170.17 84.856C170.026 84.712 169.954 84.536 169.954 84.328C169.954 84.12 170.026 83.944 170.17 83.8C170.314 83.656 170.49 83.584 170.698 83.584C170.898 83.584 171.066 83.656 171.202 83.8C171.346 83.944 171.418 84.12 171.418 84.328C171.418 84.536 171.346 84.712 171.202 84.856C171.066 85 170.898 85.072 170.698 85.072ZM170.698 79.936C170.49 79.936 170.314 79.864 170.17 79.72C170.026 79.576 169.954 79.4 169.954 79.192C169.954 78.984 170.026 78.808 170.17 78.664C170.314 78.52 170.49 78.448 170.698 78.448C170.898 78.448 171.066 78.52 171.202 78.664C171.346 78.808 171.418 78.984 171.418 79.192C171.418 79.4 171.346 79.576 171.202 79.72C171.066 79.864 170.898 79.936 170.698 79.936ZM175.9 78.508C175.956 77.772 176.24 77.196 176.752 76.78C177.264 76.364 177.928 76.156 178.744 76.156C179.288 76.156 179.756 76.256 180.148 76.456C180.548 76.648 180.848 76.912 181.048 77.248C181.256 77.584 181.36 77.964 181.36 78.388C181.36 78.884 181.216 79.312 180.928 79.672C180.648 80.032 180.28 80.264 179.824 80.368V80.428C180.344 80.556 180.756 80.808 181.06 81.184C181.364 81.56 181.516 82.052 181.516 82.66C181.516 83.116 181.412 83.528 181.204 83.896C180.996 84.256 180.684 84.54 180.268 84.748C179.852 84.956 179.352 85.06 178.768 85.06C177.92 85.06 177.224 84.84 176.68 84.4C176.136 83.952 175.832 83.32 175.768 82.504H176.824C176.88 82.984 177.076 83.376 177.412 83.68C177.748 83.984 178.196 84.136 178.756 84.136C179.316 84.136 179.74 83.992 180.028 83.704C180.324 83.408 180.472 83.028 180.472 82.564C180.472 81.964 180.272 81.532 179.872 81.268C179.472 81.004 178.868 80.872 178.06 80.872H177.784V79.96H178.072C178.808 79.952 179.364 79.832 179.74 79.6C180.116 79.36 180.304 78.992 180.304 78.496C180.304 78.072 180.164 77.732 179.884 77.476C179.612 77.22 179.22 77.092 178.708 77.092C178.212 77.092 177.812 77.22 177.508 77.476C177.204 77.732 177.024 78.076 176.968 78.508H175.9ZM182.99 80.572C182.99 79.196 183.214 78.124 183.662 77.356C184.11 76.58 184.894 76.192 186.014 76.192C187.126 76.192 187.906 76.58 188.354 77.356C188.802 78.124 189.026 79.196 189.026 80.572C189.026 81.972 188.802 83.06 188.354 83.836C187.906 84.612 187.126 85 186.014 85C184.894 85 184.11 84.612 183.662 83.836C183.214 83.06 182.99 81.972 182.99 80.572ZM187.946 80.572C187.946 79.876 187.898 79.288 187.802 78.808C187.714 78.32 187.526 77.928 187.238 77.632C186.958 77.336 186.55 77.188 186.014 77.188C185.47 77.188 185.054 77.336 184.766 77.632C184.486 77.928 184.298 78.32 184.202 78.808C184.114 79.288 184.07 79.876 184.07 80.572C184.07 81.292 184.114 81.896 184.202 82.384C184.298 82.872 184.486 83.264 184.766 83.56C185.054 83.856 185.47 84.004 186.014 84.004C186.55 84.004 186.958 83.856 187.238 83.56C187.526 83.264 187.714 82.872 187.802 82.384C187.898 81.896 187.946 81.292 187.946 80.572ZM194.785 73.696L191.497 87.04H190.417L193.693 73.696H194.785ZM196.232 80.572C196.232 79.196 196.456 78.124 196.904 77.356C197.352 76.58 198.136 76.192 199.256 76.192C200.368 76.192 201.148 76.58 201.596 77.356C202.044 78.124 202.268 79.196 202.268 80.572C202.268 81.972 202.044 83.06 201.596 83.836C201.148 84.612 200.368 85 199.256 85C198.136 85 197.352 84.612 196.904 83.836C196.456 83.06 196.232 81.972 196.232 80.572ZM201.188 80.572C201.188 79.876 201.14 79.288 201.044 78.808C200.956 78.32 200.768 77.928 200.48 77.632C200.2 77.336 199.792 77.188 199.256 77.188C198.712 77.188 198.296 77.336 198.008 77.632C197.728 77.928 197.54 78.32 197.444 78.808C197.356 79.288 197.312 79.876 197.312 80.572C197.312 81.292 197.356 81.896 197.444 82.384C197.54 82.872 197.728 83.264 198.008 83.56C198.296 83.856 198.712 84.004 199.256 84.004C199.792 84.004 200.2 83.856 200.48 83.56C200.768 83.264 200.956 82.872 201.044 82.384C201.14 81.896 201.188 81.292 201.188 80.572ZM203.743 78.508C203.799 77.772 204.083 77.196 204.595 76.78C205.107 76.364 205.771 76.156 206.587 76.156C207.131 76.156 207.599 76.256 207.991 76.456C208.391 76.648 208.691 76.912 208.891 77.248C209.099 77.584 209.203 77.964 209.203 78.388C209.203 78.884 209.059 79.312 208.771 79.672C208.491 80.032 208.123 80.264 207.667 80.368V80.428C208.187 80.556 208.599 80.808 208.903 81.184C209.207 81.56 209.359 82.052 209.359 82.66C209.359 83.116 209.255 83.528 209.047 83.896C208.839 84.256 208.527 84.54 208.111 84.748C207.695 84.956 207.195 85.06 206.611 85.06C205.763 85.06 205.067 84.84 204.523 84.4C203.979 83.952 203.675 83.32 203.611 82.504H204.667C204.723 82.984 204.919 83.376 205.255 83.68C205.591 83.984 206.039 84.136 206.599 84.136C207.159 84.136 207.583 83.992 207.871 83.704C208.167 83.408 208.315 83.028 208.315 82.564C208.315 81.964 208.115 81.532 207.715 81.268C207.315 81.004 206.711 80.872 205.903 80.872H205.627V79.96H205.915C206.651 79.952 207.207 79.832 207.583 79.6C207.959 79.36 208.147 78.992 208.147 78.496C208.147 78.072 208.007 77.732 207.727 77.476C207.455 77.22 207.063 77.092 206.551 77.092C206.055 77.092 205.655 77.22 205.351 77.476C205.047 77.732 204.867 78.076 204.811 78.508H203.743ZM215.094 73.696L211.806 87.04H210.726L214.002 73.696H215.094ZM216.409 84.124C217.425 83.308 218.221 82.64 218.797 82.12C219.373 81.592 219.857 81.044 220.249 80.476C220.649 79.9 220.849 79.336 220.849 78.784C220.849 78.264 220.721 77.856 220.465 77.56C220.217 77.256 219.813 77.104 219.253 77.104C218.709 77.104 218.285 77.276 217.981 77.62C217.685 77.956 217.525 78.408 217.501 78.976H216.445C216.477 78.08 216.749 77.388 217.261 76.9C217.773 76.412 218.433 76.168 219.241 76.168C220.065 76.168 220.717 76.396 221.197 76.852C221.685 77.308 221.929 77.936 221.929 78.736C221.929 79.4 221.729 80.048 221.329 80.68C220.937 81.304 220.489 81.856 219.985 82.336C219.481 82.808 218.837 83.36 218.053 83.992H222.181V84.904H216.409V84.124ZM223.443 80.572C223.443 79.196 223.667 78.124 224.115 77.356C224.563 76.58 225.347 76.192 226.467 76.192C227.579 76.192 228.359 76.58 228.807 77.356C229.255 78.124 229.479 79.196 229.479 80.572C229.479 81.972 229.255 83.06 228.807 83.836C228.359 84.612 227.579 85 226.467 85C225.347 85 224.563 84.612 224.115 83.836C223.667 83.06 223.443 81.972 223.443 80.572ZM228.399 80.572C228.399 79.876 228.351 79.288 228.255 78.808C228.167 78.32 227.979 77.928 227.691 77.632C227.411 77.336 227.003 77.188 226.467 77.188C225.923 77.188 225.507 77.336 225.219 77.632C224.939 77.928 224.751 78.32 224.655 78.808C224.567 79.288 224.523 79.876 224.523 80.572C224.523 81.292 224.567 81.896 224.655 82.384C224.751 82.872 224.939 83.264 225.219 83.56C225.507 83.856 225.923 84.004 226.467 84.004C227.003 84.004 227.411 83.856 227.691 83.56C227.979 83.264 228.167 82.872 228.255 82.384C228.351 81.896 228.399 81.292 228.399 80.572ZM230.846 84.124C231.862 83.308 232.658 82.64 233.234 82.12C233.81 81.592 234.294 81.044 234.686 80.476C235.086 79.9 235.286 79.336 235.286 78.784C235.286 78.264 235.158 77.856 234.902 77.56C234.654 77.256 234.25 77.104 233.69 77.104C233.146 77.104 232.722 77.276 232.418 77.62C232.122 77.956 231.962 78.408 231.938 78.976H230.882C230.914 78.08 231.186 77.388 231.698 76.9C232.21 76.412 232.87 76.168 233.678 76.168C234.502 76.168 235.154 76.396 235.634 76.852C236.122 77.308 236.366 77.936 236.366 78.736C236.366 79.4 236.166 80.048 235.766 80.68C235.374 81.304 234.926 81.856 234.422 82.336C233.918 82.808 233.274 83.36 232.49 83.992H236.618V84.904H230.846V84.124ZM237.749 84.124C238.765 83.308 239.561 82.64 240.137 82.12C240.713 81.592 241.197 81.044 241.589 80.476C241.989 79.9 242.189 79.336 242.189 78.784C242.189 78.264 242.061 77.856 241.805 77.56C241.557 77.256 241.153 77.104 240.593 77.104C240.049 77.104 239.625 77.276 239.321 77.62C239.025 77.956 238.865 78.408 238.841 78.976H237.785C237.817 78.08 238.089 77.388 238.601 76.9C239.113 76.412 239.773 76.168 240.581 76.168C241.405 76.168 242.057 76.396 242.537 76.852C243.025 77.308 243.269 77.936 243.269 78.736C243.269 79.4 243.069 80.048 242.669 80.68C242.277 81.304 241.829 81.856 241.325 82.336C240.821 82.808 240.177 83.36 239.393 83.992H243.521V84.904H237.749V84.124Z" fill="white" fill-opacity="0.8"/>
</svg>
